if (_typeface_js && _typeface_js.loadFace) _typeface_js.loadFace({"glyphs":{"¦":{"x_min":46,"x_max":165,"ha":209,"o":"m 115 44 q 108 12 99 22 q 130 3 118 3 q 154 12 143 3 q 165 36 165 21 q 165 188 165 93 q 165 394 165 283 q 165 620 165 505 q 141 831 165 735 q 130 865 141 868 q 120 825 120 861 q 115 701 115 771 q 115 556 115 631 q 115 403 115 480 q 115 258 115 326 q 115 134 115 190 q 115 44 115 78 m 111 1018 q 102 1049 111 1039 q 80 1059 92 1059 q 57 1050 68 1059 q 46 1025 46 1042 q 46 873 46 968 q 46 667 46 778 q 46 442 46 557 q 72 230 46 326 q 82 197 72 194 q 93 236 93 200 q 95 360 95 290 q 95 506 95 430 q 95 659 95 582 q 95 804 95 736 q 95 929 95 872 q 111 1018 95 985 "},"Á":{"x_min":67.984375,"x_max":1505.3125,"ha":1526,"o":"m 1255 449 q 1268 416 1259 438 q 1284 370 1276 395 q 1295 321 1291 345 q 1291 284 1298 297 q 1274 268 1287 274 q 1244 258 1261 262 q 1211 255 1227 255 q 1185 255 1195 255 q 1166 200 1179 243 q 1141 101 1152 157 q 1130 -14 1130 45 q 1138 -118 1130 -74 q 1137 -137 1142 -135 q 1127 -126 1132 -139 q 1111 -17 1111 -76 q 1117 96 1111 41 q 1133 195 1123 152 q 1148 257 1143 238 q 1098 266 1132 259 q 1027 279 1065 273 q 953 293 988 286 q 900 304 918 300 q 865 265 893 296 q 795 193 837 235 q 698 106 752 152 q 580 20 643 60 q 448 -46 516 -19 q 311 -74 379 -74 q 169 -34 229 -74 q 84 64 110 4 q 73 191 58 124 q 154 313 87 259 q 300 376 211 358 q 493 394 390 394 q 701 377 595 394 q 895 340 806 361 q 958 414 922 368 q 1034 515 994 460 q 1117 631 1074 570 q 1201 753 1160 692 q 1278 869 1242 813 q 1342 967 1315 924 q 1359 980 1348 978 q 1380 976 1370 983 q 1399 957 1391 970 q 1408 926 1408 944 q 1414 917 1408 921 q 1428 907 1421 912 q 1438 895 1434 902 q 1438 880 1442 888 q 1380 758 1409 824 q 1326 629 1351 691 q 1282 519 1301 567 q 1255 449 1263 470 m 164 293 q 114 237 130 271 q 99 165 99 204 q 112 89 99 127 q 153 20 126 50 q 220 -29 180 -10 q 310 -49 260 -49 q 481 -10 397 -49 q 639 83 565 27 q 773 202 713 139 q 870 313 833 264 q 714 350 805 331 q 524 370 623 370 q 330 354 425 370 q 164 293 235 339 m 927 333 q 972 322 940 329 q 1040 309 1004 315 q 1110 296 1077 302 q 1156 291 1142 291 q 1199 431 1174 358 q 1251 577 1224 504 q 1307 721 1279 651 q 1360 856 1335 792 q 1365 883 1365 871 q 1359 901 1365 895 q 1345 905 1353 906 q 1330 891 1337 903 q 1271 803 1306 855 q 1195 695 1235 752 q 1112 579 1154 638 q 1033 471 1070 521 q 968 384 997 421 q 927 333 940 347 m 1262 1069 q 1248 1075 1252 1066 q 1254 1088 1244 1084 q 1308 1117 1277 1101 q 1369 1151 1338 1134 q 1428 1184 1401 1169 q 1476 1209 1456 1199 q 1492 1207 1484 1213 q 1503 1190 1499 1201 q 1504 1170 1506 1180 q 1491 1156 1502 1160 q 1442 1137 1470 1148 q 1382 1115 1413 1127 q 1319 1092 1351 1103 q 1262 1069 1287 1080 m 1269 302 q 1275 325 1275 310 q 1271 359 1275 341 q 1261 397 1268 377 q 1248 434 1255 417 q 1236 400 1244 421 q 1220 356 1228 379 q 1205 313 1212 333 q 1195 284 1198 293 q 1235 284 1210 282 q 1269 302 1259 286 "},"е":{"x_min":14,"x_max":650.09375,"ha":470,"o":"m 646 427 q 600 390 632 412 q 530 363 569 369 q 460 357 507 357 q 358 357 414 357 q 247 357 302 357 q 150 357 191 357 q 117 310 134 336 q 84 254 99 284 q 57 193 68 225 q 46 128 46 162 q 53 78 46 98 q 74 48 61 58 q 104 34 87 38 q 139 31 121 31 q 236 57 184 38 q 326 98 289 77 q 343 101 337 105 q 337 89 348 96 q 301 64 322 78 q 255 39 280 51 q 203 16 230 26 q 151 1 176 6 q 106 6 130 -2 q 61 33 81 15 q 27 76 41 51 q 14 128 14 100 q 52 280 14 204 q 146 422 91 356 q 262 536 201 488 q 372 603 323 584 q 419 601 398 612 q 452 571 440 591 q 466 526 464 551 q 455 480 468 501 q 380 415 434 441 q 257 379 326 388 q 333 379 294 379 q 409 379 373 379 q 477 379 446 379 q 530 384 508 379 q 589 402 559 387 q 636 433 619 417 q 648 440 643 442 q 646 427 652 437 m 422 492 q 437 530 436 514 q 430 556 439 547 q 406 565 422 565 q 369 553 390 565 q 265 476 318 524 q 165 377 212 428 q 240 385 201 377 q 314 410 279 394 q 377 447 348 426 q 422 492 405 467 "},"Î":{"x_min":-124,"x_max":889,"ha":853,"o":"m -78 154 q -61 169 -65 172 q -64 146 -57 165 q -92 14 -85 85 q -88 -117 -100 -56 q -43 -218 -76 -177 q 49 -259 -9 -259 q 141 -225 95 -259 q 228 -147 187 -191 q 300 -55 269 -102 q 348 19 332 -8 q 395 109 366 51 q 456 240 423 167 q 525 396 490 313 q 594 564 560 479 q 655 729 627 649 q 701 878 683 810 q 635 825 673 857 q 559 755 598 793 q 483 672 520 717 q 418 581 447 628 q 380 506 400 549 q 357 422 361 464 q 346 398 354 395 q 339 422 339 401 q 357 514 344 463 q 393 602 369 565 q 460 693 419 649 q 545 775 501 736 q 634 849 589 814 q 712 913 678 884 q 728 956 720 934 q 746 998 737 978 q 765 1034 755 1018 q 786 1054 774 1049 q 799 1054 795 1059 q 805 1038 804 1049 q 804 1016 806 1028 q 797 993 801 1003 q 773 949 786 971 q 742 907 760 927 q 715 815 735 879 q 666 667 695 751 q 601 486 637 582 q 526 296 565 389 q 448 122 487 203 q 373 -11 409 41 q 325 -81 355 -37 q 254 -167 295 -125 q 162 -243 213 -210 q 49 -276 110 -276 q -27 -254 5 -276 q -82 -195 -60 -233 q -114 -111 -104 -158 q -124 -15 -124 -63 q -112 78 -124 33 q -78 154 -100 123 m 786 1210 q 731 1188 762 1203 q 660 1150 699 1173 q 651 1150 651 1141 q 651 1158 651 1156 q 655 1164 652 1160 q 683 1184 663 1170 q 735 1223 703 1198 q 790 1261 787 1264 q 816 1234 792 1259 q 884 1159 840 1209 q 889 1150 887 1156 q 887 1145 889 1146 q 883 1143 886 1145 q 875 1146 879 1142 q 851 1167 863 1157 q 827 1188 838 1177 q 786 1210 797 1213 "},"e":{"x_min":14,"x_max":650.09375,"ha":470,"o":"m 646 427 q 648 440 652 437 q 636 433 643 442 q 589 402 619 417 q 530 384 559 387 q 477 379 508 379 q 409 379 446 379 q 333 379 373 379 q 257 379 294 379 q 380 415 326 388 q 455 480 434 441 q 466 526 468 501 q 452 571 464 551 q 419 601 440 591 q 372 603 398 612 q 262 536 323 584 q 146 422 201 488 q 52 280 91 356 q 14 128 14 204 q 27 76 14 100 q 61 33 41 51 q 106 6 81 15 q 151 1 130 -2 q 203 16 176 6 q 255 39 230 26 q 301 64 280 51 q 337 89 322 78 q 343 101 348 96 q 326 98 337 105 q 236 57 289 77 q 139 31 184 38 q 104 34 121 31 q 74 48 87 38 q 53 78 61 58 q 46 128 46 98 q 57 193 46 162 q 84 254 68 225 q 117 310 99 284 q 150 357 134 336 q 247 357 191 357 q 358 357 302 357 q 460 357 414 357 q 530 363 507 357 q 600 390 569 369 q 646 427 632 412 m 422 492 q 377 447 405 467 q 314 410 348 426 q 240 385 279 394 q 165 377 201 377 q 265 476 212 428 q 369 553 318 524 q 406 565 390 565 q 430 556 422 565 q 437 530 439 547 q 422 492 436 514 "},"»":{"x_min":29.171875,"x_max":451.21875,"ha":514,"o":"m 397 214 q 227 53 377 175 q 223 40 216 44 q 238 43 225 32 q 301 84 269 64 q 365 125 333 104 q 450 194 444 180 q 409 386 458 204 q 400 399 406 399 q 393 383 391 399 q 397 214 408 239 m 204 214 q 34 53 183 172 q 30 40 26 44 q 45 41 33 30 q 109 82 77 62 q 172 125 140 103 q 232 169 211 153 q 258 193 254 185 q 236 300 262 201 q 205 399 211 399 q 200 383 198 399 q 204 214 216 237 "},"ў":{"x_min":-1115,"x_max":1020,"ha":552,"o":"m 369 0 q 416 169 391 61 q 434 248 428 216 q 443 300 440 280 q 273 172 375 240 q 61 51 140 82 q 48 49 53 49 q 28 58 36 49 q 22 78 19 68 q 148 319 30 105 q 149 343 151 325 q 151 369 147 361 q 204 400 157 379 q 265 424 254 422 q 287 401 284 424 q 190 293 258 389 q 107 157 133 209 q 103 139 103 146 q 114 121 103 125 q 139 121 128 116 q 216 159 171 133 q 319 225 261 184 q 398 282 365 257 q 450 325 430 307 q 466 346 457 337 q 485 357 475 355 q 520 344 508 357 q 529 319 532 332 q 519 304 523 312 q 507 284 514 297 q 419 6 479 184 q 823 45 630 45 q 929 36 892 45 q 960 24 944 33 q 990 0 976 14 q 1011 -30 1003 -13 q 1020 -65 1020 -46 q 1011 -95 1020 -83 q 921 -187 993 -130 q 901 -199 910 -199 q 899 -197 899 -199 q 912 -179 899 -189 q 995 -38 995 -99 q 926 13 995 13 q 881 13 907 13 q 824 13 856 13 q 412 -16 572 13 q -580 -1210 3 -1210 q -946 -1082 -780 -1210 q -1115 -800 -1115 -957 q -1093 -701 -1115 -749 q -427 -231 -986 -452 q -36 -98 -234 -156 q 369 0 161 -39 m -1058 -739 q -1072 -781 -1067 -760 q -1077 -826 -1077 -803 q -929 -1080 -1077 -968 q -582 -1196 -775 -1196 q 55 -696 -249 -1196 q 225 -377 148 -544 q 364 -23 303 -209 q -514 -299 -135 -126 q -1058 -739 -967 -508 m 322 543 q 305 536 307 529 q 314 557 304 543 q 354 598 329 575 q 403 621 379 621 q 436 612 416 621 q 476 595 455 604 q 517 578 497 586 q 553 570 537 570 q 596 574 585 570 q 623 595 608 579 q 642 603 637 608 q 635 583 646 598 q 619 565 628 575 q 599 546 610 555 q 577 530 589 536 q 553 524 565 524 q 519 532 539 524 q 479 549 500 540 q 437 566 458 558 q 403 575 416 575 q 358 565 379 575 q 322 543 337 555 "},"ò":{"x_min":28,"x_max":616,"ha":516,"o":"m 90 -23 q 69 -21 80 -24 q 49 -10 58 -17 q 34 5 40 -3 q 28 26 28 15 q 212 367 28 142 q 209 379 217 376 q 184 396 197 386 q 172 414 172 405 q 176 425 172 418 q 212 433 180 433 q 265 433 263 433 q 280 439 270 433 q 341 470 311 470 q 404 445 364 470 q 409 442 407 443 q 414 436 411 440 q 491 436 446 436 q 595 436 536 436 q 616 430 616 433 q 595 420 616 420 q 539 403 552 420 q 539 394 536 399 q 540 386 540 390 q 541 379 541 382 q 499 266 541 326 q 373 135 457 206 q 90 -23 212 -5 m 69 50 q 61 19 61 35 q 105 -5 61 -13 q 332 131 199 10 q 492 356 471 254 q 439 404 502 397 q 376 405 405 408 q 322 392 347 401 q 298 379 319 393 q 69 50 150 242 m 508 546 q 511 534 517 539 q 500 533 506 529 q 452 565 479 547 q 398 601 425 582 q 345 637 371 620 q 301 668 319 654 q 294 683 293 674 q 302 700 295 693 q 319 710 309 707 q 337 706 329 713 q 375 670 353 690 q 421 628 397 650 q 467 584 444 606 q 508 546 490 563 "},"^":{"x_min":493,"x_max":847,"ha":522,"o":"m 698 821 q 613 793 659 811 q 509 753 566 776 q 493 755 493 743 q 495 762 493 759 q 501 768 498 765 q 542 790 512 775 q 620 832 572 805 q 702 875 699 876 q 841 764 710 872 q 847 753 847 758 q 840 746 847 748 q 827 750 833 743 q 792 772 810 761 q 758 794 774 783 q 698 821 709 822 "},"«":{"x_min":25.171875,"x_max":446,"ha":464,"o":"m 79 209 q 248 369 101 251 q 254 383 258 379 q 236 382 248 389 q 26 229 41 261 q 66 36 18 218 q 76 25 70 25 q 84 40 86 25 q 79 209 68 183 m 272 209 q 325 269 283 229 q 441 369 366 309 q 444 383 448 376 q 427 380 440 387 q 218 229 236 261 q 259 36 212 216 q 269 25 262 25 q 276 40 277 25 q 272 209 259 184 "},"∙":{"x_min":42,"x_max":114,"ha":157,"o":"m 114 58 q 105 47 114 54 q 86 37 97 41 q 66 31 76 33 q 53 34 57 30 q 47 49 49 38 q 43 71 45 59 q 42 93 42 83 q 44 106 42 102 q 55 116 47 111 q 73 126 64 122 q 92 132 83 130 q 105 130 101 134 q 109 117 108 127 q 112 95 111 106 q 114 73 114 84 q 114 58 114 62 "},"к":{"x_min":21,"x_max":1834,"ha":765,"o":"m 433 599 q 393 599 414 599 q 353 599 372 599 q 341 596 347 597 q 329 592 335 594 q 280 502 311 555 q 204 373 248 448 q 563 564 467 564 q 608 532 603 564 q 589 464 608 505 q 438 341 552 393 q 229 293 329 293 q 328 149 269 222 q 470 1 387 76 q 780 -200 644 -159 q 823 -207 803 -207 q 950 -131 917 -207 q 960 -125 955 -122 q 962 -129 962 -126 q 963 -136 962 -133 q 934 -184 952 -159 q 888 -229 917 -209 q 820 -225 884 -232 q 774 -216 791 -220 q 748 -208 757 -211 q 164 270 496 -140 q 107 161 136 226 q 43 13 78 97 q 34 7 40 7 q 21 29 27 7 q 22 40 21 36 q 87 200 59 134 q 135 307 114 266 q 135 362 123 343 q 167 378 147 382 q 239 501 205 444 q 301 606 272 558 l 296 606 q 278 607 289 607 q 255 611 268 607 q 221 636 236 615 q 206 676 206 657 q 215 701 206 691 q 301 763 250 737 q 419 804 353 789 q 809 1273 614 1096 q 1207 1522 1004 1451 q 1422 1560 1317 1560 q 1721 1461 1598 1560 q 1834 1228 1834 1361 q 1762 1035 1834 1126 q 1533 861 1687 933 q 433 599 975 599 m 353 624 q 402 624 376 624 q 455 624 428 624 q 929 679 686 624 q 1514 908 1244 756 q 1803 1262 1803 1076 q 1686 1463 1803 1381 q 1415 1545 1568 1545 q 1216 1504 1312 1545 q 769 1188 983 1407 q 353 624 555 969 m 454 372 q 523 483 523 425 q 475 516 523 523 q 325 441 433 511 q 206 349 237 382 q 212 331 208 342 q 225 307 216 321 q 243 306 229 306 q 292 310 265 306 q 350 325 318 314 q 409 347 383 336 q 454 372 436 358 m 309 628 q 361 709 336 669 q 411 789 386 748 q 243 687 298 754 q 232 661 232 678 q 262 634 232 639 q 293 629 282 630 q 309 628 305 628 "},"í":{"x_min":18,"x_max":449.75,"ha":342,"o":"m 402 180 q 351 137 385 163 q 275 82 316 110 q 193 28 234 53 q 122 -9 152 3 q 96 -9 113 -12 q 61 3 79 -7 q 31 31 44 13 q 18 73 18 48 q 31 130 18 95 q 65 203 45 165 q 110 282 85 242 q 154 355 134 322 q 188 411 174 388 q 204 441 202 434 q 222 463 206 458 q 252 462 238 467 q 271 442 266 456 q 258 406 276 429 q 213 349 238 383 q 162 276 188 316 q 112 194 135 237 q 70 110 88 152 q 54 55 54 74 q 63 29 54 37 q 85 22 72 22 q 112 26 99 22 q 178 52 138 31 q 260 99 219 73 q 338 152 302 126 q 394 197 374 178 q 412 210 406 209 q 418 208 417 212 q 415 195 419 204 q 402 180 410 187 m 433 643 q 382 616 409 630 q 328 588 355 602 q 278 563 301 574 q 240 542 255 551 q 216 542 219 531 q 230 561 213 552 q 272 587 248 572 q 319 619 295 602 q 367 652 344 636 q 409 683 391 669 q 431 688 420 691 q 446 676 441 684 q 449 658 451 668 q 433 643 447 648 "},"ˆ":{"x_min":46,"x_max":400,"ha":433,"o":"m 250 762 q 62 696 175 743 q 46 698 46 684 q 52 711 46 701 q 172 775 77 721 q 255 816 252 819 q 394 705 263 814 q 400 696 400 700 q 393 687 400 690 q 380 691 386 686 q 345 714 362 702 q 309 736 327 725 q 250 762 262 764 "},"µ":{"x_min":-128,"x_max":597,"ha":622,"o":"m 595 508 q 555 420 580 476 q 506 305 530 365 q 464 191 482 245 q 446 109 446 137 q 456 69 446 77 q 482 65 466 61 q 514 81 498 69 q 540 104 530 93 q 564 111 559 122 q 555 80 569 99 q 525 47 543 65 q 491 22 508 30 q 470 21 483 18 q 444 33 457 24 q 423 54 432 41 q 412 80 414 66 q 417 146 408 106 q 441 228 426 186 q 470 310 455 270 q 491 376 486 350 q 493 395 493 386 q 488 407 493 404 q 476 408 484 411 q 458 391 468 405 q 412 329 438 365 q 356 255 386 294 q 295 177 326 216 q 236 106 263 138 q 185 50 208 73 q 149 20 162 27 q 94 13 117 5 q 60 44 72 20 q 1 -168 27 -73 q -42 -341 -23 -264 q -49 -355 -42 -348 q -67 -366 -57 -361 q -88 -373 -78 -371 q -107 -372 -98 -375 q -117 -362 -114 -375 q -124 -334 -121 -350 q -128 -290 -128 -318 q -121 -283 -126 -286 q -109 -278 -115 -280 q -96 -275 -103 -276 q -89 -270 -90 -273 q -66 -211 -79 -247 q -38 -134 -53 -176 q -8 -46 -23 -91 q 20 41 6 -1 q 46 122 34 84 q 66 186 58 159 q 101 294 80 237 q 147 403 123 351 q 193 499 170 455 q 231 568 216 543 q 249 584 237 579 q 270 589 261 589 q 283 580 280 589 q 274 554 286 572 q 220 454 249 509 q 165 344 191 400 q 121 237 140 288 q 98 148 102 186 q 92 95 88 116 q 107 65 95 74 q 136 58 119 55 q 172 77 154 62 q 271 181 220 118 q 371 313 322 244 q 465 445 420 382 q 545 552 509 509 q 567 566 556 568 q 584 554 577 564 q 595 530 591 544 q 595 508 598 516 "},"’":{"x_min":285,"x_max":449,"ha":248,"o":"m 303 567 q 444 758 392 692 q 449 768 449 764 q 417 795 449 795 q 397 783 403 795 l 286 576 q 285 569 285 575 q 291 562 285 565 q 303 567 298 560 "},"-":{"x_min":28,"x_max":292,"ha":318,"o":"m 51 231 l 255 231 q 292 254 292 231 q 268 269 292 269 l 72 269 q 28 243 28 269 q 51 231 28 231 "},"Q":{"x_min":42.328125,"x_max":1659.859375,"ha":1480,"o":"m 566 773 q 571 791 569 783 q 576 806 573 800 q 767 980 617 905 q 1120 1062 928 1062 q 1301 1029 1221 1062 q 1441 935 1381 996 q 1555 659 1555 825 q 1511 472 1555 566 q 1135 98 1403 233 q 921 12 1027 42 q 706 -17 814 -17 q 376 236 376 -17 q 384 330 376 282 q 450 495 401 406 q 585 686 499 584 q 866 935 735 866 q 886 956 886 946 q 876 962 886 962 q 854 953 866 962 q 690 843 766 906 q 539 698 613 780 q 350 347 384 516 q 346 304 348 326 q 344 261 344 283 q 406 69 344 120 q 344 97 380 83 q 263 124 307 111 q 149 154 174 154 q 88 120 133 152 q 43 69 44 83 q 47 35 40 54 q 73 -5 54 17 q 131 -55 108 -55 q 130 -31 154 -55 q 101 1 111 -14 q 88 28 91 17 q 82 55 82 40 q 130 93 82 93 q 147 91 137 93 q 169 87 158 90 q 333 31 238 69 q 555 -67 428 -5 q 838 -207 735 -157 q 973 -272 941 -258 q 1357 -370 1203 -370 q 1397 -370 1378 -370 q 1435 -364 1416 -370 q 1491 -342 1459 -361 q 1563 -289 1523 -322 q 1658 -168 1650 -218 q 1649 -85 1663 -136 q 1636 -42 1642 -58 q 1624 -17 1631 -25 q 1609 0 1617 -4 q 1605 -4 1605 1 q 1604 -12 1603 -8 q 1606 -24 1604 -17 q 1620 -118 1620 -71 q 1599 -216 1620 -175 q 1538 -288 1578 -257 q 1375 -337 1473 -337 q 1220 -309 1314 -337 q 995 -225 1126 -281 q 856 -160 944 -202 q 644 -55 769 -118 q 740 -63 690 -63 q 984 -21 862 -63 q 1231 102 1106 19 q 1434 275 1357 185 q 1542 463 1510 365 q 1573 656 1573 560 q 1456 967 1573 845 q 1120 1098 1335 1098 q 767 1013 935 1098 q 635 922 688 973 q 555 813 583 872 q 549 773 546 791 q 555 760 552 760 q 566 773 559 760 "},"Ш":{"x_min":40,"x_max":2093.8125,"ha":1940,"o":"m 1406 641 q 1356 556 1397 629 q 1237 348 1316 483 q 1161 201 1190 265 q 1122 92 1131 138 q 1118 68 1118 80 q 1156 30 1118 30 q 1198 41 1176 30 q 1359 138 1258 67 q 1606 332 1460 209 q 1784 484 1698 407 q 1962 640 1870 561 q 2001 679 1982 655 q 2048 731 2020 702 q 2066 740 2054 740 q 2087 729 2079 740 q 2093 705 2095 719 l 2086 680 q 2077 651 2083 666 q 2004 535 2047 611 q 1902 347 1961 459 q 1752 1 1778 102 q 1758 -54 1758 -9 q 1741 -74 1755 -74 q 1726 -50 1728 -74 q 1735 40 1726 2 q 1776 154 1746 80 q 1855 336 1806 227 q 1962 573 1961 571 q 1961 610 1975 610 q 1957 607 1957 610 q 1951 598 1957 604 q 1581 283 1819 475 q 1320 86 1423 156 q 1162 0 1216 16 q 1145 -3 1151 -3 q 1085 26 1111 -3 q 1065 95 1059 55 q 1102 213 1072 145 q 1183 368 1131 280 q 1270 514 1227 443 q 1298 560 1284 537 q 972 283 1173 446 q 710 86 813 156 q 552 0 606 16 q 535 -3 541 -3 q 475 26 501 -3 q 455 95 449 55 q 492 213 462 145 q 573 368 521 280 q 661 514 617 443 q 749 661 705 586 q 818 806 796 741 q 841 915 841 871 q 810 997 841 957 q 717 1040 777 1040 q 362 931 552 1040 q 92 665 178 817 q 69 564 69 619 q 154 418 69 475 q 166 404 166 411 q 157 399 166 399 q 142 404 152 399 q 81 460 105 433 q 49 512 57 486 q 40 579 40 541 q 63 680 40 630 q 320 943 137 829 q 717 1069 521 1069 q 822 1003 768 1069 q 872 892 872 945 q 787 627 872 788 q 745 553 784 622 q 627 348 706 483 q 551 201 580 265 q 512 92 521 138 q 508 68 508 80 q 546 30 508 30 q 588 41 566 30 q 749 138 648 67 q 997 332 851 209 q 1174 486 1088 407 q 1345 639 1258 562 q 1359 661 1352 650 q 1393 707 1378 676 q 1435 767 1408 738 q 1453 776 1441 776 q 1469 766 1466 776 q 1470 742 1473 756 q 1460 723 1469 737 q 1440 694 1451 709 q 1419 664 1428 679 q 1406 641 1409 650 "},"M":{"x_min":29,"x_max":1710,"ha":1636,"o":"m 670 575 q 325 31 480 198 q 311 18 321 26 q 285 3 300 10 q 242 -14 254 -14 q 231 16 231 -14 q 381 294 231 98 q 505 445 441 373 q 641 584 570 516 q 696 703 671 643 q 742 826 721 764 q 780 993 780 943 q 758 1057 780 1040 q 685 1068 736 1073 q 295 862 535 1051 q 46 544 46 666 q 80 509 46 522 q 127 501 116 498 q 147 498 147 504 q 124 486 147 493 q 77 486 102 477 q 45 515 62 491 q 29 567 29 539 q 156 785 29 654 q 431 998 274 904 q 681 1095 591 1095 q 767 1065 723 1095 q 809 993 809 1031 q 782 848 809 935 q 706 647 755 761 q 952 802 882 802 q 1000 779 979 802 q 1018 729 1021 756 q 825 209 997 565 q 835 186 814 186 q 854 199 846 186 q 1221 605 988 376 q 1632 889 1512 889 q 1690 847 1668 889 q 1710 772 1710 810 q 1703 743 1710 750 q 1572 532 1625 619 q 1492 395 1520 445 q 1327 -25 1352 140 q 1326 -34 1326 -30 q 1326 -44 1326 -40 q 1369 -89 1326 -98 q 1415 -68 1388 -83 q 1477 -27 1442 -54 q 1574 62 1542 22 q 1594 79 1587 79 q 1598 74 1598 79 q 1587 51 1598 66 q 1496 -43 1557 8 q 1429 -93 1460 -75 q 1370 -119 1398 -111 q 1326 -93 1346 -126 q 1302 -25 1302 -59 q 1426 358 1302 97 q 1534 566 1476 461 q 1662 780 1592 672 q 1677 809 1673 796 q 1682 832 1682 822 q 1640 863 1682 863 q 1601 857 1622 863 q 1203 555 1477 825 q 780 77 963 319 q 737 60 766 60 q 715 73 715 60 q 715 78 715 76 q 717 84 716 80 q 905 475 838 313 q 990 732 972 636 q 958 778 996 778 q 803 698 904 778 q 670 575 717 633 m 309 48 q 383 143 341 84 q 477 284 425 202 q 613 525 582 448 q 436 326 532 455 q 285 70 322 176 q 288 33 270 33 q 309 48 297 33 "},"œ":{"x_min":26,"x_max":924.015625,"ha":779,"o":"m 920 330 q 921 340 927 337 q 907 336 916 343 q 870 308 893 320 q 818 291 846 297 q 716 286 779 286 q 590 286 652 286 q 691 319 644 297 q 759 372 738 341 q 766 411 766 390 q 755 451 766 433 q 726 477 744 469 q 684 477 708 486 q 536 370 616 451 q 539 384 539 377 q 540 400 539 393 q 537 415 540 407 q 537 425 534 419 q 593 442 551 442 q 614 449 614 442 q 593 457 614 454 q 412 457 473 457 q 402 465 405 461 q 339 489 364 493 q 278 459 308 489 q 263 454 267 454 q 210 454 261 454 q 174 446 178 454 q 170 434 170 439 q 181 417 170 427 q 207 400 193 408 q 210 387 214 397 q 26 47 26 162 q 32 27 26 36 q 47 11 38 18 q 66 0 55 4 q 87 -1 77 -2 q 371 155 210 18 q 388 170 380 162 q 403 184 396 177 q 384 130 392 157 q 377 75 377 102 q 388 31 377 51 q 416 -3 399 11 q 456 -26 434 -19 q 497 -30 477 -34 q 542 -21 519 -30 q 586 0 565 -11 q 625 21 607 9 q 656 41 643 33 q 661 53 666 48 q 645 51 656 58 q 569 16 613 33 q 486 -5 525 -1 q 455 -5 470 -8 q 428 6 440 -2 q 410 32 416 15 q 408 75 403 48 q 437 181 408 129 q 494 271 466 232 q 579 271 532 271 q 674 271 627 271 q 759 271 720 271 q 818 276 799 271 q 880 300 853 282 q 920 330 907 318 m 66 72 q 295 400 149 262 q 320 412 315 414 q 437 426 368 433 q 490 377 499 419 q 330 151 469 276 q 103 15 198 32 q 59 41 59 8 q 66 72 59 54 m 728 384 q 635 314 696 343 q 506 286 573 286 q 593 370 547 330 q 684 439 640 411 q 714 447 701 447 q 736 439 728 447 q 742 417 743 431 q 728 384 741 402 "},"{":{"x_min":14.28125,"x_max":573.671875,"ha":585,"o":"m 53 -91 q 62 -195 47 -158 q 99 -256 76 -233 q 130 -283 112 -273 q 164 -298 147 -292 q 194 -306 181 -304 q 216 -309 208 -308 q 178 -277 200 -291 q 138 -241 157 -262 q 109 -189 120 -220 q 99 -106 99 -158 q 106 -49 99 -87 q 122 34 113 -10 q 142 125 132 79 q 161 208 152 172 q 175 264 170 244 q 182 275 181 283 q 172 353 182 322 q 146 402 162 383 q 111 430 130 421 q 78 446 93 440 q 163 475 129 455 q 220 530 197 496 q 261 612 244 564 q 294 729 277 661 q 334 883 315 812 q 383 1005 354 953 q 455 1084 412 1056 q 565 1113 498 1113 l 573 1153 q 489 1144 536 1153 q 391 1088 443 1136 q 344 1032 363 1061 q 310 967 325 1002 q 284 891 295 931 q 262 801 273 850 q 225 660 243 719 q 182 559 208 600 q 118 493 157 518 q 17 455 79 468 l 14 447 q 104 391 74 423 q 135 289 135 358 l 53 -91 "},"¼":{"x_min":26,"x_max":690,"ha":703,"o":"m 403 -30 q 441 80 403 6 q 484 166 450 95 q 504 165 490 165 q 542 165 519 165 q 555 172 548 165 q 562 184 562 180 q 559 185 562 188 q 538 184 555 184 q 492 188 521 184 q 521 240 501 203 q 573 331 541 276 q 629 430 605 390 q 673 502 653 470 l 673 503 q 666 508 673 508 q 628 488 636 508 q 538 324 578 398 q 468 194 498 249 q 456 196 468 196 q 426 196 445 196 q 391 196 408 196 q 358 196 375 196 q 327 196 340 196 q 302 194 313 196 q 337 236 310 205 q 409 316 363 268 q 493 404 458 369 q 553 459 528 440 q 558 469 558 463 q 549 480 558 480 q 545 478 546 480 q 488 423 520 455 q 411 340 455 391 q 290 194 325 244 q 283 184 287 187 q 277 181 280 182 q 262 168 262 169 q 258 153 258 160 q 263 136 258 136 q 266 138 264 136 q 274 151 269 141 q 288 165 281 162 q 323 168 301 168 q 382 168 345 168 q 427 168 409 168 q 456 166 447 168 q 396 -28 396 39 q 398 -41 391 -41 q 403 -30 403 -41 m 38 25 q 301 373 55 103 q 505 587 410 494 q 680 748 599 681 q 690 766 690 760 q 681 776 690 776 q 661 766 673 776 q 283 382 510 639 q 26 28 34 102 q 29 2 26 7 q 38 25 31 2 m 169 400 q 227 401 210 400 q 244 411 244 402 q 232 415 244 418 q 163 425 210 412 q 140 443 140 428 q 145 458 140 451 q 174 523 153 484 q 223 614 194 563 q 271 695 251 665 q 301 737 291 726 q 304 752 304 745 q 305 760 304 759 q 323 773 315 767 q 336 784 332 780 q 339 795 339 787 q 333 805 339 805 q 326 800 332 805 q 153 701 274 762 q 148 697 149 699 q 145 692 146 695 q 144 688 142 689 q 148 687 145 687 q 156 689 151 687 q 203 710 180 699 q 252 734 227 720 q 253 735 252 734 q 256 736 255 736 q 261 730 261 736 q 256 719 261 723 q 174 553 209 626 q 117 428 140 480 q 69 424 88 424 q 38 419 51 424 q 29 403 29 418 q 38 396 29 396 q 151 400 67 400 l 169 400 "},"#":{"x_min":6,"x_max":668.03125,"ha":674,"o":"m 40 59 q 31 36 31 44 q 33 32 31 32 q 60 59 40 32 q 129 165 99 120 q 182 243 160 211 l 336 243 q 223 59 261 122 q 214 36 214 44 q 216 32 214 32 q 243 59 226 32 q 314 167 283 122 q 365 243 344 212 q 396 243 379 243 q 432 243 413 243 l 481 243 q 502 251 488 243 q 516 267 516 260 q 493 275 516 275 l 385 275 q 447 368 421 329 q 492 435 474 408 q 519 436 504 435 q 550 437 533 437 l 594 437 q 614 445 600 437 q 628 459 628 453 q 607 468 628 468 l 514 468 q 608 598 572 548 q 659 669 644 648 q 655 693 678 693 q 632 686 641 693 q 540 559 579 613 q 477 468 500 505 l 330 468 q 432 608 396 559 q 477 669 468 658 q 472 693 495 693 q 449 686 458 693 q 374 584 413 638 q 293 468 336 530 l 161 468 q 136 457 153 468 q 120 441 120 447 q 136 435 120 435 q 156 436 142 435 q 194 437 171 437 l 273 437 q 214 342 239 383 q 171 275 189 302 l 49 275 q 37 272 44 275 q 24 265 31 269 q 11 256 17 261 q 6 248 6 251 q 22 243 6 243 q 41 243 28 243 q 76 243 54 243 l 153 243 q 88 137 117 183 q 40 59 60 91 m 308 436 q 339 436 321 436 q 383 436 358 436 l 456 436 q 391 337 417 377 q 353 275 365 297 l 201 275 q 282 395 255 355 q 308 436 308 435 "},"Ê":{"x_min":-99,"x_max":903.109375,"ha":834,"o":"m 889 754 q 902 793 900 770 q 898 837 904 816 q 880 875 892 858 q 851 899 868 892 q 706 933 789 925 q 539 942 624 942 q 531 971 538 958 q 515 994 525 985 q 495 1007 506 1004 q 473 1001 484 1010 q 416 929 442 976 q 299 929 363 929 q 169 920 235 929 q 39 900 102 912 q -74 873 -24 888 q -92 862 -85 872 q -99 842 -99 852 q -93 826 -99 833 q -75 822 -87 819 q -16 829 -50 829 q 50 829 17 829 q 116 829 85 829 q 164 829 146 829 q 177 831 175 823 q 170 842 178 840 q 164 849 166 845 q 153 856 163 854 q 143 866 141 859 q 155 876 145 873 q 266 893 207 893 q 391 893 326 893 q 325 817 359 865 q 257 716 291 769 q 192 610 223 664 q 136 508 162 556 q 96 501 117 505 q 60 491 75 497 q 41 479 46 487 q 39 463 36 472 q 48 448 41 455 q 64 437 55 441 q 106 425 86 425 q 68 296 82 363 q 55 165 55 229 q 76 70 55 111 q 129 3 97 30 q 200 -36 161 -23 q 277 -50 239 -50 q 413 -29 345 -50 q 543 22 481 -8 q 656 87 604 52 q 744 153 707 123 q 751 170 754 162 q 736 171 747 178 q 647 120 699 148 q 535 66 596 91 q 408 23 474 40 q 273 6 341 6 q 203 13 235 6 q 147 40 171 21 q 111 91 124 60 q 98 171 98 122 q 119 318 98 246 q 173 454 141 391 q 256 469 206 460 q 366 487 306 478 q 489 496 425 496 q 613 496 553 496 q 725 493 674 496 q 811 477 776 491 q 833 477 828 472 q 836 491 839 483 q 825 510 833 500 q 804 522 817 519 q 668 538 746 538 q 507 538 591 538 q 343 529 424 538 q 198 512 262 521 q 248 600 216 547 q 320 708 281 652 q 399 816 359 764 q 473 902 439 868 q 566 907 517 907 q 663 902 615 907 q 756 890 711 898 q 839 869 801 881 q 863 842 854 862 q 860 799 872 823 q 797 722 832 750 q 721 673 763 694 q 713 657 713 666 q 728 654 713 647 q 778 673 753 662 q 826 698 804 684 q 865 725 849 711 q 889 754 882 740 m 467 1180 q 507 1158 474 1182 q 533 1140 520 1150 q 557 1121 546 1130 q 564 1118 561 1116 q 568 1120 567 1119 q 570 1125 570 1121 q 565 1132 570 1127 q 470 1226 477 1223 q 414 1191 467 1229 q 362 1155 383 1168 q 334 1136 342 1141 q 329 1126 329 1130 q 331 1121 329 1121 q 340 1125 335 1121 q 410 1159 378 1144 q 467 1180 441 1173 "},")":{"x_min":-110,"x_max":523,"ha":567,"o":"m -85 -137 q 348 154 170 -75 q 523 651 523 384 q 500 821 523 741 q 479 840 496 840 q 450 826 464 840 q 432 795 436 813 q 443 775 431 783 q 456 765 456 767 q 473 624 473 698 q 434 387 473 502 q 313 160 395 272 q -90 -118 145 -68 q -110 -132 -110 -122 q -96 -139 -110 -139 q -85 -137 -89 -139 "},"э":{"x_min":90,"x_max":550,"ha":551,"o":"m 131 122 q 120 83 117 102 q 136 49 123 63 q 169 31 149 35 q 208 37 188 27 q 307 104 256 62 q 403 192 357 145 l 419 212 q 482 302 450 249 q 519 413 513 354 q 512 458 519 441 q 492 484 505 474 q 462 497 478 494 q 429 500 445 500 q 357 485 394 500 q 286 450 319 470 q 228 409 253 430 q 195 379 203 388 q 166 361 180 361 q 144 370 152 361 q 137 396 135 380 q 158 426 139 412 q 196 453 171 436 q 253 487 220 470 q 327 516 285 504 q 419 529 369 529 q 461 521 438 529 q 504 497 484 513 q 537 459 524 481 q 550 411 550 437 q 512 276 550 344 q 423 152 475 209 q 311 53 370 95 q 205 0 252 12 q 164 -1 185 -4 q 127 10 144 1 q 100 33 110 19 q 90 63 90 47 q 93 92 90 74 q 108 122 96 110 q 141 154 131 158 q 131 122 151 149 m 317 281 q 281 297 295 295 q 223 277 259 297 l 191 260 q 192 262 189 260 q 218 290 198 273 q 264 318 238 308 q 316 328 289 328 q 366 299 344 328 q 380 295 374 296 q 394 294 387 294 q 457 317 431 294 q 473 326 469 326 q 473 319 480 328 q 463 308 467 310 q 376 252 398 252 q 366 255 373 251 q 351 263 359 260 q 332 271 342 266 q 317 281 323 276 "},"\u001c":{"x_min":19.8125,"x_max":969,"ha":976,"o":"m 309 380 q 374 399 342 390 q 437 417 406 407 q 387 336 410 375 q 343 265 363 297 q 310 211 324 233 q 291 179 296 189 q 242 110 267 146 q 200 64 217 75 q 196 61 199 62 q 185 62 192 60 q 123 81 160 71 q 59 97 85 92 q 23 95 32 104 q 25 62 14 86 q 34 45 27 55 q 50 24 41 35 q 71 6 60 14 q 95 -1 82 -1 q 131 8 113 -1 q 156 15 149 17 q 222 -7 178 7 q 323 -39 266 -23 q 444 -74 380 -56 q 572 -105 509 -91 q 693 -127 635 -119 q 792 -136 750 -136 q 844 -130 823 -136 q 880 -118 866 -125 q 905 -100 895 -110 q 925 -80 916 -91 q 937 -58 939 -65 q 914 -70 934 -52 q 893 -87 903 -80 q 870 -99 882 -94 q 841 -105 857 -104 q 798 -107 824 -107 q 720 -99 766 -107 q 621 -79 674 -91 q 513 -52 568 -67 q 405 -20 457 -37 q 307 12 353 -3 q 231 42 262 29 q 215 51 213 49 q 225 60 217 54 q 294 113 268 82 q 352 187 320 144 q 443 320 405 258 q 516 439 482 382 q 571 455 543 447 q 625 472 599 464 q 660 503 670 483 q 628 504 657 515 l 538 479 q 621 610 578 549 q 727 735 664 672 q 832 810 785 793 q 898 815 878 828 q 922 788 920 800 q 930 761 924 776 q 949 744 935 740 q 966 771 963 747 q 969 797 969 782 q 962 830 969 812 q 920 856 952 856 q 850 840 888 856 q 771 801 811 825 q 705 756 731 776 q 646 702 677 735 q 585 630 616 669 q 523 546 555 590 q 463 458 492 503 l 324 419 q 278 385 271 407 q 309 380 280 374 "},"Å":{"x_min":69.5,"x_max":1467.359375,"ha":1480,"o":"m 1277 476 q 1305 548 1286 497 q 1350 663 1325 599 q 1405 798 1375 728 q 1464 926 1434 868 q 1465 942 1469 935 q 1455 954 1461 949 q 1441 965 1448 960 q 1434 974 1434 970 q 1425 1008 1434 993 q 1406 1029 1417 1022 q 1384 1033 1396 1035 q 1365 1018 1372 1031 q 1300 915 1337 972 q 1222 794 1264 857 q 1137 668 1180 732 q 1052 546 1093 604 q 975 441 1011 489 q 912 363 939 393 q 715 401 822 386 q 503 417 608 417 q 307 398 398 417 q 157 332 215 379 q 74 206 89 277 q 87 73 60 135 q 175 -29 114 11 q 319 -71 236 -71 q 458 -42 389 -71 q 591 27 528 -14 q 710 117 654 69 q 810 209 766 165 q 881 285 853 252 q 917 326 910 318 q 971 314 935 322 q 1046 298 1007 307 q 1120 283 1085 290 q 1169 275 1154 276 q 1155 209 1165 254 q 1138 106 1145 163 q 1131 -11 1131 49 q 1146 -126 1131 -73 q 1158 -136 1153 -139 q 1160 -119 1163 -134 q 1152 -9 1152 -72 q 1163 111 1152 52 q 1187 216 1174 171 q 1207 274 1201 261 q 1233 274 1217 274 q 1266 277 1250 274 q 1296 287 1283 281 q 1313 304 1309 294 q 1316 344 1319 319 q 1305 394 1312 368 q 1290 443 1298 421 q 1277 476 1282 465 m 166 314 q 275 364 215 347 q 401 387 335 381 q 534 393 467 393 q 665 383 602 393 q 786 359 729 373 q 886 333 843 345 q 787 218 847 283 q 651 94 726 152 q 491 -4 576 35 q 318 -45 405 -45 q 225 -25 266 -45 q 156 27 184 -5 q 114 100 129 59 q 100 180 100 140 q 116 256 100 220 q 166 314 133 292 m 944 358 q 985 410 957 372 q 1051 500 1014 448 q 1132 612 1089 551 q 1216 732 1175 672 q 1293 846 1257 792 q 1354 938 1330 900 q 1383 947 1369 961 q 1386 900 1397 933 q 1331 760 1359 833 q 1274 610 1303 686 q 1221 458 1246 534 q 1176 310 1196 381 q 1129 316 1162 310 q 1059 330 1096 322 q 989 345 1022 337 q 944 358 957 354 m 1467 1163 q 1450 1210 1467 1190 q 1409 1231 1433 1231 q 1369 1210 1386 1231 q 1353 1163 1353 1190 q 1369 1120 1353 1138 q 1409 1102 1386 1102 q 1450 1120 1433 1102 q 1467 1163 1467 1138 m 1409 1116 q 1377 1129 1390 1116 q 1364 1163 1364 1143 q 1377 1201 1364 1186 q 1409 1216 1390 1216 q 1440 1201 1427 1216 q 1454 1163 1454 1186 q 1440 1129 1454 1143 q 1409 1116 1427 1116 m 1294 323 q 1258 305 1283 308 q 1221 304 1233 303 q 1228 334 1222 314 q 1242 379 1234 355 q 1257 424 1250 402 q 1269 458 1265 446 q 1284 421 1277 442 q 1295 382 1291 401 q 1300 347 1300 364 q 1294 323 1300 332 "},"ш":{"x_min":15,"x_max":965,"ha":935,"o":"m 962 412 q 919 341 942 383 q 873 256 895 300 q 835 170 852 212 q 814 101 819 129 q 814 65 810 76 q 824 52 817 54 q 842 52 831 50 q 862 58 852 55 q 885 67 871 61 q 908 79 899 73 q 932 82 930 94 q 917 55 934 70 q 883 27 903 40 q 845 6 863 13 q 824 9 837 4 q 801 25 812 15 q 783 49 791 36 q 776 76 776 62 q 782 131 776 102 q 798 188 788 161 q 819 243 807 216 q 841 294 831 270 q 841 328 849 315 q 807 316 832 341 q 721 232 774 283 q 613 132 667 182 q 512 45 559 83 q 444 0 466 6 q 383 11 406 -12 q 361 70 361 36 q 378 144 363 102 q 416 229 393 186 q 466 318 440 273 l 477 336 q 374 232 415 270 q 267 132 322 182 q 167 45 213 83 q 98 0 120 6 q 37 11 60 -12 q 15 70 15 36 q 32 144 17 102 q 70 229 47 186 q 120 318 93 273 q 175 404 147 364 q 228 477 203 444 q 270 530 252 509 q 289 542 277 539 q 309 543 301 546 q 319 531 317 540 q 308 505 320 522 q 240 415 276 466 q 173 311 205 364 q 115 208 141 258 q 80 120 90 158 q 81 47 63 63 q 133 51 98 31 q 247 139 187 84 q 367 254 308 194 q 480 370 426 313 q 541 443 527 419 q 545 448 544 445 q 588 502 570 482 q 607 514 595 511 q 627 515 619 518 q 637 503 635 512 q 626 477 638 494 q 572 401 594 439 q 519 311 551 364 q 461 208 487 258 q 426 120 435 158 q 426 47 409 63 q 478 51 444 31 q 593 139 533 84 q 712 254 653 194 q 826 370 771 313 q 921 465 880 427 q 944 473 934 477 q 959 457 953 469 q 965 432 965 445 q 962 412 965 419 "},"Я":{"x_min":1,"x_max":1841,"ha":1259,"o":"m 611 168 q 544 120 597 159 q 411 32 491 81 q 338 -9 370 7 q 277 -37 305 -26 q 199 -53 245 -48 q 109 -49 153 -58 q 33 -13 65 -40 q 1 68 1 14 q 2 115 1 99 q 6 146 3 132 q 15 178 9 160 q 32 231 22 196 q 43 229 43 245 q 37 182 43 213 q 32 114 32 152 q 38 47 32 77 q 75 -20 47 -1 q 139 -39 104 -39 q 211 -27 174 -39 q 273 -2 248 -15 q 414 77 341 28 q 559 177 487 125 q 629 235 590 202 q 708 302 667 268 q 785 367 748 336 q 848 418 822 397 q 808 457 829 432 q 709 645 727 543 q 795 920 679 790 q 1137 1097 924 1065 q 1296 1109 1220 1109 q 1449 1099 1373 1109 q 1625 1045 1546 1081 q 1766 950 1704 1008 q 1841 777 1841 881 q 1829 689 1841 731 q 1791 611 1818 647 q 1775 591 1784 602 q 1759 570 1767 581 q 1698 514 1728 540 q 1636 464 1668 488 q 1513 402 1563 410 q 1498 399 1500 396 l 1498 404 q 1514 414 1502 409 q 1734 582 1620 456 q 1755 605 1745 593 q 1774 631 1766 617 q 1771 904 1884 782 q 1651 996 1720 959 q 1489 1053 1582 1034 q 1311 1070 1402 1070 q 1120 1050 1220 1070 q 817 879 934 1011 q 729 663 717 774 q 755 570 736 615 q 811 483 774 524 q 870 441 837 452 q 936 435 902 431 q 931 427 936 432 q 920 415 926 421 q 910 404 915 409 q 904 396 905 399 l 611 168 m 1044 -8 q 1008 8 1029 -2 q 961 77 970 38 q 1088 538 922 214 q 1197 735 1140 638 q 1322 928 1255 832 q 1332 939 1324 933 q 1354 954 1340 945 q 1379 968 1379 968 l 1379 963 q 1242 745 1310 867 q 1108 471 1174 622 q 1001 68 958 147 q 1025 36 1012 49 q 1058 20 1038 22 q 1145 16 1101 8 q 1167 16 1163 16 q 1165 6 1170 11 q 1142 -3 1160 1 q 1094 -11 1119 -11 q 1044 -8 1069 -11 "},"¸":{"x_min":5.390625,"x_max":152.5,"ha":183,"o":"m 126 9 q 66 -38 90 -15 q 73 -51 58 -47 q 113 -74 101 -59 q 113 -109 126 -90 q 98 -128 109 -117 q 73 -147 87 -138 q 44 -161 59 -155 q 15 -168 29 -166 q 5 -174 4 -168 q 18 -181 6 -181 q 56 -173 36 -181 q 94 -156 76 -166 q 126 -135 112 -146 q 145 -115 140 -125 q 152 -86 154 -98 q 142 -64 150 -73 q 125 -49 134 -55 q 108 -41 115 -44 q 102 -34 101 -38 q 105 -27 102 -30 q 120 -11 112 -19 q 136 2 127 -2 q 138 11 143 8 q 126 9 133 14 "},"a":{"x_min":10,"x_max":891,"ha":586,"o":"m 76 18 q 286 172 163 69 q 393 269 347 225 q 473 354 440 313 q 478 357 476 357 q 479 341 489 357 q 432 262 455 305 q 385 169 409 219 q 346 73 366 127 q 309 -35 326 19 q 282 -138 293 -90 q 272 -216 272 -187 q 281 -281 272 -252 q 318 -324 291 -309 q 368 -350 340 -340 q 429 -361 395 -361 q 471 -357 451 -361 q 509 -347 490 -354 q 595 -302 548 -333 q 700 -224 642 -272 q 808 -119 763 -172 q 885 -19 853 -66 q 891 -4 891 -9 q 889 0 891 -1 q 872 -13 885 0 q 794 -105 839 -56 q 692 -199 749 -154 q 500 -319 573 -294 q 401 -336 451 -336 q 322 -313 351 -336 q 293 -242 293 -290 q 293 -229 293 -236 q 294 -216 293 -223 q 316 -117 299 -176 q 356 4 333 -59 q 407 132 379 69 q 464 244 434 195 q 541 367 501 307 q 621 490 580 427 q 618 500 622 493 q 608 507 614 507 q 600 504 603 507 q 564 486 589 490 q 537 487 561 484 q 504 496 521 493 q 471 500 487 500 q 441 496 455 500 q 414 488 426 493 q 297 422 359 466 q 164 308 234 379 q 10 55 10 154 q 44 7 10 7 q 76 18 58 7 m 98 136 q 150 229 118 180 q 230 330 183 277 q 396 456 330 440 q 428 461 412 461 q 473 447 455 461 q 492 419 492 434 q 487 409 492 413 q 302 209 389 291 q 138 77 216 126 q 118 71 127 71 q 93 104 93 71 q 98 136 93 120 "},"=":{"x_min":28,"x_max":612,"ha":641,"o":"m 53 245 q 162 245 97 245 q 296 245 229 245 q 424 245 364 245 q 517 245 485 245 q 559 265 559 245 q 529 277 559 277 l 79 277 q 28 256 28 277 q 53 245 28 245 m 107 385 q 217 385 151 385 q 350 385 283 385 q 478 385 418 385 q 570 385 538 385 q 612 406 612 385 q 582 417 612 417 l 133 417 q 81 396 81 417 q 107 385 81 385 "},"ú":{"x_min":14,"x_max":784.453125,"ha":653,"o":"m 779 -86 q 739 -131 762 -106 q 690 -179 716 -156 q 634 -218 664 -201 q 579 -243 605 -236 q 534 -245 558 -250 q 487 -229 509 -240 q 448 -204 465 -219 q 425 -172 431 -188 q 413 -84 413 -131 q 423 11 413 -37 q 450 108 434 61 q 482 196 466 155 q 513 268 498 237 q 534 315 527 300 q 539 333 539 325 q 534 348 539 343 q 523 351 530 352 q 503 337 515 350 q 425 262 473 308 q 323 169 376 216 q 219 81 271 122 q 132 20 168 40 q 44 9 74 -8 q 14 73 14 27 q 32 150 16 106 q 72 239 48 193 q 126 334 96 286 q 185 425 156 383 q 240 502 215 468 q 284 558 266 537 q 300 570 291 566 q 315 571 309 573 q 321 561 321 569 q 309 536 321 552 q 248 441 283 497 q 178 327 212 386 q 116 213 144 268 q 79 120 89 158 q 78 43 62 59 q 132 51 94 27 q 252 142 186 84 q 386 263 319 200 q 513 388 453 327 q 615 486 573 448 q 639 494 629 497 q 654 481 648 491 q 660 458 660 470 q 655 439 660 445 q 613 366 637 409 q 564 269 589 322 q 517 159 540 216 q 477 43 493 101 q 454 -68 461 -13 q 454 -166 447 -122 q 490 -211 458 -194 q 570 -212 522 -227 q 622 -189 594 -204 q 676 -156 650 -175 q 726 -116 703 -137 q 766 -76 750 -95 q 782 -70 776 -66 q 779 -86 787 -75 m 650 682 q 598 655 626 669 q 544 627 570 641 q 494 600 518 612 q 455 580 471 589 q 432 580 435 569 q 446 598 429 591 q 487 625 464 609 q 535 657 511 640 q 583 690 560 673 q 625 721 607 707 q 646 726 636 729 q 662 715 657 723 q 664 697 666 707 q 650 682 662 687 "},"д":{"x_min":-1096,"x_max":1039,"ha":599,"o":"m 547 399 q 555 396 552 399 q 575 384 566 393 q 585 363 585 374 q 569 329 582 346 q 515 168 547 262 q 441 -50 484 73 q 843 -16 654 -16 q 903 -16 877 -16 q 948 -20 929 -16 q 979 -32 963 -22 q 1009 -56 995 -42 q 1030 -88 1022 -71 q 1039 -122 1039 -104 q 1032 -153 1039 -139 q 941 -244 1014 -187 q 920 -256 929 -256 q 918 -254 918 -256 q 931 -236 918 -246 q 1014 -99 1014 -160 q 945 -49 1014 -49 q 900 -49 926 -49 q 843 -49 875 -49 q 614 -49 716 -49 q 431 -74 512 -49 q -561 -1268 22 -1268 q -927 -1138 -761 -1268 q -1096 -848 -1096 -1009 q -1073 -746 -1096 -798 q -408 -286 -968 -502 q 388 -58 -27 -137 q 463 166 420 12 q 475 210 470 190 q 486 247 480 230 q 420 194 462 225 q 315 118 377 162 q 177 27 236 62 q 79 -25 119 -7 q 52 -30 68 -30 q 3 19 3 -30 q 15 62 3 39 q 243 298 80 196 q 547 399 405 399 m -1040 -796 q -1057 -883 -1057 -840 q -911 -1138 -1057 -1028 q -563 -1254 -756 -1254 q 75 -758 -227 -1254 q 245 -437 168 -605 q 383 -79 322 -269 q -494 -356 -118 -185 q -1040 -796 -948 -567 m 462 253 q 501 329 497 279 q 500 331 501 331 q 500 332 500 331 q 501 337 500 336 q 491 364 501 363 q 427 357 476 370 q 226 257 326 333 q 91 87 120 173 q 89 76 90 80 q 89 65 89 72 q 122 21 89 21 q 293 122 151 21 q 392 195 350 162 q 462 253 434 228 "},"¯":{"x_min":53,"x_max":427,"ha":460,"o":"m 79 900 q 244 900 168 900 q 385 900 321 900 q 427 920 427 900 q 397 932 427 932 l 105 932 q 53 911 53 932 q 79 900 53 900 "},"Z":{"x_min":-2.890625,"x_max":1147.734375,"ha":1030,"o":"m 368 528 q 372 512 371 520 q 372 501 374 505 q 365 501 371 498 q 350 519 360 505 q 326 560 339 535 q 303 611 314 584 q 283 664 291 638 q 273 706 275 690 q 271 749 271 723 q 282 800 271 774 q 323 848 294 825 q 407 880 351 870 q 502 889 448 889 q 618 889 556 889 q 744 879 679 889 q 870 861 809 869 q 984 848 931 853 q 1075 843 1036 843 q 1094 848 1082 843 q 1111 855 1106 853 q 1133 854 1124 859 q 1145 841 1142 849 q 1146 822 1149 833 q 1131 807 1143 812 q 1111 798 1120 801 q 1090 796 1102 796 q 1078 793 1084 796 q 1064 784 1072 790 q 977 737 1015 766 q 902 669 938 708 q 829 582 865 630 q 749 478 792 534 q 743 468 745 472 q 750 464 742 464 l 820 464 q 836 459 832 464 q 836 451 839 455 q 824 443 832 447 q 806 440 815 440 l 731 440 q 721 438 724 440 q 715 432 718 437 q 652 343 690 394 q 570 244 613 293 q 483 153 527 194 q 403 96 439 112 q 388 83 389 89 q 399 74 388 76 q 511 37 452 56 q 629 2 570 18 q 746 -25 689 -13 q 853 -40 803 -36 q 920 -42 884 -42 q 979 -23 956 -42 q 1006 -14 1000 -8 q 993 -31 1011 -20 q 964 -47 977 -41 q 938 -57 952 -54 q 904 -61 924 -61 q 853 -61 884 -61 q 710 -48 786 -61 q 563 -18 634 -35 q 432 16 492 -1 q 339 46 372 33 q 314 42 329 50 q 259 19 294 29 q 187 10 223 10 q 146 13 172 8 q 93 28 121 18 q 42 55 66 39 q 5 94 18 71 q 2 141 -9 119 q 55 164 14 164 q 118 157 82 164 q 193 141 155 151 q 265 120 230 131 q 322 101 300 109 q 336 98 329 99 q 354 104 343 97 q 425 164 386 125 q 503 248 464 203 q 578 339 542 293 q 640 423 614 386 q 649 434 645 430 q 639 439 654 439 l 539 439 q 527 442 531 439 q 523 451 522 445 q 529 460 524 456 q 545 465 535 465 q 567 465 550 465 q 602 465 584 465 q 638 465 621 465 q 660 465 654 465 q 668 467 667 467 q 672 471 670 466 q 854 679 770 602 q 1020 790 939 755 q 1036 798 1029 794 q 1044 804 1043 801 q 1039 811 1045 808 q 1018 819 1034 815 q 919 834 986 824 q 770 851 852 844 q 602 858 688 858 q 445 841 515 858 q 384 817 407 832 q 349 783 361 802 q 333 747 336 765 q 334 716 329 729 q 368 528 334 622 m 44 90 q 83 62 58 74 q 137 45 108 50 q 197 41 166 41 q 252 49 227 41 q 272 58 265 54 q 264 70 279 62 q 214 85 243 76 q 155 101 184 93 q 100 116 126 110 q 61 125 75 122 q 39 120 50 129 q 44 90 27 111 "},"u":{"x_min":14,"x_max":618,"ha":653,"o":"m 615 412 q 572 341 595 383 q 526 256 548 300 q 488 170 505 212 q 467 101 472 129 q 467 65 463 76 q 477 52 470 54 q 495 52 484 50 q 515 58 505 55 q 538 67 524 61 q 561 79 552 73 q 585 82 583 94 q 570 55 587 70 q 536 27 556 40 q 498 6 516 13 q 477 9 490 4 q 454 25 465 15 q 436 49 444 36 q 429 76 429 62 q 435 131 429 102 q 451 188 441 161 q 472 243 460 216 q 494 294 484 270 q 494 328 502 315 q 460 316 485 341 q 374 232 427 283 q 266 132 320 182 q 165 45 212 83 q 97 0 119 6 q 36 11 59 -12 q 14 70 14 36 q 31 144 16 102 q 69 229 46 186 q 119 318 92 273 q 174 404 146 364 q 226 477 202 444 q 269 530 251 509 q 288 542 276 539 q 308 543 299 546 q 317 531 316 540 q 306 505 319 522 q 239 415 274 466 q 172 311 204 364 q 114 208 140 258 q 79 120 88 158 q 79 47 62 63 q 131 51 97 31 q 246 139 186 84 q 365 254 306 194 q 479 370 424 313 q 574 465 533 427 q 597 473 587 477 q 612 457 606 469 q 618 432 618 445 q 615 412 618 419 "},"k":{"x_min":21,"x_max":1834,"ha":765,"o":"m 433 599 q 1533 861 975 599 q 1762 1035 1687 933 q 1834 1228 1834 1126 q 1721 1461 1834 1361 q 1422 1560 1598 1560 q 1207 1522 1317 1560 q 809 1273 1004 1451 q 419 804 614 1096 q 301 763 353 789 q 215 701 250 737 q 206 676 206 691 q 221 636 206 657 q 255 611 236 615 q 278 607 268 607 q 296 606 289 607 l 301 606 q 239 501 272 558 q 167 378 205 444 q 135 362 147 382 q 135 307 123 343 q 87 200 114 266 q 22 40 59 134 q 21 29 21 36 q 34 7 27 7 q 43 13 40 7 q 107 161 78 97 q 164 270 136 226 q 748 -208 496 -140 q 774 -216 757 -211 q 820 -225 791 -220 q 888 -229 884 -232 q 934 -184 917 -209 q 963 -136 952 -159 q 962 -129 962 -133 q 960 -125 962 -126 q 950 -131 955 -122 q 823 -207 917 -207 q 780 -200 803 -207 q 470 1 644 -159 q 328 149 387 76 q 229 293 269 222 q 438 341 329 293 q 589 464 552 393 q 608 532 608 505 q 563 564 603 564 q 204 373 467 564 q 280 502 248 448 q 329 592 311 555 q 341 596 335 594 q 353 599 347 597 q 393 599 372 599 q 433 599 414 599 m 353 624 q 769 1188 555 969 q 1216 1504 983 1407 q 1415 1545 1312 1545 q 1686 1463 1568 1545 q 1803 1262 1803 1381 q 1514 908 1803 1076 q 929 679 1244 756 q 455 624 686 624 q 402 624 428 624 q 353 624 376 624 m 454 372 q 409 347 436 358 q 350 325 383 336 q 292 310 318 314 q 243 306 265 306 q 225 307 229 306 q 212 331 216 321 q 206 349 208 342 q 325 441 237 382 q 475 516 433 511 q 523 483 523 523 q 454 372 523 425 m 309 628 q 293 629 305 628 q 262 634 282 630 q 232 661 232 639 q 243 687 232 678 q 411 789 298 754 q 361 709 386 748 q 309 628 336 669 "},"Ù":{"x_min":49,"x_max":1128,"ha":1021,"o":"m 1127 923 q 1127 925 1127 924 q 1128 930 1128 927 q 1113 956 1128 944 q 1085 969 1099 969 l 1081 969 q 1056 955 1065 966 q 1038 928 1047 943 q 1031 916 1032 917 q 912 765 981 850 q 768 586 844 679 q 612 401 692 494 q 457 228 532 308 q 316 87 382 148 q 202 -1 250 26 q 132 -28 162 -28 q 85 35 85 -28 q 86 58 85 46 q 90 83 87 70 q 135 228 103 147 q 211 396 168 309 q 305 571 254 483 q 404 737 355 659 q 496 880 454 816 q 568 985 538 945 q 575 1004 575 997 q 563 1021 575 1015 q 537 1028 552 1028 q 513 1023 526 1028 q 493 1005 500 1018 q 416 885 461 957 q 323 728 372 813 q 225 548 274 642 q 138 365 177 455 q 74 196 99 275 q 49 59 49 117 l 49 55 q 59 14 49 34 q 87 -21 70 -6 q 123 -46 103 -36 q 163 -56 143 -56 q 187 -51 176 -56 q 295 25 232 -29 q 430 153 358 80 q 578 311 503 227 q 721 478 653 395 q 846 634 789 560 q 936 758 903 708 q 971 787 954 787 q 988 766 988 787 q 979 735 988 752 l 978 735 q 897 571 942 666 q 812 379 851 476 q 746 194 772 281 q 720 52 720 106 q 720 44 720 48 q 721 37 721 41 q 727 14 722 27 q 741 -11 733 0 q 758 -32 748 -24 q 775 -41 767 -41 l 778 -41 q 820 6 820 -7 q 815 8 820 8 q 799 3 807 8 q 767 -9 775 -9 q 749 14 749 -9 q 750 37 749 25 q 754 63 751 48 q 756 71 756 67 q 757 80 756 76 q 783 184 762 123 q 832 316 803 245 q 897 464 861 387 q 970 616 933 541 q 1043 760 1007 691 q 1107 885 1079 830 q 1117 905 1113 896 q 1127 923 1122 914 m 930 1151 q 872 1205 904 1174 q 810 1263 840 1235 q 782 1289 794 1277 q 758 1311 769 1301 l 757 1311 q 748 1315 753 1315 q 732 1308 739 1315 q 725 1292 725 1301 q 734 1280 725 1290 q 789 1242 758 1262 q 853 1199 820 1221 q 893 1173 874 1185 q 928 1150 912 1160 l 930 1150 q 928 1151 928 1150 l 930 1151 m 931 1150 l 930 1150 q 930 1149 930 1149 q 931 1150 931 1149 "},"З":{"x_min":162,"x_max":1656.703125,"ha":1635,"o":"m 1285 520 q 1454 405 1400 467 q 1514 279 1508 343 q 1483 149 1519 214 q 1380 26 1446 84 q 1225 -79 1314 -31 q 1038 -159 1136 -128 q 836 -203 939 -190 q 639 -200 732 -215 q 394 -143 503 -187 q 223 -29 285 -99 q 162 134 162 41 q 237 340 162 228 q 253 349 244 346 q 268 352 262 352 q 276 347 274 352 q 270 335 278 343 q 242 294 253 315 q 220 247 230 272 q 208 166 208 207 q 213 86 208 125 q 247 12 223 46 q 307 -47 271 -20 q 386 -93 342 -73 q 478 -126 430 -112 q 695 -156 579 -156 q 947 -128 810 -156 q 1166 -62 1078 -99 q 1324 21 1254 -25 q 1423 108 1388 61 q 1468 202 1458 155 q 1465 294 1478 249 q 1421 379 1451 339 q 1344 449 1390 419 q 1240 496 1297 480 q 1121 453 1183 470 q 1006 430 1058 435 q 918 434 953 425 q 881 471 883 444 q 962 551 914 530 q 1060 573 1010 573 q 1160 558 1111 573 q 1246 531 1208 544 q 1356 606 1301 566 q 1463 686 1410 646 q 1604 820 1564 773 q 1643 891 1639 862 q 1624 949 1647 920 q 1519 1008 1593 992 q 1333 1008 1446 1024 q 1003 887 1093 1008 q 988 831 988 867 q 994 806 992 816 q 999 792 997 796 q 1004 778 1008 780 q 986 781 1003 774 q 976 791 979 784 q 969 810 972 799 q 971 831 968 818 q 979 859 974 844 q 994 890 985 874 q 1014 920 1003 906 q 1222 1036 1076 998 q 1351 1054 1289 1054 q 1479 1049 1414 1054 q 1585 1022 1544 1040 q 1644 977 1626 1005 q 1654 892 1661 951 q 1638 837 1647 860 q 1614 798 1629 814 q 1556 739 1592 771 q 1478 669 1521 706 q 1385 594 1435 632 q 1285 520 1336 556 m 908 475 q 1049 469 943 459 q 1138 484 1099 469 q 1206 509 1176 499 q 1144 526 1188 513 q 1051 540 1100 540 q 962 528 1003 540 q 908 475 921 517 "},"¢":{"x_min":78.765625,"x_max":586.3125,"ha":548,"o":"m 127 101 q 130 93 133 98 q 104 53 115 71 q 84 19 93 34 q 94 7 76 11 q 119 14 112 3 q 140 50 130 33 q 161 82 151 66 q 170 85 162 85 q 448 215 288 85 q 458 230 458 220 q 452 236 458 236 q 441 231 446 236 q 208 114 312 132 q 143 163 143 102 q 144 179 143 170 q 148 197 145 187 q 263 408 176 302 q 354 500 308 461 q 449 559 401 538 q 476 562 460 562 q 516 558 496 562 q 552 549 535 555 q 576 563 563 548 q 581 575 578 570 q 585 586 584 581 q 576 599 588 592 q 558 606 564 606 q 489 592 528 610 q 489 597 483 588 q 560 690 559 693 q 552 696 558 696 q 544 691 548 693 q 538 687 541 690 q 495 629 514 654 q 460 585 476 604 l 456 581 q 213 411 327 529 q 79 168 93 281 q 81 150 77 161 q 93 130 86 140 q 110 113 101 121 q 127 101 119 105 "},"é":{"x_min":14,"x_max":641.78125,"ha":470,"o":"m 637 410 q 639 423 644 421 q 626 415 633 426 q 582 383 611 400 q 522 362 553 365 q 469 356 500 356 q 403 356 439 356 q 329 356 368 356 q 254 356 291 356 q 375 395 322 365 q 448 468 429 425 q 460 516 460 488 q 447 565 460 544 q 415 598 435 587 q 368 599 394 609 q 259 526 320 579 q 144 403 198 474 q 52 248 90 331 q 14 81 14 165 q 27 24 14 51 q 61 -20 41 -1 q 105 -50 81 -40 q 150 -56 129 -61 q 201 -41 175 -52 q 252 -16 227 -30 q 297 12 276 -2 q 333 40 318 27 q 338 52 344 47 q 322 50 333 58 q 281 25 304 37 q 234 3 258 13 q 184 -14 209 -6 q 137 -25 159 -22 q 103 -21 119 -25 q 74 -6 87 -18 q 53 27 61 5 q 46 82 46 48 q 57 153 46 118 q 83 219 68 188 q 115 279 98 251 q 148 332 133 308 q 244 332 190 332 q 354 332 300 332 q 453 332 408 332 q 522 336 498 332 q 594 368 562 343 q 637 410 625 392 m 416 480 q 371 430 399 452 q 309 390 344 407 q 237 364 275 374 q 164 354 200 354 q 260 463 209 411 q 364 548 311 515 q 398 561 383 561 q 423 551 415 561 q 432 523 432 541 q 416 480 432 505 m 415 676 q 466 711 437 692 q 523 749 494 730 q 578 784 553 768 q 624 813 604 801 q 631 829 631 819 q 624 847 631 838 q 609 859 618 855 q 593 858 600 863 q 553 822 576 844 q 503 777 529 801 q 450 730 476 754 q 404 690 425 706 q 402 677 397 683 q 415 676 408 670 "},"B":{"x_min":32.265625,"x_max":1251.734375,"ha":1020,"o":"m 564 -12 q 720 4 651 -12 q 836 50 789 20 q 884 88 859 67 q 923 133 909 109 q 938 187 938 158 q 905 247 938 215 q 870 274 894 258 q 814 304 847 289 q 741 332 781 320 q 658 350 701 345 q 642 361 642 353 q 660 372 642 370 q 767 395 705 381 q 895 429 829 408 q 1026 479 961 450 q 1146 543 1092 507 q 1217 610 1190 572 q 1250 688 1244 648 q 1236 768 1256 728 q 1169 841 1217 807 q 1018 923 1096 893 q 857 968 940 952 q 685 985 774 985 q 503 985 597 985 q 465 985 497 985 q 388 980 433 985 q 290 968 343 976 q 188 944 237 959 q 99 909 139 929 q 43 856 60 888 q 35 801 26 827 q 64 754 43 775 q 114 713 86 732 q 165 681 142 695 q 192 675 190 664 q 172 697 193 686 q 139 719 160 704 q 103 754 119 733 q 78 796 86 774 q 80 839 69 818 q 134 898 98 875 q 212 934 169 921 q 302 953 255 947 q 389 959 348 959 q 462 959 430 959 q 505 959 493 959 q 676 959 590 959 q 845 941 762 959 q 1004 892 928 923 q 1146 812 1080 861 q 1201 744 1189 779 q 1204 676 1212 709 q 1173 613 1196 643 q 1125 562 1151 584 q 1056 519 1097 540 q 967 479 1015 498 q 869 444 919 459 q 773 416 818 428 q 691 396 728 405 q 635 385 654 388 q 665 432 646 401 q 709 501 685 463 q 758 581 733 539 q 805 661 783 622 q 842 733 826 700 q 860 786 857 767 q 849 809 864 807 q 815 805 833 811 q 785 789 797 799 q 781 778 772 779 q 792 769 790 777 q 795 752 795 761 q 791 733 795 743 q 785 717 788 722 q 750 646 771 686 q 703 561 729 606 q 646 470 676 517 q 586 381 617 424 q 544 373 568 375 q 507 370 519 371 q 499 365 503 370 q 496 354 496 360 q 503 341 497 347 q 519 331 508 335 q 536 325 529 326 q 553 321 543 324 q 498 237 529 286 q 437 138 468 188 q 382 42 407 88 q 350 -31 358 -3 q 346 -63 339 -64 q 368 -34 354 -62 q 419 61 385 4 q 488 170 453 117 q 553 265 523 224 q 592 317 583 306 q 651 306 614 314 q 728 288 689 299 q 802 263 767 276 q 856 236 838 250 q 892 191 883 215 q 894 142 900 166 q 869 98 888 118 q 826 67 851 78 q 696 28 768 40 q 554 16 625 16 q 537 12 546 16 q 528 3 529 8 q 534 -6 526 -1 q 564 -12 542 -12 "},"…":{"x_min":86,"x_max":776,"ha":850,"o":"m 471 58 q 462 47 471 54 q 443 37 454 41 q 422 31 432 33 q 408 34 412 30 q 402 49 405 38 q 398 71 399 59 q 397 93 397 83 q 399 106 397 102 q 410 116 402 111 q 429 126 419 122 q 448 132 440 130 q 459 130 457 134 q 466 117 464 127 q 469 95 468 106 q 471 73 471 84 q 471 58 471 62 m 776 52 q 767 43 776 48 q 749 33 759 37 q 728 27 738 29 q 714 30 718 26 q 708 45 711 34 q 704 67 705 55 q 703 88 703 79 q 705 102 703 98 q 716 112 708 106 q 735 122 725 118 q 753 127 745 126 q 764 125 762 129 q 771 112 769 122 q 774 91 773 102 q 776 68 776 79 q 776 52 776 56 m 158 58 q 149 47 158 54 q 131 37 141 41 q 110 31 120 33 q 97 34 101 30 q 91 49 94 38 q 87 71 88 59 q 86 93 86 83 q 88 106 86 102 q 99 116 91 111 q 117 126 108 122 q 136 132 127 130 q 149 130 145 134 q 153 117 152 127 q 156 95 155 106 q 158 73 158 84 q 158 58 158 62 "},"В":{"x_min":32.265625,"x_max":1251.734375,"ha":1020,"o":"m 564 -12 q 534 -6 542 -12 q 528 3 526 -1 q 537 12 529 8 q 554 16 546 16 q 696 28 625 16 q 826 67 768 40 q 869 98 851 78 q 894 142 888 118 q 892 191 900 166 q 856 236 883 215 q 802 263 838 250 q 728 288 767 276 q 651 306 689 299 q 592 317 614 314 q 553 265 583 306 q 488 170 523 224 q 419 61 453 117 q 368 -34 385 4 q 346 -63 354 -62 q 350 -31 339 -64 q 382 42 358 -3 q 437 138 407 88 q 498 237 468 188 q 553 321 529 286 q 536 325 543 324 q 519 331 529 326 q 503 341 508 335 q 496 354 497 347 q 499 365 496 360 q 507 370 503 370 q 544 373 519 371 q 586 381 568 375 q 646 470 617 424 q 703 561 676 517 q 750 646 729 606 q 785 717 771 686 q 791 733 788 722 q 795 752 795 743 q 792 769 795 761 q 781 778 790 777 q 785 789 772 779 q 815 805 797 799 q 849 809 833 811 q 860 786 864 807 q 842 733 857 767 q 805 661 826 700 q 758 581 783 622 q 709 501 733 539 q 665 432 685 463 q 635 385 646 401 q 691 396 654 388 q 773 416 728 405 q 869 444 818 428 q 967 479 919 459 q 1056 519 1015 498 q 1125 562 1097 540 q 1173 613 1151 584 q 1204 676 1196 643 q 1201 744 1212 709 q 1146 812 1189 779 q 1004 892 1080 861 q 845 941 928 923 q 676 959 762 959 q 505 959 590 959 q 462 959 493 959 q 389 959 430 959 q 302 953 348 959 q 212 934 255 947 q 134 898 169 921 q 80 839 98 875 q 78 796 69 818 q 103 754 86 774 q 139 719 119 733 q 172 697 160 704 q 192 675 193 686 q 165 681 190 664 q 114 713 142 695 q 64 754 86 732 q 35 801 43 775 q 43 856 26 827 q 99 909 60 888 q 188 944 139 929 q 290 968 237 959 q 388 980 343 976 q 465 985 433 985 q 503 985 497 985 q 685 985 597 985 q 857 968 774 985 q 1018 923 940 952 q 1169 841 1096 893 q 1236 768 1217 807 q 1250 688 1256 728 q 1217 610 1244 648 q 1146 543 1190 572 q 1026 479 1092 507 q 895 429 961 450 q 767 395 829 408 q 660 372 705 381 q 642 361 642 370 q 658 350 642 353 q 741 332 701 345 q 814 304 781 320 q 870 274 847 289 q 905 247 894 258 q 938 187 938 215 q 923 133 938 158 q 884 88 909 109 q 836 50 859 67 q 720 4 789 20 q 564 -12 651 -12 "},"І":{"x_min":-124,"x_max":806.140625,"ha":827,"o":"m -78 154 q -61 169 -65 172 q -64 146 -57 165 q -92 14 -85 85 q -88 -117 -100 -56 q -43 -218 -76 -177 q 49 -259 -9 -259 q 141 -225 95 -259 q 228 -147 187 -191 q 300 -55 269 -102 q 348 19 332 -8 q 395 109 366 51 q 457 240 423 167 q 525 396 490 313 q 594 564 561 479 q 655 729 627 649 q 701 878 683 810 q 636 825 673 857 q 559 755 598 793 q 484 672 520 717 q 418 581 447 628 q 380 506 400 549 q 357 422 361 464 q 346 398 354 395 q 339 422 339 401 q 357 514 344 463 q 393 602 369 565 q 460 693 419 649 q 545 775 501 736 q 634 849 590 814 q 712 913 679 884 q 729 956 720 934 q 746 998 737 978 q 765 1034 755 1018 q 786 1054 775 1049 q 800 1054 795 1059 q 805 1038 804 1049 q 804 1016 807 1028 q 797 993 801 1003 q 773 949 786 971 q 743 907 761 927 q 716 815 736 879 q 666 667 695 751 q 601 486 637 582 q 526 296 565 389 q 448 122 487 203 q 373 -11 409 41 q 325 -81 355 -37 q 254 -167 295 -125 q 162 -243 213 -210 q 49 -276 110 -276 q -27 -254 5 -276 q -82 -195 -60 -233 q -114 -111 -104 -158 q -124 -15 -124 -63 q -112 78 -124 33 q -78 154 -100 123 "},"H":{"x_min":24.1875,"x_max":1645.03125,"ha":1237,"o":"m 301 814 q 191 719 241 771 q 109 615 142 668 q 59 510 75 562 q 50 414 43 457 q 87 338 56 371 q 180 293 118 305 q 204 285 196 290 q 212 273 212 279 q 203 265 212 268 q 178 265 195 262 q 70 316 107 276 q 25 413 32 357 q 40 537 18 469 q 107 674 62 605 q 222 803 153 742 q 380 908 291 864 q 603 982 507 972 q 755 955 698 992 q 826 838 812 918 q 808 644 841 758 q 793 602 803 633 q 771 537 783 571 q 742 449 760 504 q 864 449 803 449 q 974 443 926 449 q 1084 430 1023 437 q 1145 568 1109 492 q 1224 722 1181 644 q 1315 873 1267 800 q 1411 1001 1363 946 q 1505 1085 1459 1056 q 1589 1108 1550 1115 q 1616 1098 1605 1104 q 1637 1072 1627 1092 q 1642 1042 1649 1047 q 1630 1051 1635 1038 q 1564 1088 1605 1097 q 1473 1033 1523 1079 q 1372 912 1424 986 q 1272 753 1320 837 q 1186 582 1224 668 q 1137 463 1148 497 q 1135 427 1127 429 q 1185 419 1143 425 q 1198 409 1199 418 q 1168 400 1196 400 q 1150 400 1157 400 q 1128 399 1145 400 q 1116 394 1120 399 q 1107 378 1112 390 q 1074 273 1091 333 q 1042 155 1057 214 q 1020 45 1028 95 q 1012 -31 1012 -5 q 1022 -55 1012 -54 q 1048 -48 1032 -56 q 1100 1 1080 -29 q 1141 72 1121 32 q 1155 89 1148 89 q 1156 69 1162 89 q 1098 -39 1135 -1 q 1032 -88 1060 -77 q 1004 -90 1021 -93 q 977 -61 987 -87 q 973 36 964 -23 q 998 162 981 97 q 1035 286 1016 226 q 1066 380 1055 346 q 1066 396 1068 393 q 1048 400 1063 399 q 877 410 956 410 q 745 410 798 410 q 720 402 728 410 q 706 383 712 395 q 680 316 696 358 q 646 228 665 273 q 613 139 628 182 q 591 70 598 95 q 596 61 588 59 q 637 79 605 63 q 659 82 653 87 q 642 63 665 76 q 580 9 596 36 q 573 -2 577 4 q 565 -11 570 -8 q 555 -11 560 -13 q 542 2 549 -9 q 546 63 534 18 q 580 165 558 108 q 627 281 602 222 q 669 385 652 340 q 655 400 673 400 q 610 387 637 400 q 581 383 589 380 q 572 394 573 386 q 576 410 571 401 q 585 423 581 419 q 609 437 595 432 q 636 443 623 441 q 660 446 649 446 q 681 447 673 446 q 695 455 692 450 q 705 479 698 460 q 739 569 723 524 q 768 658 755 614 q 789 744 782 701 q 797 824 797 786 q 747 926 797 897 q 625 948 698 954 q 464 906 551 942 q 301 814 377 869 "},"î":{"x_min":18,"x_max":428.1875,"ha":333,"o":"m 402 180 q 351 137 385 163 q 275 82 316 110 q 193 28 234 53 q 122 -9 152 3 q 96 -9 113 -12 q 61 3 79 -7 q 31 31 44 13 q 18 73 18 48 q 31 130 18 95 q 65 204 45 165 q 110 282 85 242 q 154 355 134 322 q 188 411 174 388 q 204 441 202 434 q 222 463 206 458 q 252 462 238 468 q 271 443 266 457 q 258 406 276 429 q 213 349 238 383 q 162 277 188 316 q 112 195 135 237 q 70 110 88 152 q 54 55 54 74 q 63 29 54 37 q 85 22 72 22 q 112 26 99 22 q 178 52 138 31 q 260 99 219 73 q 338 152 302 126 q 394 197 374 179 q 412 211 406 209 q 418 208 417 212 q 415 195 419 204 q 402 180 410 187 m 423 558 q 425 535 431 540 q 406 545 419 530 q 367 586 390 565 q 331 619 345 608 q 322 621 324 622 q 319 621 320 621 q 271 599 297 609 q 221 577 245 589 q 175 556 197 566 q 140 536 154 545 q 118 535 123 525 q 127 554 113 545 q 169 581 144 565 q 220 614 194 597 q 269 645 247 630 q 304 666 292 659 q 333 673 317 675 q 356 662 349 672 q 391 609 374 637 q 423 558 408 582 "},"¥":{"x_min":-118,"x_max":912.625,"ha":593,"o":"m -99 17 l 65 17 q -36 -119 8 -52 q -101 -227 -81 -185 q -105 -266 -116 -260 q -72 -234 -94 -271 q 10 -112 -37 -176 q 114 17 58 -49 l 298 17 q 321 41 321 17 q 304 57 321 57 l 149 57 q 207 124 176 90 q 269 193 237 158 q 304 230 286 211 q 339 269 322 249 l 341 269 q 411 269 379 269 q 472 269 444 269 q 488 290 488 269 q 476 302 488 302 l 372 302 q 523 451 447 378 q 667 588 598 524 q 795 706 736 653 q 900 795 855 759 q 912 818 913 807 q 900 832 911 828 q 875 834 890 836 q 847 821 859 832 q 675 663 761 746 q 507 498 588 581 q 352 338 426 416 q 225 195 279 260 q 225 286 225 233 q 225 395 225 338 q 225 513 225 453 q 233 626 225 572 q 249 723 241 679 q 262 792 256 767 q 255 832 268 821 q 225 839 242 842 q 190 822 207 836 q 174 786 174 807 q 174 716 174 766 q 174 600 174 667 q 174 456 174 534 q 174 302 174 378 l 46 302 q 25 278 25 302 q 36 269 25 269 q 104 269 72 269 q 167 269 137 269 q 167 205 167 236 q 172 146 167 174 q 135 102 154 123 q 97 57 117 80 l -90 57 q -118 34 -118 57 q -99 17 -118 17 "},"U":{"x_min":40,"x_max":1492.421875,"ha":1335,"o":"m 1151 1 q 1202 138 1165 52 q 1301 347 1238 223 q 1402 535 1359 459 q 1476 651 1445 611 q 1485 680 1482 666 q 1491 705 1488 694 q 1486 729 1494 719 q 1465 740 1477 740 q 1447 731 1452 740 q 1400 679 1419 702 q 1361 640 1380 655 q 1179 484 1270 561 q 997 331 1088 407 q 750 139 852 210 q 588 41 648 67 q 546 30 567 30 q 508 68 508 30 q 512 92 508 80 q 551 202 521 138 q 627 348 580 266 q 743 553 705 483 q 785 627 782 622 q 872 894 872 787 q 821 1007 872 947 q 717 1069 768 1069 q 320 944 520 1069 q 63 680 135 830 q 40 579 40 632 q 49 512 40 543 q 81 460 57 486 q 142 404 105 433 q 157 399 152 399 q 166 404 166 399 q 154 418 166 412 q 69 564 69 475 q 74 616 69 591 q 92 665 80 641 q 202 805 135 739 q 361 925 268 870 q 717 1040 552 1040 q 810 997 777 1040 q 841 915 841 957 q 818 806 841 871 q 749 661 796 741 q 661 514 705 586 q 573 368 617 442 q 455 95 470 195 q 457 58 452 76 q 475 26 463 40 q 503 4 487 12 q 535 -3 519 -3 q 552 0 544 -3 q 710 87 606 16 q 972 283 815 158 q 1341 598 1209 475 q 1359 610 1351 610 q 1361 573 1373 610 q 1333 512 1359 571 q 1254 336 1307 454 q 1134 39 1155 120 q 1125 -50 1125 0 q 1140 -74 1127 -74 q 1157 -54 1154 -74 q 1151 1 1157 -11 "},"Ñ":{"x_min":-9.546875,"x_max":1003,"ha":1028,"o":"m 62 28 q 147 168 91 89 q 273 330 202 246 q 425 497 344 413 q 586 651 507 580 q 739 775 666 722 q 868 851 812 827 q 933 844 915 871 q 919 751 951 818 q 843 598 894 694 q 731 385 793 502 q 603 143 669 269 q 481 -97 537 17 q 386 -308 425 -213 q 340 -460 347 -404 q 343 -497 337 -482 q 360 -522 350 -513 q 384 -533 370 -531 q 412 -532 398 -535 q 459 -516 434 -528 q 509 -487 484 -503 q 554 -454 533 -471 q 591 -421 576 -436 q 614 -396 609 -404 q 616 -386 619 -388 q 602 -391 612 -385 q 580 -410 593 -397 q 555 -431 570 -420 q 524 -451 540 -442 q 493 -468 508 -460 q 470 -479 479 -475 q 450 -488 455 -485 q 440 -493 445 -492 q 424 -491 434 -493 q 388 -484 413 -489 q 381 -429 369 -479 q 427 -300 393 -379 q 513 -118 462 -221 q 622 95 563 -15 q 740 317 680 206 q 852 525 800 428 q 942 697 904 622 q 996 811 981 772 q 1003 847 1003 827 q 991 883 1003 868 q 959 905 980 898 q 905 902 939 912 q 807 856 862 890 q 692 775 752 822 q 568 670 632 727 q 446 554 505 613 q 335 438 387 495 q 244 334 283 381 q 224 316 231 319 q 213 319 216 313 q 211 335 209 324 q 219 358 212 345 q 288 480 248 409 q 365 625 327 551 q 436 769 404 700 q 484 886 468 839 q 500 957 500 928 q 485 1002 500 987 q 437 1017 471 1017 q 349 1000 404 1017 q 261 960 313 989 q 158 893 208 932 q 69 805 109 853 q 20 708 30 758 q 21 643 13 668 q 34 605 29 619 q 48 590 41 590 q 57 608 55 591 q 55 650 57 626 q 63 700 54 673 q 97 762 72 722 q 161 845 122 802 q 249 924 200 887 q 356 976 298 961 q 421 960 400 987 q 427 875 443 933 q 391 776 418 836 q 328 644 365 716 q 247 491 291 572 q 159 331 204 410 q 72 178 115 252 q -2 42 30 103 q -6 13 -13 21 q 13 5 0 5 q 43 11 27 5 q 62 28 58 18 m 594 1147 q 630 1169 609 1159 q 675 1179 651 1179 q 709 1170 688 1179 q 751 1153 730 1162 q 791 1136 772 1144 q 825 1128 811 1128 q 849 1134 837 1128 q 871 1150 861 1140 q 891 1169 882 1159 q 907 1187 900 1179 q 914 1207 918 1202 q 896 1199 909 1212 q 868 1178 880 1183 q 825 1174 857 1174 q 789 1182 809 1174 q 748 1199 769 1190 q 708 1216 727 1208 q 675 1225 688 1225 q 626 1202 651 1225 q 586 1161 601 1179 q 577 1140 576 1147 q 594 1147 579 1133 "},"F":{"x_min":18,"x_max":1442,"ha":1209,"o":"m 1364 1019 q 1356 1034 1348 1032 q 1375 1028 1364 1035 q 1426 976 1410 1009 q 1442 908 1442 942 q 1414 847 1442 874 q 1337 815 1387 820 q 1178 821 1259 805 q 1012 865 1097 837 q 839 926 928 892 q 656 984 750 959 q 464 1020 562 1009 q 262 1016 366 1031 q 140 957 188 1003 q 69 843 92 910 q 46 696 46 775 q 66 541 46 617 q 127 401 87 466 q 227 298 168 336 q 327 266 273 266 q 430 282 380 266 q 518 335 479 299 q 575 427 558 371 q 586 433 576 431 q 596 427 596 434 q 546 328 587 370 q 451 263 505 286 q 340 240 397 240 q 244 261 283 240 q 115 386 166 311 q 41 547 64 460 q 18 722 18 633 q 51 887 18 810 q 136 998 82 958 q 258 1054 189 1038 q 406 1070 328 1070 q 567 1053 485 1070 q 728 1009 649 1036 q 876 956 806 983 q 1125 874 1013 902 q 1308 847 1236 847 q 1410 875 1382 847 q 1411 962 1439 903 q 1391 994 1403 981 q 1364 1019 1379 1006 m 987 853 q 1002 858 996 860 q 1013 848 1009 855 q 1018 831 1018 841 q 1009 810 1018 820 q 979 772 1001 799 q 930 707 957 745 q 876 622 904 668 q 829 528 848 576 q 825 512 823 514 q 843 506 827 509 q 918 501 876 501 q 1002 501 961 501 q 1079 501 1044 501 q 1132 501 1113 501 q 1151 495 1152 501 q 1130 487 1150 489 q 1072 476 1112 476 q 985 476 1031 476 q 894 476 939 476 q 824 476 850 476 q 801 467 808 476 q 790 444 794 459 q 756 351 774 401 q 726 253 739 302 q 706 157 714 203 q 699 73 699 110 q 702 62 699 64 q 708 57 705 59 q 713 51 711 55 q 714 38 715 48 q 689 2 705 9 q 669 24 672 -4 q 671 101 665 51 q 689 212 678 152 q 718 334 701 273 q 753 444 735 395 q 747 465 758 459 q 724 471 736 471 q 708 468 715 471 q 696 464 701 466 q 689 463 692 462 q 689 469 687 464 q 707 492 692 484 q 754 507 722 501 q 777 516 769 512 q 793 539 785 520 q 844 635 815 584 q 904 740 872 687 q 905 758 918 759 q 874 748 893 756 q 860 744 864 744 q 856 748 856 745 q 858 756 856 752 q 867 762 861 760 q 935 808 902 778 q 987 853 968 837 "},"*":{"x_min":24.328125,"x_max":482.953125,"ha":504,"o":"m 354 805 q 316 728 334 765 q 277 647 298 691 q 372 684 322 662 q 469 723 422 706 q 482 722 480 730 q 477 711 484 715 q 374 660 430 686 q 276 616 317 634 q 333 567 308 588 q 380 524 359 545 q 390 504 395 511 q 377 502 384 498 q 319 547 347 526 q 255 598 292 568 q 230 542 244 574 q 205 479 216 509 q 189 428 193 450 q 192 407 184 407 q 191 403 196 407 q 181 397 186 400 q 166 410 166 393 q 175 457 166 427 q 196 523 184 487 q 218 591 209 559 q 134 547 178 568 q 57 501 91 526 q 56 495 55 500 q 49 488 57 490 q 25 502 30 486 q 39 533 20 518 q 73 554 52 543 q 119 576 94 565 q 172 599 145 587 q 223 623 199 611 q 173 655 196 638 q 121 686 150 672 q 116 682 120 686 q 107 686 112 679 q 101 699 101 691 q 106 715 101 709 q 121 724 112 722 q 142 722 130 727 q 192 688 168 711 q 242 645 216 666 q 273 714 258 681 q 299 776 288 747 q 304 797 304 786 q 317 815 304 808 q 349 821 342 830 q 354 805 356 812 "},"†":{"x_min":17,"x_max":366.171875,"ha":383,"o":"m 351 745 q 365 758 362 748 q 357 768 368 768 l 230 768 q 261 853 251 824 q 278 903 271 882 q 296 946 286 924 q 325 1010 305 967 q 326 1030 332 1026 q 307 1030 319 1034 q 284 1018 296 1027 q 268 998 272 1009 q 244 935 253 957 q 231 900 236 913 q 223 878 226 887 q 216 858 219 870 q 206 826 212 846 q 189 769 200 806 q 159 769 180 769 q 114 769 137 769 q 72 769 92 769 q 48 766 53 769 q 62 751 47 761 q 97 730 78 741 q 135 708 117 719 q 161 688 154 697 q 162 672 164 684 q 155 645 160 661 q 146 613 151 630 q 139 580 142 595 q 100 419 122 506 q 59 247 78 333 q 28 85 40 162 q 17 -43 17 9 l 200 672 q 232 699 212 687 q 274 719 253 711 q 316 734 296 727 q 351 745 337 741 "},"°":{"x_min":62,"x_max":241,"ha":279,"o":"m 241 684 q 214 745 241 720 q 150 770 188 770 q 88 745 114 770 q 62 684 62 720 q 88 622 62 648 q 150 597 114 597 q 214 622 188 597 q 241 684 241 648 m 150 613 q 100 634 121 613 q 80 684 80 655 q 100 733 80 712 q 150 754 121 754 q 200 733 178 754 q 223 684 223 712 q 200 634 223 655 q 150 613 178 613 "},"å":{"x_min":-17,"x_max":898,"ha":613,"o":"m 49 -39 q 146 26 93 -11 q 259 116 199 63 q 366 213 320 168 q 446 298 413 258 q 452 301 449 301 q 453 285 462 301 q 407 206 430 249 q 360 112 384 163 q 300 -40 321 29 q 279 -169 279 -111 q 324 -277 279 -240 q 437 -314 369 -314 q 478 -310 458 -314 q 517 -300 498 -307 q 706 -177 592 -270 q 814 -77 768 -125 q 891 18 860 -29 q 898 33 898 27 q 896 39 898 36 q 879 25 891 39 q 699 -153 814 -60 q 506 -272 581 -248 q 409 -289 458 -289 q 301 -196 301 -289 q 301 -182 301 -189 q 302 -169 301 -176 q 347 0 314 -89 q 438 187 380 90 q 514 310 474 249 q 594 433 555 370 q 591 443 595 437 q 581 450 588 450 q 574 447 577 450 q 537 429 557 433 q 512 430 534 427 q 444 443 476 443 q 387 431 413 443 q 271 366 334 409 q 137 252 208 323 q -17 -1 -17 98 q 17 -49 -17 -49 q 49 -39 35 -49 m 72 79 q 203 273 111 170 q 369 399 303 383 q 401 404 385 404 q 447 391 430 404 q 465 363 465 379 q 460 352 465 356 q 276 152 363 234 q 111 20 189 70 q 91 14 100 14 q 66 47 66 14 q 72 79 66 62 m 365 622 q 347 662 365 646 q 306 678 330 678 q 265 662 282 678 q 249 622 249 646 q 265 582 249 598 q 306 567 282 567 q 347 582 330 567 q 365 622 365 598 m 306 578 q 275 590 288 578 q 262 622 262 602 q 275 654 262 640 q 306 668 288 668 q 338 654 325 668 q 352 622 352 640 q 338 590 352 602 q 306 578 325 578 "},"0":{"x_min":31,"x_max":734,"ha":752,"o":"m 285 614 q 46 258 104 458 q 34 207 37 232 q 31 161 31 183 q 80 27 31 73 q 208 -18 129 -18 q 245 -15 226 -18 q 283 -8 264 -12 q 427 53 360 12 q 555 161 494 94 q 713 422 669 282 q 728 490 722 458 q 734 550 734 522 q 683 689 734 643 q 551 728 633 735 q 424 687 483 721 q 384 671 405 680 q 342 650 362 661 q 306 629 322 639 q 285 614 290 619 m 544 692 q 692 530 692 692 q 673 418 692 473 q 517 151 629 272 q 249 10 385 10 q 150 51 187 10 q 117 109 128 76 q 106 186 106 141 q 108 222 106 204 q 112 260 110 240 q 137 339 119 297 q 180 425 154 380 q 315 590 236 523 q 544 692 435 692 "},"”":{"x_min":36,"x_max":366.109375,"ha":387,"o":"m 223 561 q 364 731 339 661 q 360 777 368 743 q 339 810 349 809 q 305 793 330 813 q 285 766 278 772 q 297 736 292 749 q 300 713 302 722 q 210 577 292 634 q 205 567 205 571 q 214 559 205 559 q 223 561 217 559 m 52 561 q 195 731 170 660 q 189 777 199 745 q 170 810 181 809 q 135 793 160 813 q 116 766 109 772 q 128 736 123 749 q 131 713 132 722 q 41 577 123 634 q 36 567 36 571 q 45 559 36 559 q 52 561 49 559 "},"ö":{"x_min":28,"x_max":616,"ha":516,"o":"m 90 -23 q 69 -21 80 -24 q 49 -10 58 -17 q 34 5 40 -3 q 28 26 28 15 q 212 367 28 142 q 209 379 218 376 q 184 396 197 386 q 172 414 172 405 q 176 425 172 418 q 212 433 180 433 q 265 433 264 433 q 281 439 271 433 q 342 470 311 470 q 404 445 364 470 q 409 442 407 443 q 414 436 411 440 q 491 436 446 436 q 595 436 536 436 q 616 430 616 433 q 595 420 616 420 q 539 403 552 420 q 539 394 536 399 q 540 386 540 390 q 541 379 541 382 q 498 266 541 326 q 374 135 456 206 q 90 -23 212 -5 m 69 50 q 61 19 61 35 q 105 -5 61 -13 q 331 131 199 10 q 491 356 470 254 q 438 404 501 397 q 376 405 405 408 q 322 392 347 401 q 299 379 320 393 q 69 50 150 242 m 521 585 q 512 575 521 581 q 494 565 504 570 q 473 560 484 561 q 458 563 462 558 q 453 577 455 567 q 449 599 451 588 q 447 621 447 611 q 449 635 447 631 q 460 645 452 639 q 479 654 469 650 q 498 660 490 658 q 509 657 507 661 q 516 645 514 654 q 519 623 518 635 q 521 600 521 611 q 521 585 521 589 m 381 586 q 372 576 381 582 q 354 567 364 571 q 335 561 344 563 q 321 564 325 560 q 315 579 318 568 q 310 601 312 589 q 309 622 309 613 q 311 636 309 632 q 323 646 314 640 q 342 656 333 651 q 361 661 352 660 q 373 658 369 663 q 378 646 376 656 q 381 624 381 636 q 381 601 381 613 q 381 586 381 590 "},"Õ":{"x_min":19,"x_max":1188,"ha":1210,"o":"m 35 442 q 23 379 28 410 q 19 319 19 349 q 133 75 19 170 q 373 -6 231 -6 q 699 66 527 -6 q 870 165 792 109 q 1010 294 948 221 q 1186 664 1156 462 q 1188 680 1188 671 q 1188 699 1188 689 q 1107 938 1188 822 q 849 1104 1010 1079 q 745 1113 797 1113 q 483 1062 608 1113 q 269 911 349 1005 q 197 745 197 826 q 201 705 197 725 q 35 442 73 577 m 901 989 q 862 993 881 991 q 821 996 842 996 q 480 906 666 996 q 334 824 398 867 q 220 731 270 780 q 218 759 218 745 q 286 899 218 827 q 485 1027 362 979 q 751 1082 616 1082 q 792 1082 771 1082 q 831 1077 812 1082 q 980 1031 916 1063 q 1088 941 1043 998 q 1166 708 1166 842 q 1034 377 1166 539 q 723 130 913 227 q 373 37 537 37 q 130 114 217 37 q 44 323 44 191 q 47 381 44 351 q 59 441 50 410 q 120 574 76 496 q 165 638 144 611 q 205 682 185 664 q 270 598 220 636 q 324 568 297 579 q 383 558 351 558 q 404 567 404 553 q 388 577 404 577 q 280 615 334 577 q 224 702 230 656 q 453 870 279 780 q 821 978 655 978 q 899 969 862 978 q 915 979 915 965 q 901 989 915 987 m 459 1260 q 495 1280 474 1271 q 540 1289 516 1289 q 574 1281 553 1289 q 615 1264 594 1273 q 655 1248 635 1256 q 688 1241 674 1241 q 734 1261 712 1241 q 770 1296 756 1281 q 777 1314 781 1309 q 759 1307 773 1318 q 732 1287 744 1291 q 688 1283 720 1283 q 654 1290 674 1283 q 613 1307 634 1298 q 573 1323 592 1315 q 540 1331 553 1331 q 516 1324 528 1331 q 492 1309 503 1318 q 469 1290 480 1299 q 452 1271 459 1280 q 442 1252 441 1259 q 459 1260 444 1246 "},"№":{"x_min":33,"x_max":1751,"ha":1782,"o":"m 762 1018 q 858 960 823 1018 q 890 842 890 916 q 883 779 890 811 q 800 575 863 704 q 625 261 737 447 q 616 235 616 245 q 621 230 616 230 q 643 252 631 230 q 769 399 700 324 q 921 555 838 474 q 1269 795 1146 776 q 1302 789 1288 799 q 1331 761 1316 779 q 1354 720 1351 739 q 1357 682 1357 701 q 1356 665 1357 673 q 1352 651 1355 657 q 1252 468 1302 558 q 1153 286 1202 378 q 1090 161 1128 240 q 1010 -12 1052 81 q 928 -206 969 -107 q 857 -392 887 -305 q 812 -541 827 -478 q 809 -627 798 -604 q 809 -641 812 -634 q 807 -656 807 -649 q 829 -698 807 -698 q 1031 -554 887 -698 q 1052 -538 1048 -538 q 1055 -543 1055 -540 q 1042 -567 1055 -549 q 951 -661 1018 -606 q 839 -720 877 -720 q 813 -710 824 -720 q 793 -686 802 -700 q 781 -656 785 -672 q 777 -624 777 -639 q 794 -538 777 -601 q 839 -389 811 -475 q 902 -206 867 -304 q 972 -16 937 -108 q 1040 154 1008 76 q 1094 277 1072 231 l 1297 686 q 1312 739 1312 715 q 1280 768 1312 768 q 1230 755 1259 768 q 931 540 1106 702 q 792 397 860 472 q 656 235 724 322 q 561 112 599 163 q 502 26 523 60 q 467 4 487 4 q 450 19 450 4 q 452 28 450 23 q 456 40 454 33 q 854 787 794 595 q 864 831 861 810 q 868 872 868 852 q 766 990 868 990 q 497 899 670 990 q 335 792 409 848 q 198 669 262 736 q 59 421 59 526 q 95 377 59 384 q 137 373 115 373 q 178 377 159 373 q 195 371 195 379 q 178 361 195 365 q 96 352 129 346 q 33 457 33 365 q 164 684 33 545 q 304 813 230 755 q 461 919 378 870 q 627 993 552 969 q 762 1018 702 1018 m 1320 240 q 1297 252 1297 240 q 1341 278 1297 278 l 1537 278 q 1561 264 1561 278 q 1524 240 1561 240 l 1320 240 l 1320 240 m 1580 701 q 1662 733 1624 729 q 1751 647 1751 741 q 1740 584 1751 616 q 1665 457 1719 513 q 1533 375 1606 395 q 1495 371 1515 371 q 1411 456 1411 371 q 1417 505 1411 477 q 1477 622 1437 569 q 1580 701 1526 683 m 1655 710 q 1549 662 1602 710 q 1454 508 1468 591 q 1451 492 1452 501 q 1450 476 1450 484 q 1475 408 1450 430 q 1533 393 1501 386 q 1641 454 1590 405 q 1716 581 1693 504 q 1725 634 1725 607 q 1655 710 1725 710 "},"þ":{"x_min":32,"x_max":728,"ha":992,"o":"m 612 503 q 519 608 565 572 q 423 659 473 645 q 319 663 372 674 q 219 611 266 653 q 150 537 179 578 q 101 454 120 496 q 70 372 82 413 q 57 299 59 332 q 44 281 57 279 q 32 303 32 282 q 44 383 32 338 q 79 476 57 429 q 131 565 100 522 q 194 638 161 608 q 467 686 287 728 q 722 340 647 645 q 728 197 728 269 q 709 56 728 125 q 661 -73 691 -12 q 591 -181 630 -134 q 529 -245 560 -217 q 443 -306 499 -273 q 354 -333 396 -333 q 343 -329 347 -333 q 338 -321 339 -326 q 341 -311 337 -315 q 351 -308 344 -308 q 430 -280 387 -303 q 569 -164 507 -234 q 661 -5 631 -94 q 692 174 692 83 q 675 347 692 264 q 612 503 658 429 "},"]":{"x_min":-160,"x_max":645,"ha":659,"o":"m 519 491 q 559 596 537 537 q 601 716 582 655 q 632 830 620 776 q 645 918 645 883 q 640 967 645 940 q 627 1016 636 994 q 602 1055 617 1039 q 565 1071 587 1071 q 457 1071 518 1071 q 340 1062 397 1071 q 236 1043 283 1054 q 170 1018 190 1031 q 147 997 154 1007 q 142 981 141 987 q 152 974 144 975 q 173 981 160 974 q 245 1003 194 993 q 356 1013 295 1013 q 475 1013 416 1013 q 570 999 533 1013 q 595 989 587 993 q 607 978 604 986 q 609 958 611 971 q 607 924 607 946 q 538 689 583 817 q 435 431 493 561 q 310 178 377 301 q 176 -41 242 55 q 101 -63 144 -53 q 15 -77 59 -73 q -70 -82 -29 -82 q -139 -70 -111 -82 q -146 -84 -140 -77 q -155 -99 -151 -91 q -160 -112 -160 -106 q -148 -122 -160 -118 q -101 -133 -134 -130 q -29 -136 -68 -136 q 49 -131 9 -136 q 116 -122 88 -127 q 125 -139 117 -133 q 142 -147 133 -145 q 160 -150 152 -150 q 177 -147 170 -150 q 211 -108 191 -140 q 254 -40 231 -76 l 519 491 "},"А":{"x_min":53,"x_max":1575.515625,"ha":1554,"o":"m 1494 458 q 1484 475 1484 465 q 1489 484 1481 484 q 1496 481 1493 484 q 1504 475 1500 478 q 1574 385 1556 429 q 1533 347 1582 364 q 1480 345 1518 340 q 1378 363 1442 350 q 1354 222 1362 283 q 1346 114 1346 161 q 1356 36 1346 65 q 1360 32 1356 35 q 1371 27 1365 29 q 1380 21 1376 24 q 1385 17 1385 18 q 1357 -4 1382 -4 q 1346 1 1347 -4 q 1327 163 1327 47 q 1327 257 1327 206 q 1337 369 1327 308 q 1179 403 1263 385 q 1003 443 1096 421 q 856 304 936 372 q 680 168 776 237 q 236 -19 412 -19 q 100 30 148 -19 q 53 167 53 80 q 61 246 53 205 q 89 332 69 288 q 307 533 153 495 q 377 545 339 542 q 462 549 415 549 q 1001 478 674 549 q 1226 736 1082 563 q 1367 910 1306 832 q 1468 1051 1428 988 q 1486 1058 1475 1058 q 1539 1038 1510 1058 q 1566 1009 1568 1019 q 1503 818 1529 899 q 1458 681 1477 736 q 1380 383 1397 475 q 1496 363 1451 363 q 1541 385 1541 363 q 1494 458 1541 418 m 300 502 q 188 443 234 487 q 112 325 141 399 q 86 185 86 256 q 122 62 86 108 q 172 22 143 36 q 241 9 201 9 q 669 186 421 9 q 972 449 824 299 q 457 516 703 516 q 369 512 408 516 q 300 502 330 509 m 1029 470 q 1187 426 1108 446 q 1343 392 1265 407 q 1486 946 1360 560 q 1489 964 1489 960 q 1476 987 1489 987 q 1465 983 1469 987 q 1454 973 1461 980 q 1243 707 1348 832 q 1029 470 1137 582 "},"8":{"x_min":50,"x_max":908,"ha":811,"o":"m 671 218 q 652 290 667 249 q 614 381 637 331 q 542 515 593 427 q 908 769 908 727 q 903 775 908 775 q 876 758 896 775 q 812 706 852 735 q 713 641 771 677 q 609 580 655 605 q 530 540 563 555 q 505 640 505 594 q 569 761 505 712 q 617 782 588 776 q 669 789 645 789 q 740 768 711 789 q 757 756 748 762 q 774 744 766 749 q 781 741 777 742 q 788 740 784 740 q 798 768 801 740 q 766 801 801 787 q 705 814 736 818 q 639 807 672 814 q 569 786 606 801 q 456 713 492 758 q 433 644 433 687 q 473 512 433 588 q 332 425 389 462 q 240 365 274 388 q 126 268 169 315 q 65 179 83 220 q 50 98 50 137 q 65 23 50 55 q 109 -32 81 -9 q 174 -67 137 -55 q 255 -79 212 -79 q 530 16 390 -79 q 671 218 671 118 m 116 169 q 484 483 192 323 q 533 404 515 434 q 559 361 552 373 q 592 281 582 318 q 602 211 602 244 q 454 -8 602 75 q 244 -62 329 -76 q 97 90 97 -37 q 116 169 97 133 "},"R":{"x_min":40,"x_max":1319,"ha":1139,"o":"m 632 300 q 659 330 632 330 q 674 323 667 330 q 706 308 680 317 q 800 315 749 308 q 913 339 850 323 q 1120 427 1036 375 q 1266 662 1266 516 q 1145 905 1266 801 q 875 1039 1050 989 q 514 1090 705 1090 q 348 1078 427 1090 q 196 1046 269 1067 q 61 896 61 1005 q 80 813 61 856 q 101 769 91 791 q 96 768 101 768 q 81 779 92 768 q 40 893 40 824 q 189 1066 40 1018 q 524 1114 337 1114 q 889 1066 717 1114 q 1170 938 1069 1018 q 1319 677 1319 823 q 1132 407 1319 511 q 946 330 1060 365 q 824 300 883 311 q 710 289 766 289 q 703 269 701 289 q 762 92 715 204 q 857 -71 813 -27 q 946 -119 904 -119 q 982 -111 964 -119 q 991 -109 988 -110 q 997 -109 995 -109 q 1002 -113 1003 -111 q 991 -123 1000 -119 q 934 -138 964 -138 q 830 -92 889 -138 q 711 95 790 -60 q 632 300 632 250 m 874 790 q 748 602 811 695 q 624 414 685 509 q 481 173 526 264 q 440 45 436 81 q 415 31 441 31 q 385 48 390 31 q 831 773 365 114 q 838 806 846 788 q 835 813 835 812 q 846 826 835 826 q 860 819 853 826 q 874 790 881 797 "},"o":{"x_min":28,"x_max":616,"ha":516,"o":"m 90 -23 q 69 -21 80 -24 q 49 -10 58 -17 q 34 5 40 -3 q 28 26 28 15 q 212 367 28 142 q 209 379 217 376 q 184 396 197 386 q 172 414 172 405 q 176 425 172 418 q 212 433 180 433 q 265 433 263 433 q 280 439 270 433 q 341 470 311 470 q 404 445 364 470 q 409 442 407 443 q 414 436 411 440 q 491 436 446 436 q 595 436 536 436 q 616 430 616 433 q 595 420 616 420 q 539 403 552 420 q 539 394 536 399 q 540 386 540 390 q 541 379 541 382 q 499 266 541 326 q 373 135 457 206 q 90 -23 212 -5 m 69 50 q 61 19 61 35 q 105 -5 61 -13 q 332 131 199 10 q 492 356 471 254 q 439 404 502 397 q 376 405 405 408 q 322 392 347 401 q 298 379 319 393 q 69 50 150 242 "},"5":{"x_min":10,"x_max":846,"ha":667,"o":"m 564 106 q 605 209 605 154 q 563 302 605 265 q 503 345 539 324 q 418 386 467 365 q 371 405 407 391 q 271 443 335 419 q 265 475 250 448 q 414 653 314 558 q 610 653 510 653 q 814 653 710 653 q 846 675 846 653 q 832 685 846 685 q 667 685 739 685 q 547 685 596 685 q 531 694 538 689 q 520 701 524 698 q 477 716 493 712 q 454 721 461 721 q 424 707 433 721 q 339 602 385 661 q 240 468 293 543 q 209 406 209 423 q 224 387 209 393 q 514 258 438 333 q 545 183 545 227 q 475 56 545 101 q 264 7 393 7 q 76 65 128 7 q 60 72 72 72 q 26 59 42 72 q 10 31 10 47 q 79 -18 10 2 q 221 -39 146 -39 q 564 106 438 -39 "},"õ":{"x_min":28,"x_max":616,"ha":516,"o":"m 89 -23 q 373 135 210 -5 q 499 266 457 206 q 541 379 541 326 q 540 386 541 382 q 539 394 540 390 q 539 403 536 399 q 595 420 552 420 q 616 430 616 420 q 595 436 616 433 q 491 436 536 436 q 414 436 446 436 q 409 442 411 440 q 404 445 407 443 q 341 470 364 470 q 280 439 311 470 q 265 433 270 433 q 212 433 263 433 q 176 425 180 433 q 172 414 172 418 q 184 396 172 405 q 209 379 197 386 q 212 367 217 376 q 28 26 28 142 q 34 5 28 15 q 49 -10 40 -3 q 69 -21 58 -17 q 89 -23 80 -24 m 69 50 q 298 379 149 242 q 322 392 319 393 q 376 405 347 401 q 439 404 405 408 q 492 356 502 397 q 332 131 471 254 q 105 -5 199 10 q 61 19 61 -13 q 69 50 61 35 m 265 607 q 302 628 280 619 q 347 637 323 637 q 380 629 361 637 q 421 613 400 621 q 461 597 442 605 q 495 590 481 590 q 542 609 520 590 q 578 642 564 628 q 584 660 589 656 q 566 653 579 664 q 539 634 552 639 q 495 630 527 630 q 460 637 481 630 q 419 653 440 645 q 379 669 398 661 q 347 677 359 677 q 323 670 336 677 q 298 655 311 664 q 275 636 286 646 q 258 620 265 627 q 248 600 247 606 q 265 607 250 595 "},",":{"x_min":12,"x_max":186,"ha":247,"o":"m 30 -158 q 184 24 159 -50 q 186 35 186 27 q 177 82 186 57 q 158 110 169 107 q 120 92 148 113 q 98 62 92 71 q 112 28 108 42 q 116 3 117 14 q 17 -142 105 -81 q 12 -151 12 -147 q 21 -163 12 -163 q 30 -158 27 -163 "},"d":{"x_min":12,"x_max":2197,"ha":601,"o":"m 560 472 q 518 482 537 479 q 484 486 499 486 q 454 482 469 486 q 427 474 440 479 q 176 294 323 433 q 12 46 12 139 q 63 -1 12 -1 q 77 1 68 -1 q 305 164 166 37 q 413 267 366 216 q 496 362 460 318 q 505 368 501 368 q 512 344 520 368 q 432 51 432 132 q 436 15 432 32 q 448 -12 441 -1 q 478 -20 463 -28 q 490 -10 484 -19 q 487 0 494 -2 q 474 2 480 1 q 463 4 469 3 q 454 19 454 14 q 584 419 454 165 q 645 533 614 478 q 706 641 675 588 q 753 641 729 641 q 803 641 777 641 q 1896 901 1338 641 q 2126 1074 2046 971 q 2197 1268 2197 1165 q 2083 1500 2197 1402 q 1785 1600 1962 1600 q 1570 1561 1678 1600 q 927 1041 1245 1448 q 860 952 895 1001 q 785 843 825 902 l 782 843 q 578 740 645 813 q 569 716 569 730 q 584 674 569 694 q 618 651 599 654 q 638 647 628 649 q 660 645 649 646 q 611 561 636 604 q 560 472 586 518 m 1578 1544 q 1777 1585 1674 1585 q 2049 1501 1932 1585 q 2166 1301 2166 1422 q 1877 948 2166 1115 q 800 660 1379 660 q 757 660 777 660 q 718 660 738 660 q 1578 1544 1127 1352 m 100 121 q 244 316 137 209 q 342 401 298 369 q 421 441 385 433 q 458 446 439 446 q 508 413 508 446 q 491 377 508 398 q 319 202 406 279 q 139 66 231 126 q 117 60 128 60 q 94 90 94 60 q 100 121 94 107 m 621 672 q 591 700 591 676 q 600 725 591 715 q 672 786 629 759 q 777 829 716 812 q 727 750 753 791 q 674 665 702 709 q 645 668 659 666 q 621 672 632 669 "},"\"":{"x_min":285,"x_max":596,"ha":400,"o":"m 303 567 q 444 759 392 692 q 449 768 449 764 q 417 795 449 795 q 397 784 403 795 l 286 577 q 285 570 285 575 q 291 563 285 565 q 303 567 298 560 m 449 563 q 528 672 493 625 q 591 753 564 720 q 596 764 596 761 q 564 791 596 791 q 544 779 551 791 l 432 571 q 431 565 431 570 q 439 558 431 560 q 449 563 443 556 "},"ê":{"x_min":14,"x_max":641.28125,"ha":469,"o":"m 637 410 q 638 423 644 421 q 626 415 633 426 q 581 383 611 400 q 522 362 552 365 q 469 356 499 356 q 403 356 439 356 q 329 356 368 356 q 254 356 291 356 q 375 395 322 365 q 448 468 429 425 q 460 516 460 488 q 447 565 460 544 q 415 598 435 587 q 368 599 395 609 q 259 526 320 579 q 144 403 198 474 q 52 248 90 331 q 14 81 14 165 q 27 24 14 51 q 61 -20 41 -1 q 105 -50 81 -40 q 150 -56 129 -61 q 201 -41 175 -52 q 252 -16 227 -30 q 297 12 276 -2 q 333 40 318 27 q 339 52 344 47 q 322 50 333 58 q 281 25 304 37 q 234 3 258 13 q 184 -14 209 -6 q 137 -25 159 -22 q 103 -21 119 -25 q 74 -6 87 -18 q 53 27 61 5 q 46 82 46 48 q 57 153 46 118 q 83 219 68 188 q 115 279 98 251 q 148 332 133 308 q 244 332 190 332 q 354 332 300 332 q 453 332 408 332 q 522 336 498 332 q 593 368 562 343 q 637 410 624 392 m 416 480 q 372 430 399 452 q 309 390 344 407 q 238 364 275 374 q 164 354 200 354 q 260 463 209 411 q 364 548 311 515 q 398 561 383 561 q 423 551 415 561 q 432 523 432 541 q 416 480 432 505 m 365 740 q 407 719 372 743 q 430 702 418 711 q 454 684 443 694 q 461 681 458 680 q 468 687 468 684 q 462 695 468 687 q 368 784 375 780 q 314 751 365 786 q 261 716 282 729 q 232 699 240 704 q 228 688 228 692 q 239 687 228 680 q 365 740 315 727 "},"„":{"x_min":28,"x_max":356.734375,"ha":382,"o":"m 213 -81 q 355 87 330 18 q 351 133 359 100 q 331 166 342 164 q 295 150 322 169 q 276 122 269 130 q 291 69 292 86 q 201 -66 284 -9 q 197 -76 197 -73 q 205 -86 197 -86 q 213 -81 210 -86 m 44 -81 q 185 87 160 18 q 181 133 190 100 q 162 166 173 164 q 126 150 152 169 q 106 122 100 130 q 122 69 123 86 q 32 -66 115 -9 q 28 -76 28 -73 q 36 -86 28 -86 q 44 -81 41 -86 "},"ч":{"x_min":-15,"x_max":463.75,"ha":456,"o":"m 333 435 q 290 464 316 450 q 232 485 264 478 q 167 492 201 492 q 101 475 133 492 q 51 436 79 461 q 0 362 23 411 q -15 347 -15 329 q -11 367 -13 357 q -2 390 -9 378 q 21 432 7 410 q 51 478 36 454 q 110 539 85 526 q 178 555 143 560 q 244 532 212 550 q 306 492 276 515 q 359 457 336 469 q 388 489 373 472 q 416 517 402 505 q 441 532 430 528 q 459 529 452 537 q 461 492 466 511 q 441 458 455 473 q 409 446 432 455 q 364 405 387 437 q 270 269 305 323 q 215 180 235 214 q 188 131 196 147 q 179 111 180 115 q 167 48 164 69 q 190 24 171 27 q 239 33 210 21 q 305 71 269 46 q 377 130 340 96 q 446 208 414 165 q 458 221 457 223 q 457 211 459 219 q 450 192 455 203 q 446 180 446 182 q 327 61 386 105 q 221 4 268 16 q 147 9 175 -8 q 124 75 119 26 q 139 131 124 97 q 178 203 154 165 q 227 280 201 240 q 275 351 253 319 q 314 406 298 383 q 333 435 330 429 "},"Â":{"x_min":68,"x_max":1501,"ha":1496,"o":"m 1273 479 q 1285 446 1277 468 q 1301 397 1294 424 q 1312 346 1309 371 q 1310 306 1316 321 q 1292 289 1306 296 q 1262 279 1278 283 q 1228 276 1245 276 q 1203 276 1212 276 q 1184 218 1197 263 q 1159 113 1170 173 q 1148 -7 1148 54 q 1154 -117 1148 -70 q 1153 -136 1159 -134 q 1142 -125 1148 -138 q 1126 -10 1126 -73 q 1133 109 1126 52 q 1150 212 1141 166 q 1164 278 1160 257 q 1114 287 1149 280 q 1041 302 1080 293 q 967 318 1002 310 q 913 329 931 325 q 877 287 905 320 q 806 211 849 255 q 708 118 763 167 q 588 28 652 69 q 456 -41 524 -13 q 317 -69 387 -69 q 216 -50 262 -69 q 137 0 170 -31 q 86 76 104 33 q 68 163 68 118 q 88 253 68 208 q 155 335 109 298 q 248 386 194 367 q 366 412 302 404 q 499 420 430 420 q 641 412 570 420 q 780 392 712 404 q 908 367 848 380 q 971 444 935 396 q 1049 549 1008 492 q 1135 671 1091 607 q 1219 798 1178 735 q 1297 920 1260 861 q 1362 1024 1334 978 q 1378 1038 1367 1036 q 1401 1033 1390 1039 q 1420 1013 1412 1027 q 1429 979 1429 999 q 1435 969 1429 974 q 1449 959 1442 964 q 1458 946 1455 953 q 1458 931 1462 939 q 1399 802 1429 872 q 1344 667 1370 732 q 1300 551 1319 603 q 1273 479 1281 500 m 165 315 q 115 257 131 293 q 100 181 100 222 q 114 100 100 141 q 156 28 129 60 q 224 -24 184 -3 q 316 -45 265 -45 q 488 -4 404 -45 q 648 95 573 36 q 783 219 723 153 q 883 335 844 285 q 725 375 817 355 q 532 396 632 396 q 335 380 432 396 q 165 315 239 364 m 941 361 q 986 349 953 357 q 1055 333 1019 340 q 1124 319 1091 325 q 1173 311 1157 313 q 1217 460 1191 383 q 1270 615 1242 537 q 1326 765 1298 692 q 1380 906 1355 839 q 1385 934 1387 922 q 1379 952 1384 946 q 1366 957 1374 959 q 1349 943 1358 956 q 1289 850 1326 904 q 1212 736 1253 796 q 1128 615 1171 676 q 1048 503 1085 554 q 982 413 1010 451 q 941 361 953 375 m 1399 1174 q 1344 1152 1376 1167 q 1273 1114 1312 1136 q 1264 1114 1264 1104 q 1264 1120 1264 1118 q 1268 1128 1265 1122 q 1296 1146 1276 1132 q 1348 1186 1316 1160 q 1402 1224 1401 1225 q 1428 1198 1405 1223 q 1496 1121 1452 1173 q 1501 1114 1499 1118 q 1499 1109 1501 1110 q 1495 1106 1498 1109 q 1487 1110 1492 1104 q 1463 1130 1476 1121 q 1440 1150 1451 1139 q 1399 1174 1408 1175 m 1288 325 q 1294 349 1294 333 q 1290 385 1294 365 q 1280 424 1287 404 q 1266 461 1273 445 q 1254 427 1262 449 q 1238 381 1247 405 q 1224 336 1230 357 q 1215 306 1217 316 q 1253 307 1228 304 q 1288 325 1278 310 "},"Í":{"x_min":-124,"x_max":938.84375,"ha":881,"o":"m -78 154 q -61 169 -65 172 q -64 146 -57 165 q -92 14 -85 85 q -88 -117 -100 -56 q -43 -218 -76 -177 q 49 -259 -9 -259 q 141 -225 95 -259 q 228 -147 187 -191 q 300 -55 269 -102 q 348 19 332 -8 q 395 109 366 51 q 457 240 423 167 q 525 396 490 313 q 594 564 561 479 q 655 729 627 649 q 701 878 683 810 q 636 825 673 857 q 559 755 598 793 q 484 672 520 717 q 418 581 447 628 q 380 506 400 549 q 357 422 361 464 q 346 398 354 395 q 339 422 339 401 q 357 514 344 463 q 393 602 369 565 q 460 693 419 649 q 545 775 501 736 q 634 849 590 814 q 712 913 679 884 q 729 956 720 934 q 746 998 737 978 q 765 1034 755 1018 q 786 1054 775 1049 q 800 1054 795 1059 q 805 1038 804 1049 q 804 1016 807 1028 q 797 993 801 1003 q 773 949 786 971 q 743 907 761 927 q 716 815 736 879 q 666 667 695 751 q 601 486 637 582 q 526 296 565 389 q 448 122 487 203 q 373 -11 409 41 q 325 -81 355 -37 q 254 -167 295 -125 q 162 -243 213 -210 q 49 -276 110 -276 q -27 -254 5 -276 q -82 -195 -60 -233 q -114 -111 -104 -158 q -124 -15 -124 -63 q -112 78 -124 33 q -78 154 -100 123 m 695 1159 q 682 1165 686 1156 q 687 1178 677 1174 q 741 1207 711 1191 q 802 1241 772 1224 q 861 1273 833 1257 q 908 1299 889 1289 q 925 1297 916 1303 q 936 1280 933 1291 q 937 1260 940 1270 q 923 1246 934 1250 q 875 1227 904 1238 q 816 1205 847 1217 q 752 1182 784 1193 q 695 1159 720 1170 "},"´":{"x_min":487.796875,"x_max":751,"ha":369,"o":"m 502 745 q 599 780 541 761 q 737 824 657 799 q 751 844 751 829 q 728 875 751 875 q 619 823 720 875 q 527 778 557 793 q 494 762 496 763 q 488 749 485 758 q 502 745 492 743 "},"Ú":{"x_min":49,"x_max":1128,"ha":1021,"o":"m 1127 923 q 1127 925 1127 924 q 1128 930 1128 927 q 1113 956 1128 944 q 1085 969 1098 969 l 1080 969 q 1056 955 1065 966 q 1037 928 1047 943 q 1030 916 1031 917 q 913 765 981 850 q 768 586 844 679 q 612 401 692 494 q 457 228 532 308 q 316 87 382 148 q 202 -1 250 26 q 132 -28 162 -28 q 85 35 85 -28 q 86 58 85 46 q 90 83 87 70 q 135 228 103 147 q 211 396 168 309 q 305 571 254 483 q 404 737 355 659 q 496 880 454 816 q 568 985 538 945 q 575 1004 575 997 q 563 1021 575 1015 q 537 1028 552 1028 q 513 1023 526 1028 q 493 1005 500 1018 q 416 885 461 957 q 323 728 372 813 q 225 548 274 642 q 138 365 177 455 q 74 196 99 275 q 49 59 49 117 l 49 55 q 59 14 49 34 q 87 -21 70 -6 q 123 -46 103 -36 q 163 -56 143 -56 q 187 -51 176 -56 q 295 25 232 -29 q 430 153 358 80 q 578 311 503 227 q 721 478 653 395 q 846 634 789 560 q 936 758 903 708 q 971 787 954 787 q 988 766 988 787 q 979 735 988 752 l 978 735 q 897 571 942 666 q 812 379 851 476 q 746 194 772 281 q 720 52 720 106 q 720 44 720 48 q 721 37 721 41 q 727 14 722 27 q 741 -11 733 0 q 757 -32 748 -24 q 775 -41 766 -41 l 777 -41 q 820 6 820 -7 q 815 8 820 8 q 798 3 807 8 q 766 -9 775 -9 q 749 14 749 -9 q 750 37 749 25 q 754 63 751 48 q 756 71 756 67 q 757 80 756 76 q 782 184 762 123 q 832 316 803 245 q 897 464 861 387 q 970 616 933 541 q 1043 760 1007 691 q 1107 885 1079 830 q 1117 905 1113 896 q 1127 923 1122 914 m 779 1154 q 837 1174 805 1163 q 902 1196 869 1185 q 964 1216 934 1206 q 1015 1233 994 1226 l 1016 1233 q 1025 1245 1025 1234 q 1019 1263 1025 1255 q 1007 1271 1014 1271 l 1004 1269 q 966 1251 989 1262 q 918 1227 943 1240 q 844 1188 882 1207 q 777 1156 807 1168 q 775 1155 776 1155 q 775 1155 775 1155 q 777 1153 775 1153 q 779 1153 779 1153 q 782 1154 780 1154 l 779 1154 "},"Ý":{"x_min":-163.921875,"x_max":1034.828125,"ha":850,"o":"m 1032 855 q 983 767 1015 820 q 909 650 951 713 q 818 517 867 587 q 718 378 769 448 q 617 244 667 309 q 523 127 567 180 q 361 -59 446 34 q 195 -230 276 -153 q 42 -360 114 -307 q -81 -424 -30 -413 q -108 -419 -92 -426 q -135 -399 -123 -411 q -156 -370 -148 -386 q -163 -338 -165 -354 q -151 -294 -160 -317 q -130 -251 -141 -272 q -106 -212 -119 -231 q -84 -181 -94 -194 q -69 -170 -73 -168 q -72 -187 -65 -172 q -83 -219 -76 -200 q -98 -261 -91 -239 q -111 -306 -105 -283 q -122 -349 -117 -328 q -112 -387 -129 -376 q -60 -383 -95 -397 q 23 -335 -23 -368 q 118 -259 69 -303 q 217 -165 167 -215 q 313 -62 267 -114 q 400 35 360 -11 q 470 120 440 82 q 459 238 470 167 q 431 391 449 309 q 386 559 413 473 q 329 722 360 645 q 262 861 298 799 q 190 956 227 923 q 86 986 137 1002 q 6 905 35 969 q -13 831 -8 869 q -19 752 -19 792 q -26 729 -19 729 q -42 748 -36 729 q -49 780 -45 762 q -54 818 -54 798 q -51 858 -54 838 q -42 897 -49 879 q 3 958 -27 928 q 70 1006 33 988 q 146 1025 107 1025 q 218 1000 186 1025 q 299 908 261 966 q 369 777 337 850 q 428 624 401 705 q 474 464 454 543 q 508 317 494 386 q 531 198 522 248 q 615 305 568 241 q 708 435 662 369 q 791 564 753 502 q 849 665 829 626 q 849 695 849 680 q 860 727 849 710 q 889 769 872 745 q 926 817 907 792 q 961 864 944 841 q 986 904 978 887 q 1005 917 994 919 q 1023 904 1015 915 q 1033 879 1030 894 q 1032 855 1036 865 m 574 1086 q 560 1090 564 1081 q 565 1104 556 1100 q 621 1132 590 1115 q 683 1168 651 1150 q 742 1204 714 1187 q 790 1230 771 1220 q 807 1227 799 1234 q 819 1210 815 1220 q 820 1189 822 1200 q 807 1175 818 1179 q 757 1156 786 1168 q 696 1134 728 1145 q 632 1109 664 1122 q 574 1086 600 1097 "},"И":{"x_min":40,"x_max":1492.421875,"ha":1335,"o":"m 1151 1 q 1157 -54 1157 -11 q 1140 -74 1154 -74 q 1125 -50 1127 -74 q 1134 39 1125 0 q 1254 336 1155 120 q 1333 512 1307 454 q 1361 573 1359 571 q 1359 610 1373 610 q 1341 598 1351 610 q 972 283 1209 475 q 710 87 815 158 q 552 0 606 16 q 535 -3 544 -3 q 503 4 519 -3 q 475 26 487 12 q 457 58 463 40 q 455 95 452 76 q 573 368 470 195 q 661 514 617 442 q 749 661 705 586 q 818 806 796 741 q 841 915 841 871 q 810 997 841 957 q 717 1040 777 1040 q 361 925 552 1040 q 202 805 268 870 q 92 665 135 739 q 74 616 80 641 q 69 564 69 591 q 154 418 69 475 q 166 404 166 412 q 157 399 166 399 q 142 404 152 399 q 81 460 105 433 q 49 512 57 486 q 40 579 40 543 q 63 680 40 632 q 320 944 135 830 q 717 1069 520 1069 q 821 1007 768 1069 q 872 894 872 947 q 785 627 872 787 q 743 553 782 622 q 627 348 705 483 q 551 202 580 266 q 512 92 521 138 q 508 68 508 80 q 546 30 508 30 q 588 41 567 30 q 750 139 648 67 q 997 331 852 210 q 1179 484 1088 407 q 1361 640 1270 561 q 1400 679 1380 655 q 1447 731 1419 702 q 1465 740 1452 740 q 1486 729 1477 740 q 1491 705 1494 719 q 1485 680 1488 694 q 1476 651 1482 666 q 1402 535 1445 611 q 1301 347 1359 459 q 1202 138 1238 223 q 1151 1 1165 52 "},"р":{"x_min":-1319,"x_max":696.96875,"ha":580,"o":"m 57 -106 q 78 -118 78 -109 q 57 -127 78 -131 q -31 -124 19 -124 q -53 -177 -42 -150 q -76 -233 -65 -205 q -419 -908 -244 -651 q -774 -1264 -595 -1165 q -964 -1316 -873 -1316 q -1216 -1195 -1112 -1316 q -1293 -1060 -1267 -1132 q -1319 -903 -1319 -989 q -1097 -463 -1319 -654 q -844 -292 -985 -365 q -532 -173 -703 -219 q -294 -122 -410 -141 q -59 -104 -177 -104 q -36 -57 -46 -78 q -16 -17 -26 -37 q 4 24 -6 2 q 32 74 15 46 q 91 182 62 127 q 150 291 120 236 q 127 332 123 316 q 200 383 135 356 q 288 516 235 436 q 413 705 340 597 q 462 733 419 716 q 481 729 481 738 q 476 722 481 723 q 464 708 472 720 q 374 573 422 647 q 274 408 326 499 q 375 440 331 430 q 456 450 419 450 q 556 358 556 450 q 491 196 556 285 q 686 241 661 241 q 696 242 692 243 q 696 238 697 239 q 686 232 692 234 q 578 200 637 218 q 447 157 518 181 q 152 28 331 49 q 123 55 123 25 q 128 69 123 63 q 221 107 146 80 q 429 178 296 134 q 500 346 500 259 q 416 422 500 422 q 344 408 385 422 q 250 366 303 394 q 194 282 224 321 q 130 193 164 243 q 57 73 96 143 q -24 -103 18 3 q 57 -106 19 -103 m -110 -227 q -91 -181 -102 -206 q -66 -125 -80 -155 q -278 -142 -171 -125 q -498 -193 -384 -159 q -799 -313 -661 -241 q -1049 -484 -936 -386 q -1302 -933 -1302 -700 q -1195 -1184 -1302 -1080 q -1084 -1260 -1145 -1236 q -954 -1285 -1024 -1285 q -786 -1241 -864 -1285 q -469 -921 -630 -1157 q -349 -730 -409 -834 q -232 -500 -289 -626 q -172 -364 -202 -433 q -110 -227 -142 -295 "},"т":{"x_min":10.125,"x_max":1575,"ha":861,"o":"m 16 1 q 10 7 12 0 q 10 24 9 18 q 26 56 12 34 q 76 140 45 93 q 146 245 106 187 q 219 344 187 303 q 273 406 251 384 q 296 419 281 413 q 319 421 312 426 q 313 409 324 417 q 256 347 303 403 q 160 209 202 284 q 158 177 142 177 q 173 186 165 177 q 376 345 256 271 q 503 387 464 399 q 517 366 517 383 q 500 316 517 352 q 454 220 484 280 q 446 197 446 208 q 458 182 446 182 q 472 187 466 182 q 653 335 569 274 q 808 428 737 395 q 823 433 816 433 q 841 403 847 433 q 829 390 836 398 q 815 373 823 383 q 750 243 787 312 q 664 95 713 174 q 651 62 651 75 q 660 51 651 51 q 671 53 666 51 q 685 59 677 56 q 943 156 788 106 q 1141 210 1051 190 q 1304 230 1230 230 q 1412 222 1363 230 q 1498 193 1461 215 q 1575 86 1575 150 q 1569 51 1575 67 q 1534 13 1559 23 q 1516 7 1523 7 q 1511 11 1511 7 q 1521 23 1511 16 q 1544 59 1531 30 q 1554 97 1554 82 q 1504 179 1554 146 q 1358 215 1451 215 q 1334 215 1347 215 q 1309 213 1322 215 q 904 120 1105 192 q 550 -62 691 45 q 537 -67 543 -67 q 521 -51 521 -67 q 525 -41 521 -46 l 558 -8 q 559 24 554 5 q 722 292 673 164 q 732 330 732 312 q 712 354 732 354 q 684 341 701 354 q 417 91 476 174 q 407 82 415 88 q 384 71 399 77 q 355 58 366 63 q 337 49 344 53 q 319 55 328 45 q 316 71 310 64 q 387 189 358 132 q 434 298 417 245 q 440 324 440 310 q 419 350 440 350 q 401 345 413 350 q 362 321 387 338 q 301 271 337 303 q 162 138 220 205 q 127 96 146 121 q 84 35 108 70 q 51 18 80 29 q 27 8 35 12 q 16 1 19 4 "},"П":{"x_min":33,"x_max":1357,"ha":1261,"o":"m 762 1018 q 858 960 823 1018 q 890 842 890 916 q 883 779 890 811 q 800 575 863 704 q 625 260 737 446 q 616 235 616 245 q 621 230 616 230 q 643 252 631 230 q 769 399 700 324 q 921 555 838 474 q 1268 795 1146 776 q 1302 789 1288 799 q 1331 761 1316 779 q 1354 720 1351 738 q 1357 681 1357 701 q 1356 665 1357 673 q 1352 651 1355 656 q 1252 468 1302 557 q 1153 285 1202 378 q 1090 160 1128 239 q 1010 -13 1052 81 q 928 -206 969 -107 q 857 -392 887 -306 q 812 -541 827 -478 q 809 -627 798 -604 q 809 -641 812 -634 q 807 -656 807 -649 q 829 -698 807 -698 q 1031 -554 887 -698 q 1052 -538 1048 -538 q 1055 -543 1055 -540 q 1042 -567 1055 -549 q 951 -661 1018 -606 q 839 -720 877 -720 q 813 -710 824 -720 q 793 -686 802 -700 q 781 -656 785 -672 q 777 -624 777 -639 q 794 -538 777 -601 q 839 -390 811 -475 q 902 -206 867 -304 q 972 -16 937 -108 q 1040 153 1008 76 q 1094 277 1072 231 l 1296 685 q 1312 738 1312 715 q 1280 768 1312 768 q 1230 755 1259 768 q 931 540 1106 702 q 792 397 860 472 q 656 235 724 322 q 561 112 599 163 q 502 26 523 60 q 467 4 487 4 q 450 19 450 4 q 452 28 450 23 q 456 40 454 33 q 854 787 794 595 q 864 831 861 810 q 868 872 868 852 q 766 990 868 990 q 497 899 670 990 q 335 792 409 848 q 198 669 262 736 q 59 421 59 526 q 95 377 59 384 q 137 373 115 373 q 178 377 159 373 q 195 371 195 379 q 178 360 195 364 q 96 352 129 345 q 33 456 33 364 q 164 684 33 545 q 304 812 230 755 q 461 919 378 870 q 627 993 552 969 q 762 1018 702 1018 "},"Ö":{"x_min":19,"x_max":1188,"ha":1210,"o":"m 35 442 q 23 379 28 410 q 19 319 19 349 q 133 75 19 170 q 373 -6 231 -6 q 699 66 527 -6 q 870 165 792 109 q 1010 294 948 221 q 1186 664 1156 462 q 1188 680 1188 671 q 1188 699 1188 689 q 1107 938 1188 822 q 849 1104 1010 1079 q 745 1113 797 1113 q 483 1062 608 1113 q 269 911 349 1005 q 197 745 197 826 q 201 705 197 725 q 35 442 73 577 m 901 989 q 862 993 881 991 q 821 996 842 996 q 480 906 666 996 q 334 824 398 867 q 220 731 270 780 q 218 759 218 745 q 286 899 218 827 q 485 1027 362 979 q 751 1082 616 1082 q 792 1082 771 1082 q 831 1077 812 1082 q 980 1031 916 1063 q 1088 941 1043 998 q 1166 708 1166 842 q 1034 377 1166 539 q 723 130 913 227 q 373 37 537 37 q 130 114 217 37 q 44 323 44 191 q 47 381 44 351 q 59 441 50 410 q 120 574 76 496 q 165 638 144 611 q 205 682 185 664 q 270 598 220 636 q 324 568 297 579 q 383 558 351 558 q 404 567 404 553 q 388 577 404 577 q 280 615 334 577 q 224 702 230 656 q 453 870 279 780 q 821 978 654 978 q 899 969 862 978 q 915 979 915 965 q 901 989 915 987 m 747 1257 q 747 1272 747 1261 q 745 1295 747 1283 q 742 1317 744 1307 q 735 1329 740 1326 q 724 1332 733 1333 q 705 1326 716 1331 q 686 1317 695 1322 q 675 1307 678 1311 q 673 1293 673 1303 q 674 1272 673 1283 q 678 1249 675 1260 q 684 1235 681 1239 q 699 1232 688 1231 q 720 1238 710 1233 q 738 1247 730 1242 q 747 1257 747 1253 m 606 1258 q 606 1273 606 1262 q 606 1296 606 1285 q 603 1318 606 1308 q 598 1330 601 1328 q 586 1333 594 1335 q 567 1328 577 1332 q 548 1318 558 1324 q 536 1308 539 1312 q 534 1294 534 1304 q 535 1273 534 1285 q 539 1251 536 1261 q 545 1236 542 1240 q 558 1233 547 1232 q 579 1239 568 1235 q 597 1248 589 1243 q 606 1258 606 1254 "},"z":{"x_min":-1297,"x_max":838,"ha":348,"o":"m 180 164 q 172 172 172 162 q 176 184 172 182 q 209 232 187 201 q 254 298 232 262 q 294 369 276 333 q 315 436 312 405 q 312 466 316 450 q 300 495 308 482 q 282 515 293 508 q 262 521 272 522 q 218 496 242 517 q 171 449 194 475 q 129 398 148 423 q 101 360 110 373 q 95 337 94 348 q 108 341 97 326 q 137 379 120 358 q 171 419 154 400 q 206 454 188 439 q 237 473 223 469 q 260 461 251 476 q 262 414 269 446 q 236 346 255 386 q 195 266 217 305 q 149 193 172 226 q 112 146 126 159 q 106 125 101 134 q 117 118 110 116 q 160 116 137 123 q 190 87 183 109 l 174 82 q -609 -146 -236 3 q -1275 -616 -1167 -366 q -1297 -714 -1297 -664 q -1128 -998 -1297 -872 q -762 -1125 -965 -1125 q 231 69 -179 -1125 q 413 94 311 94 q 642 94 515 94 q 699 94 674 94 q 744 94 725 94 q 813 45 813 94 q 730 -92 813 -17 q 717 -111 717 -104 q 719 -113 717 -113 q 739 -101 728 -113 q 829 -10 811 -44 q 835 4 832 -3 q 838 20 838 12 q 829 55 838 38 q 808 86 821 71 q 778 110 794 100 q 747 123 762 120 q 702 123 728 123 q 641 123 676 123 q 445 123 550 123 q 236 98 340 123 q 235 101 236 100 q 235 103 235 102 q 227 128 227 114 q 225 126 225 128 q 222 125 225 125 q 207 146 215 140 q 180 164 199 151 m -1242 -653 q -696 -213 -1150 -421 q 181 63 -319 -40 q 42 -290 119 -122 q -127 -609 -33 -457 q -764 -1110 -430 -1110 q -1111 -995 -960 -1110 q -1259 -741 -1259 -884 q -1254 -696 -1259 -717 q -1242 -653 -1249 -675 "},"™":{"x_min":4.359375,"x_max":1020.828125,"ha":1038,"o":"m 625 860 q 626 841 631 853 q 615 838 622 829 q 536 868 588 856 q 441 880 485 880 q 439 854 448 870 q 424 823 431 839 q 368 738 400 786 q 305 640 335 690 q 250 540 274 589 q 219 454 227 492 q 219 433 219 446 q 228 417 219 421 q 231 412 235 417 q 338 430 268 389 q 430 507 380 455 q 530 618 481 558 q 622 737 579 678 q 689 836 664 796 q 702 873 695 854 q 716 902 709 891 q 733 909 723 913 q 744 893 744 904 q 735 857 744 877 q 716 825 727 836 q 691 755 704 796 q 667 670 679 714 q 646 584 655 626 q 638 507 638 542 q 644 477 635 483 q 681 490 654 471 q 722 531 699 506 q 771 586 746 556 q 821 649 796 617 q 868 712 846 682 q 907 768 891 742 q 931 809 923 793 q 961 874 946 842 q 993 921 977 906 q 1011 922 1000 928 q 1020 904 1023 915 q 1000 858 1017 885 q 964 806 984 831 q 927 724 946 768 q 893 636 909 679 q 866 551 878 592 q 852 478 855 510 q 854 439 849 455 q 877 419 860 422 q 900 423 892 417 q 905 423 903 426 q 903 417 906 421 q 873 410 892 407 q 840 430 853 412 q 830 472 827 447 q 836 532 830 499 q 855 601 843 565 q 879 674 866 638 q 905 745 892 711 q 857 674 882 711 q 804 599 831 636 q 747 530 776 563 q 687 475 718 497 q 635 467 659 454 q 609 503 611 479 q 614 552 609 521 q 628 620 620 583 q 647 694 636 657 q 665 760 657 731 q 586 654 626 706 q 505 558 546 603 q 425 478 464 514 q 349 419 386 442 q 271 391 309 391 q 219 410 234 391 q 210 422 212 411 q 202 446 202 432 q 205 475 202 460 q 209 481 205 481 q 241 569 217 518 q 295 669 266 620 q 351 761 324 718 q 393 825 378 803 q 409 858 400 841 q 418 885 417 875 q 354 892 396 892 q 262 892 311 892 q 163 882 213 892 q 75 852 113 872 q 29 810 42 832 q 19 763 16 788 q 29 725 19 739 q 49 703 40 711 q 51 699 53 700 q 43 700 49 697 q 6 763 16 724 q 15 822 0 792 q 68 872 31 852 q 183 911 120 900 q 310 923 246 923 q 432 915 374 923 q 532 897 491 907 q 542 902 539 901 q 553 901 545 903 q 572 895 560 900 q 595 884 583 890 q 615 872 606 878 q 625 860 624 866 "},"\u000b":{"x_min":42,"x_max":143.734375,"ha":165,"o":"m 134 -147 q 121 -145 128 -134 q 106 -161 115 -152 q 86 -173 97 -169 q 65 -175 75 -177 q 47 -156 54 -172 q 42 -130 42 -148 q 42 -91 42 -112 q 47 -45 42 -69 q 60 -2 52 -22 q 72 9 67 9 q 72 -2 77 8 q 62 -36 65 -18 q 59 -72 59 -55 q 60 -104 59 -90 q 65 -126 61 -118 q 93 -139 75 -145 q 131 -105 110 -133 q 143 -104 140 -88 l 134 -147 "},"ã":{"x_min":-17,"x_max":898,"ha":613,"o":"m 49 -39 q 146 26 93 -11 q 259 116 199 63 q 367 213 320 168 q 446 298 413 258 q 452 301 449 301 q 453 285 462 301 q 407 206 430 249 q 360 112 384 163 q 300 -40 321 29 q 279 -169 279 -111 q 324 -277 279 -240 q 437 -314 369 -314 q 478 -310 458 -314 q 517 -300 498 -307 q 706 -177 592 -270 q 814 -77 768 -125 q 891 18 860 -29 q 898 33 898 27 q 896 39 898 36 q 879 25 891 39 q 699 -153 814 -60 q 506 -272 581 -248 q 409 -289 458 -289 q 301 -196 301 -289 q 301 -182 301 -189 q 302 -169 301 -176 q 347 0 314 -89 q 438 187 380 90 q 514 310 474 249 q 594 433 555 370 q 591 443 595 437 q 581 450 588 450 q 574 447 577 450 q 537 429 557 433 q 512 430 534 427 q 444 443 476 443 q 387 431 413 443 q 271 366 334 409 q 137 252 208 323 q -17 -1 -17 98 q 17 -49 -17 -49 q 49 -39 35 -49 m 72 79 q 203 273 111 170 q 369 399 303 383 q 401 404 385 404 q 447 391 430 404 q 465 363 465 379 q 460 352 465 356 q 276 152 363 234 q 111 20 189 70 q 91 14 100 14 q 66 47 66 14 q 72 79 66 62 m 244 588 q 280 608 259 599 q 324 617 301 617 q 358 609 338 617 q 399 592 378 601 q 439 576 420 584 q 473 569 459 569 q 519 589 496 569 q 555 624 541 609 q 562 642 566 637 q 544 635 557 646 q 517 615 528 619 q 473 611 505 611 q 438 618 458 611 q 398 635 419 626 q 357 651 377 643 q 324 659 338 659 q 301 652 313 659 q 276 637 288 646 q 254 618 264 627 q 235 599 244 608 q 227 580 226 587 q 244 588 228 574 "},"æ":{"x_min":-1,"x_max":965.203125,"ha":777,"o":"m 33 15 q -1 62 -1 15 q 152 316 -1 162 q 286 430 223 387 q 402 496 349 474 q 429 503 415 500 q 459 506 444 506 q 528 493 492 506 q 553 492 550 491 q 590 512 578 499 q 597 514 593 514 q 608 507 604 514 q 610 498 611 500 q 596 476 603 487 q 582 455 589 466 q 625 485 604 471 q 665 506 646 499 q 712 505 690 516 q 749 475 735 495 q 769 430 764 455 q 765 384 774 405 q 698 318 749 345 q 579 280 647 291 q 732 280 657 280 q 850 288 807 280 q 908 306 879 291 q 950 336 936 321 q 962 343 956 346 q 961 331 968 341 q 920 294 950 316 q 854 267 890 273 q 784 261 831 261 q 682 261 737 261 q 571 261 626 261 q 474 261 515 261 q 447 213 461 239 q 422 158 433 187 q 404 97 411 128 q 397 31 397 65 q 410 -18 399 1 q 436 -48 421 -37 q 470 -63 452 -60 q 506 -64 487 -66 q 600 -39 550 -58 q 683 2 650 -19 q 700 4 694 9 q 696 -8 706 0 q 662 -32 682 -19 q 620 -58 643 -46 q 571 -80 597 -71 q 521 -94 546 -90 q 432 -82 469 -103 q 376 -24 396 -62 q 357 66 357 13 q 377 177 357 119 q 408 257 392 217 q 441 328 425 298 q 379 242 418 291 q 291 148 340 194 q 185 66 243 102 q 66 19 127 30 l 33 15 m 88 143 q 82 111 82 126 q 106 78 82 78 q 127 86 116 78 q 476 416 284 186 q 481 427 481 420 q 463 455 481 442 q 416 469 445 469 q 384 463 399 469 q 219 336 320 449 q 140 236 172 285 q 88 143 108 187 m 729 395 q 740 434 742 417 q 729 460 739 451 q 703 469 719 469 q 669 457 687 469 q 574 380 621 427 q 487 280 526 332 q 561 288 524 280 q 631 313 599 297 q 690 349 664 328 q 729 395 715 371 "},"É":{"x_min":-103,"x_max":904,"ha":829,"o":"m 890 748 q 904 787 904 765 q 898 830 904 809 q 881 868 893 851 q 854 890 869 884 q 708 926 790 915 q 539 938 626 938 q 531 967 537 954 q 516 989 525 981 q 496 1000 507 997 q 473 994 484 1003 q 415 924 440 969 q 298 924 362 924 q 166 916 233 924 q 35 898 99 909 q -79 872 -28 887 q -96 860 -90 869 q -103 839 -103 850 q -97 821 -103 828 q -79 815 -91 814 q -19 824 -54 824 q 48 824 15 824 q 114 824 83 824 q 161 821 144 824 q 173 826 171 817 q 167 840 175 836 q 161 845 163 841 q 151 851 160 848 q 142 861 140 854 q 153 872 144 869 q 264 886 204 886 q 389 886 325 886 q 323 811 358 858 q 255 712 289 765 q 191 605 222 659 q 136 505 160 551 q 95 497 117 502 q 58 488 74 491 q 39 477 44 484 q 36 460 34 469 q 44 445 37 452 q 62 434 51 438 q 83 424 74 427 q 104 422 93 422 q 67 294 81 360 q 53 162 53 227 q 73 69 53 109 q 126 2 94 29 q 197 -36 158 -23 q 275 -50 236 -50 q 413 -28 344 -50 q 543 22 482 -7 q 657 88 605 52 q 745 152 709 123 q 752 168 755 159 q 737 169 748 176 q 649 119 701 147 q 536 66 597 91 q 407 23 475 40 q 271 6 339 6 q 201 13 233 6 q 145 39 169 21 q 108 90 121 58 q 95 169 95 122 q 116 316 95 244 q 169 449 138 388 q 254 466 203 457 q 365 484 305 475 q 489 493 425 493 q 614 493 554 493 q 726 490 675 493 q 812 476 777 488 q 835 475 829 470 q 838 489 841 480 q 827 507 836 498 q 805 519 817 517 q 670 533 748 533 q 507 533 591 533 q 342 524 423 533 q 194 508 260 516 q 246 597 212 544 q 319 704 279 649 q 399 811 358 759 q 473 897 440 863 q 567 900 518 900 q 664 895 616 900 q 758 883 712 891 q 841 862 804 875 q 865 836 856 855 q 862 794 873 818 q 799 718 834 746 q 720 670 763 690 q 712 652 711 662 q 729 649 713 643 q 779 670 754 658 q 827 695 805 681 q 866 722 849 708 q 890 748 883 736 m 357 1081 q 416 1102 383 1090 q 482 1125 450 1114 q 545 1146 515 1136 q 597 1163 575 1156 q 610 1176 608 1167 q 609 1195 612 1186 q 598 1211 605 1204 q 580 1213 590 1217 q 532 1188 561 1203 q 471 1156 502 1172 q 407 1123 439 1139 q 350 1096 375 1107 q 344 1083 340 1090 q 357 1081 348 1075 "},"и":{"x_min":14,"x_max":618,"ha":653,"o":"m 615 412 q 572 341 595 383 q 526 256 548 300 q 488 170 505 212 q 467 101 472 129 q 467 65 463 76 q 477 52 470 54 q 495 52 484 50 q 515 58 505 55 q 538 67 524 61 q 561 79 552 73 q 585 82 583 94 q 570 55 587 70 q 536 27 556 40 q 498 6 516 13 q 477 9 490 4 q 454 25 465 15 q 436 49 444 36 q 429 76 429 62 q 435 131 429 102 q 451 188 441 161 q 472 243 460 216 q 494 294 484 270 q 494 328 502 315 q 460 316 485 341 q 374 232 427 283 q 266 132 320 182 q 165 45 212 83 q 97 0 119 6 q 36 11 59 -12 q 14 70 14 36 q 31 144 16 102 q 69 229 46 186 q 119 318 92 273 q 174 404 146 364 q 226 477 202 444 q 269 530 251 509 q 288 542 276 539 q 308 543 299 546 q 317 531 316 540 q 306 505 319 522 q 239 415 274 466 q 172 311 204 364 q 114 208 140 258 q 79 120 88 158 q 79 47 62 63 q 131 51 97 31 q 246 139 186 84 q 365 254 306 194 q 479 370 424 313 q 574 465 533 427 q 597 473 587 477 q 612 457 606 469 q 618 432 618 445 q 615 412 618 419 "},"~":{"x_min":22,"x_max":450,"ha":476,"o":"m 24 371 l 65 401 q 106 425 85 418 q 147 433 127 433 q 241 391 170 433 q 334 353 315 353 q 380 375 354 353 q 440 442 406 398 q 447 457 444 451 q 450 470 450 463 q 444 475 450 475 q 423 461 436 475 q 387 433 408 442 q 334 424 366 424 q 297 432 320 424 q 236 461 273 440 q 147 504 169 504 q 99 479 127 504 q 34 404 70 454 q 25 387 28 394 q 22 376 22 379 q 24 371 22 371 "},"³":{"x_min":12,"x_max":324.328125,"ha":345,"o":"m 271 576 q 279 606 279 588 q 260 651 279 632 q 215 673 242 670 q 211 675 211 673 q 215 681 211 678 q 278 713 252 697 q 317 751 304 730 q 324 775 324 764 q 279 809 324 809 q 233 803 255 809 q 193 788 212 798 q 184 774 184 780 q 186 770 184 767 q 267 790 229 790 q 291 766 291 790 q 285 740 291 752 q 265 719 278 729 q 232 698 252 709 q 163 675 193 675 q 150 665 150 675 q 152 661 150 661 q 228 644 201 666 q 248 599 248 630 q 243 577 248 587 q 160 504 226 534 q 110 485 134 492 q 64 479 86 479 q 34 497 34 479 q 25 508 32 508 q 12 490 12 508 q 66 472 12 472 q 176 498 113 472 q 271 576 248 528 "},"¡":{"x_min":-160.15625,"x_max":292.734375,"ha":341,"o":"m 154 330 q 96 221 133 291 q 7 49 59 152 q -59 -78 -29 -22 q -115 -174 -90 -133 q -122 -178 -116 -176 q -135 -180 -129 -179 q -147 -182 -141 -180 q -155 -187 -154 -183 q -157 -237 -163 -203 q -147 -275 -157 -272 q -107 -273 -131 -279 q -77 -254 -83 -267 q 179 316 -1 -43 q 181 324 181 319 q 168 340 181 340 q 154 330 160 340 m 208 501 q 219 414 208 428 q 227 412 221 412 q 263 422 241 412 q 289 441 285 432 q 289 483 295 446 q 278 523 285 516 q 267 529 277 529 q 228 519 249 529 q 208 501 208 509 "},"[":{"x_min":-3,"x_max":802.234375,"ha":815,"o":"m 388 962 q 431 1030 411 998 q 465 1069 451 1062 q 500 1070 479 1073 q 527 1044 522 1068 q 593 1053 554 1050 q 672 1057 633 1057 q 743 1054 711 1057 q 791 1044 776 1052 q 802 1035 801 1041 q 798 1021 802 1029 q 788 1006 794 1013 q 782 992 783 998 q 713 1004 754 1004 q 627 999 672 1004 q 541 985 583 994 q 468 963 498 975 q 333 743 400 866 q 208 490 266 620 q 104 232 150 360 q 36 -2 59 104 q 32 -37 32 -25 q 35 -58 32 -50 q 47 -68 38 -65 q 72 -78 55 -72 q 168 -91 109 -91 q 286 -91 226 -91 q 397 -81 347 -91 q 469 -59 448 -71 q 490 -52 482 -52 q 500 -59 498 -53 q 495 -74 501 -64 q 472 -95 488 -84 q 406 -120 452 -108 q 302 -140 359 -132 q 185 -149 245 -149 q 77 -149 125 -149 q 40 -133 55 -149 q 15 -94 24 -117 q 1 -46 5 -72 q -3 3 -3 -20 q 9 91 -3 38 q 41 205 21 145 q 83 325 60 266 q 123 430 105 384 l 388 962 "},"К":{"x_min":48.5,"x_max":1497,"ha":1008,"o":"m 514 263 q 507 251 509 258 q 505 241 505 245 q 511 233 505 233 q 534 246 517 233 q 637 341 570 283 q 659 398 645 390 q 682 387 671 404 q 865 531 774 465 q 1048 655 956 597 q 1473 814 1319 814 q 1497 798 1497 810 q 1473 792 1497 785 q 1276 748 1390 792 q 1017 605 1162 705 q 699 351 916 537 q 772 149 739 233 q 830 10 805 66 q 962 -216 895 -126 q 1101 -349 1028 -306 q 1208 -380 1151 -380 q 1424 -276 1330 -380 q 1445 -264 1440 -264 q 1450 -271 1450 -264 q 1438 -290 1450 -277 q 1204 -399 1322 -399 q 1085 -371 1142 -399 q 650 310 874 -275 q 598 269 634 304 q 507 172 563 235 q 373 5 400 51 q 353 -3 368 -3 q 330 9 330 -3 q 332 17 330 15 q 429 167 370 70 q 570 409 488 263 q 799 871 753 736 q 808 917 808 891 q 728 995 808 995 q 572 967 663 1003 q 363 852 481 932 q 81 567 127 700 q 76 540 76 551 q 103 506 76 516 q 157 497 121 497 q 176 487 176 492 q 160 478 176 478 q 121 471 137 473 q 98 473 105 469 q 81 487 91 479 q 63 507 71 495 q 51 531 55 518 q 49 561 46 544 q 51 569 51 563 q 52 577 51 574 q 352 889 103 729 q 562 1001 470 968 q 720 1035 655 1035 q 812 962 778 1035 q 835 911 828 935 q 838 868 841 887 q 514 263 826 744 "},"\u001d":{"x_min":35.578125,"x_max":606.4375,"ha":547,"o":"m 598 926 q 601 961 612 946 q 569 977 589 977 q 524 958 532 977 q 517 917 517 939 q 505 886 517 903 q 403 721 465 818 q 273 515 340 624 l 164 471 q 129 451 139 461 q 122 432 119 440 q 151 431 126 422 q 201 452 176 442 q 248 474 225 462 q 164 326 204 400 q 94 187 123 253 q 48 64 64 121 q 36 -30 32 8 q 71 -91 43 -76 q 118 -103 98 -106 q 132 -99 128 -101 q 142 -96 137 -98 q 153 -90 147 -94 q 171 -80 160 -87 q 200 -50 207 -60 q 161 -58 193 -39 q 91 -69 117 -80 q 71 -16 65 -59 q 96 91 75 30 q 152 219 118 151 q 228 358 186 286 q 317 501 271 429 q 346 513 337 510 q 357 517 355 517 q 360 519 360 518 q 366 521 361 519 q 387 530 372 524 q 432 549 401 536 q 462 581 471 565 q 432 581 460 593 l 344 544 l 346 546 q 486 755 418 656 q 598 926 554 854 "},"%":{"x_min":224,"x_max":1025,"ha":953,"o":"m 490 708 q 444 728 468 728 q 397 703 422 728 q 353 691 357 703 q 349 666 347 672 q 329 638 346 659 q 285 582 313 618 q 230 484 244 533 q 224 433 224 452 q 306 350 224 350 q 342 354 322 350 q 412 385 379 365 q 476 437 444 405 q 524 497 506 465 q 553 563 542 529 q 558 655 562 613 q 563 668 555 664 q 577 677 571 673 q 882 689 583 689 q 902 687 903 689 q 682 497 789 595 q 471 291 575 399 q 225 -35 234 45 q 225 -58 225 -50 q 227 -70 226 -65 q 243 -40 236 -70 q 544 326 268 58 q 782 545 666 445 q 1008 729 897 646 q 1025 751 1025 739 q 1012 763 1025 763 q 998 758 1007 763 q 975 746 989 753 q 946 728 956 735 q 935 721 936 722 q 882 703 895 703 q 695 703 783 703 q 524 703 606 703 q 517 703 522 703 q 506 703 511 703 q 495 706 500 704 q 490 708 490 708 m 763 334 q 659 255 708 316 q 599 138 619 202 q 593 90 593 111 q 678 4 593 4 q 715 9 697 4 q 848 91 789 29 q 923 218 902 147 q 934 280 934 249 q 845 366 934 375 q 763 334 807 362 m 838 343 q 908 267 908 343 q 899 215 908 241 q 824 88 875 137 q 715 27 772 38 q 657 42 683 20 q 632 109 632 63 q 633 126 632 118 q 636 141 634 134 q 732 295 650 224 q 838 343 785 343 m 471 680 q 538 614 538 680 q 529 561 538 590 q 453 433 506 484 q 346 372 401 383 q 288 387 314 365 q 263 455 263 409 q 263 470 263 462 q 265 487 264 479 q 363 641 282 570 q 411 669 385 661 q 471 680 438 677 "},"P":{"x_min":51,"x_max":1298,"ha":1066,"o":"m 736 370 q 707 344 707 355 q 720 329 707 336 q 756 317 734 322 q 808 309 779 312 q 869 307 837 307 q 1135 352 1024 307 q 1298 569 1298 416 q 1120 893 1298 738 q 980 1003 1054 954 q 823 1094 906 1052 q 604 1182 713 1150 q 383 1214 495 1214 q 152 1157 251 1214 q 55 1032 66 1108 q 51 986 51 1011 q 71 846 51 914 q 137 729 96 765 q 151 718 144 718 q 154 720 151 718 q 147 737 154 726 q 84 978 84 831 q 88 1032 84 1004 q 334 1190 116 1190 q 535 1166 434 1190 q 742 1094 635 1142 q 927 989 839 1049 q 1094 855 1014 928 q 1240 559 1240 715 q 1130 377 1240 433 q 1022 338 1083 352 q 888 325 962 325 q 765 347 809 325 q 736 370 741 354 m 227 -56 q 269 -63 245 -63 q 320 -57 295 -63 q 365 -39 344 -51 q 690 380 518 43 q 872 804 794 583 q 873 840 876 814 q 866 866 870 866 q 862 860 868 866 q 616 340 788 638 q 330 -23 427 12 q 281 -32 302 -30 q 242 -27 259 -34 q 179 18 202 -11 q 160 31 166 31 q 154 22 154 31 q 162 1 154 14 q 227 -56 185 -35 "},"_":{"x_min":35,"x_max":691,"ha":716,"o":"m 62 -57 l 656 -57 q 691 -45 691 -57 q 665 -39 691 -39 l 75 -39 q 35 -48 35 -39 q 62 -57 35 -57 "},"ñ":{"x_min":-14,"x_max":610.8125,"ha":662,"o":"m 416 -73 q 427 -49 428 -62 q 408 -49 426 -36 q 377 -66 396 -58 q 348 -77 357 -74 q 313 -73 317 -86 q 314 -20 309 -61 q 337 32 317 -1 q 386 107 357 66 q 449 193 414 148 q 514 282 483 239 q 570 362 545 325 q 608 426 595 400 q 599 459 616 443 q 559 475 581 475 q 467 436 524 475 q 346 342 410 398 q 218 224 281 286 q 108 111 155 162 q 92 99 101 102 q 76 98 83 95 q 69 108 70 100 q 76 132 67 116 q 136 236 102 179 q 206 349 170 294 q 276 449 242 404 q 337 516 310 494 q 351 539 351 529 q 342 559 351 552 q 321 567 334 567 q 295 554 307 567 q 241 489 271 529 q 180 399 212 448 q 117 296 148 350 q 60 194 87 243 q 15 104 34 145 q -9 40 -2 64 q -14 10 -14 25 q -9 -13 -14 -4 q 1 -23 -5 -22 q 17 -16 9 -24 q 129 104 69 41 q 253 227 190 168 q 376 335 316 286 q 488 416 437 384 q 517 428 505 428 q 539 421 531 428 q 547 403 547 415 q 542 380 547 391 q 510 335 534 365 q 455 266 487 305 q 389 184 424 227 q 326 99 355 140 q 280 24 298 58 q 262 -30 262 -9 q 266 -56 260 -42 q 281 -83 271 -70 q 303 -104 291 -95 q 331 -115 316 -113 q 373 -102 346 -118 q 416 -73 401 -87 m 248 674 q 284 694 263 685 q 330 703 306 703 q 363 695 344 703 q 403 679 382 688 q 444 663 424 671 q 477 656 463 656 q 524 675 501 656 q 560 708 546 694 q 567 727 572 723 q 548 719 562 730 q 521 701 534 705 q 477 698 509 698 q 443 705 463 698 q 402 721 423 712 q 362 737 381 729 q 330 745 342 745 q 306 738 319 745 q 281 723 294 732 q 258 704 268 714 q 241 686 248 693 q 231 667 230 674 q 248 674 232 661 "},"‚":{"x_min":25,"x_max":184.71875,"ha":219,"o":"m 41 -80 q 183 88 158 19 q 179 134 187 101 q 158 167 168 166 q 123 151 148 170 q 104 123 97 131 q 115 94 111 106 q 119 70 120 81 q 29 -65 111 -9 q 25 -75 25 -72 q 33 -85 25 -85 q 41 -80 37 -85 "},"Æ":{"x_min":-37,"x_max":1421,"ha":1195,"o":"m 1415 924 q 1421 950 1421 937 q 1414 977 1421 964 q 1400 1001 1408 990 q 1383 1020 1392 1012 q 1368 1032 1374 1027 q 1329 1039 1356 1039 q 1268 1039 1301 1039 q 1184 1039 1228 1039 q 1110 1030 1140 1039 l 1101 1036 q 1088 1054 1099 1049 q 1067 1059 1078 1059 q 1058 1057 1064 1059 q 1046 1054 1053 1056 q 1017 1018 1036 1049 q 975 950 997 987 l 962 957 q 967 978 967 969 q 953 1017 967 1000 q 921 1047 940 1035 q 881 1066 903 1060 q 842 1073 860 1073 q 836 1072 839 1073 q 831 1071 833 1071 q 724 1013 789 1061 q 581 885 660 965 q 411 697 502 804 q 227 461 320 589 l 224 458 q 182 435 206 450 q 143 410 157 421 q 125 388 130 400 q 120 364 120 376 q 130 326 120 339 l 130 318 q 92 260 114 294 q 48 185 71 225 q 3 105 25 146 q -32 27 -17 64 q -37 4 -37 15 q -32 -26 -37 -12 q -20 -40 -27 -40 q -2 -12 -11 -40 q 42 88 15 34 q 99 196 68 141 q 163 305 129 251 q 231 408 198 360 l 234 410 q 350 463 282 438 q 490 508 418 488 q 629 540 561 528 q 747 552 697 552 l 754 543 q 715 442 736 499 q 674 328 693 386 q 643 218 656 271 q 630 130 630 165 l 630 119 q 633 71 630 97 q 645 24 637 45 q 668 -12 653 2 q 701 -28 682 -28 q 722 -29 712 -29 q 743 -29 732 -29 q 844 -24 790 -29 q 948 -12 898 -19 q 1036 4 997 -5 q 1092 25 1075 13 q 1112 42 1107 35 q 1117 53 1117 49 q 1112 56 1117 56 q 1097 52 1106 56 l 1096 52 q 1055 37 1082 44 q 994 23 1029 29 q 921 18 960 18 q 844 18 882 18 q 760 20 800 18 q 693 33 721 23 q 658 47 665 40 q 651 75 651 54 q 651 87 651 81 q 652 104 651 94 q 652 108 652 107 q 653 112 653 110 l 653 114 q 672 210 657 156 q 710 322 687 264 q 756 440 732 381 q 804 549 780 499 l 810 553 q 895 567 844 561 q 994 573 946 573 q 1046 570 1022 573 q 1086 563 1069 568 l 1087 563 q 1096 561 1092 561 q 1106 565 1106 561 q 1085 577 1106 573 q 1021 584 1061 584 q 939 584 981 584 q 885 584 911 584 q 836 584 858 584 l 829 593 q 872 683 849 635 q 923 780 896 731 q 980 876 950 829 q 1043 961 1011 924 l 1046 964 q 1151 994 1087 982 q 1272 1006 1214 1006 q 1365 993 1329 1006 q 1402 949 1402 978 q 1396 921 1402 933 q 1391 903 1391 908 q 1415 925 1397 904 l 1415 924 m 934 979 q 895 852 922 917 q 831 715 867 788 q 799 649 815 683 q 767 578 782 614 l 761 574 q 746 573 754 573 q 732 571 739 573 q 638 560 690 567 q 528 544 585 554 q 413 519 471 535 q 303 483 355 504 l 295 495 q 420 661 354 578 q 551 816 485 744 q 681 942 617 887 q 807 1025 746 997 q 840 1038 821 1032 q 878 1044 858 1044 q 918 1033 901 1044 q 935 993 935 1022 q 934 987 935 990 q 934 981 934 983 l 934 979 "},"ы":{"x_min":-58.546875,"x_max":731.609375,"ha":628,"o":"m 711 190 q 652 147 691 173 q 566 92 612 121 q 472 38 519 64 q 390 0 425 13 q 362 0 380 -3 q 327 12 344 2 q 297 40 310 22 q 285 83 285 57 q 296 124 286 100 q 320 177 306 148 q 351 237 334 205 q 386 297 369 268 l 387 299 q 275 215 343 263 q 259 203 268 208 q 244 194 251 199 q 241 185 242 189 q 239 175 241 180 q 199 103 228 140 q 142 47 174 72 q 77 10 110 22 q 12 -2 44 -2 q -46 22 -19 -2 q -57 98 -62 60 q -31 180 -51 137 q 19 271 -11 222 q 84 377 49 320 q 105 414 93 393 q 129 455 117 435 q 153 492 141 476 q 177 515 166 508 q 205 506 193 515 q 205 469 216 498 q 177 432 189 453 q 152 388 166 410 q 100 314 123 352 q 64 257 77 276 q 32 208 48 231 q 5 162 17 185 q -14 114 -5 139 q -28 57 -23 89 q -3 13 -28 19 q 51 20 20 8 q 112 54 82 32 q 153 96 142 76 q 177 139 164 111 l 189 168 q 185 167 186 167 q 182 165 184 167 q 108 178 125 150 q 113 257 91 205 q 143 292 124 282 q 182 298 163 301 q 218 278 202 295 q 242 235 235 261 q 244 222 244 231 q 275 241 259 231 q 308 263 291 251 q 355 299 328 276 q 400 335 382 321 q 432 360 415 347 q 461 379 448 372 q 479 381 473 385 q 479 354 485 377 q 435 279 451 308 q 409 232 419 250 q 393 203 398 214 q 380 182 387 192 l 372 167 q 363 150 369 161 q 346 121 357 139 q 322 66 325 84 q 328 39 319 47 q 354 32 337 32 q 386 34 371 32 q 459 61 414 40 q 550 109 504 82 q 639 163 597 136 q 704 207 682 190 q 724 221 718 219 q 731 218 730 222 q 726 205 732 214 q 711 190 721 197 m 164 189 q 180 194 171 192 q 199 200 189 197 q 199 246 205 226 q 166 270 192 270 q 142 262 152 270 q 127 244 132 254 q 123 220 123 233 q 127 196 123 207 q 164 189 134 182 "},"ª":{"x_min":28,"x_max":584,"ha":599,"o":"m 69 856 q 196 938 124 884 q 261 989 232 966 q 309 1035 290 1013 l 311 1037 q 314 1028 318 1037 q 257 935 285 994 q 209 786 209 846 q 235 729 204 751 q 303 711 262 711 q 351 718 326 711 q 403 741 375 725 q 468 781 432 758 q 579 886 540 836 q 584 895 584 891 q 584 895 584 895 q 582 897 584 897 q 571 890 578 897 q 524 843 552 866 q 462 795 496 819 q 398 755 426 771 q 346 732 369 739 q 316 726 330 729 q 286 724 301 724 q 220 773 220 724 q 221 786 220 781 q 249 876 229 828 q 304 977 268 924 q 350 1042 326 1009 q 399 1108 375 1074 q 396 1114 399 1111 q 392 1117 394 1117 q 388 1116 389 1117 q 386 1115 387 1115 q 376 1110 382 1113 q 364 1106 371 1108 q 348 1106 364 1106 q 307 1113 330 1113 q 273 1108 290 1113 q 203 1072 240 1097 q 121 1010 165 1047 q 28 876 28 928 q 48 851 28 851 q 69 856 58 851 m 82 919 q 113 968 93 942 q 163 1021 133 994 q 262 1088 221 1081 q 272 1092 268 1091 q 280 1093 276 1093 q 310 1086 300 1093 q 321 1070 321 1079 q 318 1065 321 1067 q 107 889 197 937 q 93 885 100 885 q 78 902 78 885 q 82 919 78 910 "},"ї":{"x_min":18,"x_max":418.34375,"ha":333,"o":"m 402 180 q 350 137 385 163 q 275 82 316 110 q 193 28 234 53 q 122 -9 152 3 q 96 -9 113 -12 q 61 3 79 -7 q 31 31 44 13 q 18 73 18 48 q 31 130 18 95 q 65 203 45 165 q 110 282 86 242 q 154 355 134 322 q 188 411 174 388 q 204 441 202 434 q 222 463 206 458 q 252 462 238 467 q 271 442 266 456 q 258 406 276 429 q 213 349 238 383 q 162 276 188 316 q 112 194 135 237 q 70 110 88 152 q 54 55 54 74 q 63 29 54 37 q 85 22 72 22 q 112 26 99 22 q 179 52 138 31 q 260 99 219 73 q 338 152 302 126 q 393 197 374 178 q 412 210 406 209 q 418 208 417 212 q 414 195 418 204 q 402 180 410 187 m 362 568 q 353 558 362 563 q 335 548 345 552 q 314 542 324 544 q 300 545 304 541 q 294 560 297 549 q 290 581 291 570 q 289 602 289 593 q 291 616 289 613 q 302 626 294 620 q 321 636 311 631 q 339 643 331 641 q 350 640 348 644 q 357 627 355 637 q 360 605 359 616 q 362 583 362 594 q 362 568 362 572 m 222 569 q 213 559 222 565 q 194 550 205 554 q 174 544 184 546 q 161 547 163 543 q 155 561 158 551 q 151 584 152 572 q 150 605 150 596 q 152 619 150 615 q 164 629 155 623 q 182 639 172 634 q 201 644 192 643 q 214 641 210 646 q 219 629 217 639 q 222 607 222 619 q 222 584 222 596 q 222 569 222 573 "},"Œ":{"x_min":21,"x_max":1352,"ha":1269,"o":"m 1345 890 q 1352 910 1352 897 q 1346 934 1352 922 q 1332 956 1340 945 q 1315 974 1324 966 q 1300 986 1306 983 l 1299 986 q 1247 1003 1279 997 q 1179 1009 1215 1009 q 1121 1005 1151 1009 q 1066 994 1091 1001 l 1058 998 q 1046 1025 1053 1012 q 1028 1038 1039 1038 q 1017 1035 1025 1038 l 1017 1033 q 994 1017 1005 1030 q 971 984 982 1003 l 966 981 q 922 965 950 976 q 882 947 894 954 q 871 928 871 936 q 875 910 871 915 q 889 873 889 889 q 887 860 889 867 q 879 847 886 854 q 873 838 876 843 q 865 823 871 833 q 841 782 854 804 q 818 740 827 760 l 805 744 q 808 778 808 758 q 808 814 808 797 l 808 821 q 794 913 808 872 q 756 984 780 955 q 700 1028 732 1013 q 630 1044 667 1044 q 593 1040 613 1044 l 584 1046 q 575 1067 583 1061 q 555 1074 566 1074 q 518 1064 540 1074 q 417 990 472 1040 q 307 872 362 940 q 200 723 252 804 q 109 554 148 641 q 45 379 69 468 q 21 208 21 290 q 21 184 21 197 q 23 161 21 172 q 48 65 29 104 q 94 3 68 26 q 150 -29 121 -19 q 208 -39 180 -39 q 227 -37 218 -39 q 246 -33 237 -36 q 414 67 327 -5 q 593 262 501 140 l 605 255 q 584 176 593 215 q 575 111 575 137 l 575 102 q 579 60 575 81 q 592 21 583 39 q 614 -7 601 4 q 647 -19 627 -19 l 668 -19 q 769 -19 714 -19 q 876 -11 825 -19 q 969 7 928 -3 q 1029 30 1011 18 l 1030 30 q 1056 54 1056 44 q 1049 57 1056 57 q 1023 49 1042 57 q 987 36 1011 42 q 930 25 962 30 q 860 21 897 21 q 786 21 823 21 q 703 24 741 21 q 638 34 665 27 q 604 50 612 44 q 595 76 595 56 q 595 88 595 81 q 597 104 595 95 q 598 107 597 107 q 600 111 600 108 q 613 191 600 145 q 645 286 626 236 q 686 387 664 336 q 727 485 708 439 q 738 508 733 497 q 747 530 743 519 l 751 533 q 804 556 773 546 q 868 572 836 565 q 934 583 901 579 q 991 588 966 588 q 1040 582 1025 588 q 1048 581 1044 581 q 1060 585 1060 581 q 1037 595 1060 590 q 989 602 1018 602 q 927 602 959 602 q 858 599 891 602 q 800 589 825 597 l 790 599 q 832 683 808 640 q 881 769 855 726 q 934 851 907 811 q 987 924 962 890 l 990 926 q 1093 953 1036 944 q 1200 963 1150 963 q 1294 950 1261 963 q 1334 912 1334 937 q 1324 883 1334 899 q 1320 868 1320 872 l 1320 867 q 1345 889 1328 867 l 1345 890 m 775 813 q 748 640 775 730 q 679 463 722 551 q 580 296 636 376 q 465 153 525 216 q 347 47 405 90 q 242 -8 289 4 q 214 -14 229 -11 q 181 -18 200 -18 q 140 -11 161 -18 q 100 15 119 -4 q 70 68 82 34 q 59 155 59 102 l 59 166 q 81 324 59 241 q 140 489 103 407 q 225 651 176 572 q 327 799 274 730 q 435 923 380 868 q 538 1011 490 978 l 541 1012 q 594 1018 563 1018 q 660 1007 627 1018 q 718 972 693 997 q 759 909 743 948 q 775 813 775 870 "},"T":{"x_min":43.90625,"x_max":1500,"ha":992,"o":"m 1415 943 q 1287 956 1371 943 q 1099 987 1204 969 q 1007 831 1056 916 q 909 654 958 745 q 813 470 860 562 q 726 292 765 377 q 656 133 686 206 q 612 6 626 59 q 610 -42 605 -19 q 622 -79 615 -64 q 619 -99 626 -90 q 602 -111 612 -108 q 583 -108 592 -114 q 574 -82 574 -101 q 598 43 574 -36 q 662 221 622 123 q 754 430 703 320 q 858 644 806 540 q 961 840 911 748 q 1048 996 1011 931 q 841 1028 949 1012 q 629 1055 734 1044 q 428 1067 524 1067 q 258 1058 332 1067 q 193 1047 230 1056 q 126 1019 155 1038 q 80 970 96 1001 q 85 895 65 940 q 144 783 107 840 q 212 688 180 727 q 229 664 225 672 q 230 656 233 656 q 220 660 228 655 q 204 673 212 665 q 122 763 155 721 q 61 855 89 805 q 48 941 35 902 q 94 1010 61 980 q 170 1058 128 1039 q 246 1084 212 1077 q 396 1095 301 1095 q 603 1095 490 1095 q 840 1077 717 1095 q 1075 1047 963 1060 q 1094 1074 1086 1062 q 1109 1093 1102 1086 q 1112 1105 1114 1099 q 1104 1110 1110 1111 q 1088 1106 1097 1108 q 1070 1100 1078 1104 q 1055 1101 1055 1095 q 1067 1115 1055 1108 q 1113 1148 1084 1129 q 1163 1171 1142 1167 q 1191 1158 1182 1174 q 1189 1126 1200 1143 q 1132 1042 1164 1086 q 1305 1023 1228 1030 q 1430 1017 1383 1017 q 1461 1029 1454 1017 q 1466 1054 1469 1042 q 1461 1078 1463 1068 q 1452 1103 1459 1088 q 1449 1135 1441 1131 q 1472 1114 1457 1139 q 1482 1094 1476 1107 q 1494 1067 1488 1082 q 1500 1036 1500 1053 q 1495 1005 1500 1019 q 1484 986 1490 998 q 1466 965 1477 975 q 1441 947 1452 954 q 1415 943 1430 940 "},"š":{"x_min":-0.40625,"x_max":1115.734375,"ha":694,"o":"m 880 311 q 998 292 952 311 q 1067 245 1044 274 q 1091 180 1091 216 q 1077 107 1091 144 q 1039 35 1064 70 q 979 -26 1013 0 q 755 -149 878 -105 q 499 -193 633 -193 q 467 -193 484 -197 q 449 -188 449 -188 q 429 -178 431 -184 q 422 -173 427 -172 q 407 -188 406 -180 q 424 -202 408 -195 q 458 -207 436 -207 q 499 -207 481 -207 q 764 -164 634 -207 q 997 -44 893 -121 q 1090 64 1058 0 q 1114 184 1122 127 q 1050 283 1105 242 q 880 324 994 324 q 711 310 795 324 q 546 272 626 296 q 393 214 466 247 q 258 147 320 181 q 236 166 248 152 q 212 197 223 180 q 191 233 200 215 q 180 269 182 252 q 193 322 176 295 q 238 377 209 350 q 302 428 266 404 q 373 471 339 452 q 439 503 408 490 q 486 521 469 516 q 556 521 522 530 q 608 504 590 511 q 622 507 613 503 q 640 517 630 511 q 658 530 650 523 q 671 543 666 537 q 670 560 676 550 q 655 569 664 569 q 543 554 604 569 q 420 513 482 539 q 301 454 358 488 q 200 384 244 420 q 132 311 157 348 q 112 244 108 274 q 125 203 115 222 q 146 168 134 184 q 169 138 157 152 q 190 109 182 123 q 149 81 175 98 q 96 44 123 63 q 43 4 69 24 q 3 -34 18 -16 q 11 -54 -6 -48 q 34 -52 23 -55 q 61 -47 46 -49 q 118 -49 82 -55 q 191 -29 154 -44 q 259 4 227 -15 q 304 45 291 24 q 302 86 315 65 q 275 127 289 108 q 418 201 344 167 q 568 260 491 235 q 722 298 644 285 q 880 311 800 311 m 73 -20 q 100 5 82 -11 q 141 38 119 22 q 182 68 164 55 q 209 86 201 81 q 221 74 214 81 q 234 59 228 68 q 241 39 240 49 q 236 19 243 29 q 207 -2 228 8 q 162 -22 186 -13 q 114 -34 137 -30 q 79 -36 91 -38 q 73 -20 62 -33 m 340 622 q 305 647 332 621 q 264 693 284 668 q 257 698 259 700 q 253 690 253 696 q 255 678 253 689 q 337 565 336 566 q 386 610 338 562 q 432 652 415 636 q 456 673 449 668 q 461 687 461 679 q 449 690 461 700 q 390 648 418 665 q 340 622 362 632 "},"є":{"x_min":17,"x_max":482,"ha":503,"o":"m 459 477 q 398 421 436 448 q 306 381 361 394 q 373 435 337 405 q 426 489 409 466 q 441 527 440 511 q 434 553 443 544 q 410 562 426 562 q 373 550 394 562 q 270 473 322 521 q 171 373 218 426 l 154 351 q 88 249 122 307 q 49 124 54 191 q 56 74 49 93 q 77 44 64 54 q 107 30 90 33 q 143 27 125 27 q 241 52 189 32 q 332 95 293 72 q 348 97 343 102 q 342 85 353 92 q 305 61 326 74 q 260 35 285 47 q 208 12 235 22 q 155 -2 182 2 q 111 2 135 -6 q 65 29 86 11 q 30 71 44 46 q 17 124 17 96 q 35 225 17 174 q 84 325 54 277 q 150 418 113 374 q 226 497 187 462 q 304 557 265 533 q 377 592 343 581 q 428 594 403 601 q 467 570 452 587 q 482 528 482 553 q 459 477 482 503 m 306 384 q 305 381 306 383 l 305 383 q 306 384 306 383 m 249 270 q 194 287 211 287 q 129 269 164 287 l 97 251 q 96 253 96 251 q 114 282 97 265 q 158 308 130 299 q 223 318 186 318 q 303 288 260 318 q 325 283 316 284 q 342 282 335 282 q 412 303 390 282 q 427 312 421 312 q 432 305 436 312 q 425 293 427 298 q 342 240 371 240 q 326 243 337 240 q 301 251 315 246 q 273 260 288 255 q 249 270 259 266 "},"Þ":{"x_min":30.890625,"x_max":745.46875,"ha":781,"o":"m 289 544 q 238 396 268 479 q 178 230 208 313 q 120 72 147 147 q 76 -48 93 -1 q 69 -45 73 -44 q 57 -50 64 -47 q 43 -56 50 -54 q 30 -55 36 -58 q 98 170 62 54 q 165 404 133 287 q 117 458 117 432 q 142 499 119 475 q 208 551 164 523 q 294 767 243 637 q 417 1075 346 897 q 486 1130 425 1090 q 513 1126 513 1148 q 509 1117 515 1119 q 497 1094 503 1114 q 406 875 450 996 q 311 608 362 755 q 568 728 465 707 q 638 727 607 737 q 690 699 668 716 q 724 662 711 682 q 739 634 736 643 q 738 468 751 540 q 691 341 725 397 q 606 241 657 284 q 492 160 554 198 q 357 86 429 122 q 210 11 285 51 q 155 38 168 -2 q 155 49 153 44 q 161 61 157 54 q 212 88 171 75 q 315 130 253 102 q 458 207 378 158 q 626 337 537 255 q 672 597 708 475 q 525 677 651 705 q 417 630 475 662 q 289 544 360 598 "},"j":{"x_min":-1463.40625,"x_max":672.625,"ha":319,"o":"m 21 -55 q 44 3 31 -33 q 71 83 57 41 q 96 169 84 126 q 118 249 109 213 q 131 309 127 284 q 132 336 135 333 q 153 367 135 351 q 184 386 171 383 q 209 385 199 391 q 217 366 219 379 q 202 333 216 351 q 178 263 192 308 q 145 163 163 218 q 109 53 127 109 q 74 -47 91 -2 q 213 -24 138 -35 q 358 -14 288 -14 q 487 -14 428 -14 q 581 -16 546 -14 q 619 -34 599 -20 q 652 -66 638 -47 q 671 -107 666 -84 q 664 -151 676 -130 q 624 -201 646 -183 q 574 -243 602 -219 q 552 -253 555 -258 q 564 -233 549 -249 q 613 -177 592 -208 q 642 -120 634 -147 q 634 -62 653 -82 q 578 -42 614 -42 q 478 -40 542 -40 q 342 -40 416 -40 q 195 -48 269 -40 q 64 -72 121 -57 q -22 -306 28 -178 q -140 -567 -74 -435 q -288 -824 -207 -699 q -468 -1049 -369 -949 q -682 -1213 -567 -1149 q -929 -1277 -797 -1277 q -1081 -1257 -1005 -1277 q -1222 -1201 -1157 -1238 q -1340 -1112 -1287 -1163 q -1424 -1002 -1393 -1061 q -1462 -879 -1455 -942 q -1442 -753 -1468 -815 q -1346 -616 -1411 -681 q -1192 -493 -1280 -551 q -996 -383 -1103 -434 q -777 -287 -890 -332 q -549 -205 -664 -242 q -328 -139 -433 -169 q -132 -89 -222 -109 q 21 -55 -42 -68 m -1408 -792 q -1424 -901 -1430 -846 q -1391 -1009 -1418 -957 q -1317 -1105 -1364 -1060 q -1211 -1184 -1271 -1150 q -1080 -1234 -1151 -1217 q -932 -1252 -1008 -1252 q -685 -1180 -801 -1252 q -471 -997 -569 -1108 q -292 -752 -372 -886 q -149 -489 -211 -619 q -46 -250 -87 -359 q 16 -78 -4 -140 q -281 -149 -128 -108 q -582 -241 -435 -190 q -864 -354 -729 -292 q -1110 -485 -1000 -415 q -1297 -631 -1219 -554 q -1408 -792 -1375 -709 m 295 593 q 257 538 291 569 q 205 513 223 508 q 176 537 176 519 q 207 588 176 557 q 259 626 239 622 q 287 617 273 629 q 295 593 301 605 "},"1":{"x_min":-64,"x_max":683,"ha":529,"o":"m 271 -1 q 412 -1 372 -1 q 453 15 453 -1 q 425 25 453 28 q 259 40 383 21 q 205 75 205 47 q 207 88 205 81 q 213 103 210 94 q 284 220 237 150 q 402 383 331 290 q 519 530 472 475 q 591 605 566 585 q 596 632 594 620 q 603 646 598 644 q 644 671 627 662 q 673 689 660 681 q 683 709 683 695 q 666 726 683 726 q 651 721 659 726 q 486 640 588 685 q 238 540 384 595 q 213 525 217 535 q 224 517 210 517 q 245 521 230 517 q 356 557 301 539 q 469 598 412 575 q 483 601 477 601 q 493 591 493 601 q 487 574 493 581 q 283 273 369 404 q 145 45 198 142 q 33 40 78 45 q -39 33 -11 36 q -64 2 -64 30 q -39 -10 -64 -13 q 227 -1 28 -1 l 271 -1 "},"›":{"x_min":53,"x_max":288.3125,"ha":315,"o":"m 233 208 q 182 154 226 193 q 58 48 139 115 q 53 40 53 43 q 62 32 53 32 q 75 36 68 32 q 138 77 107 57 q 201 119 169 98 q 287 187 280 172 q 246 380 293 200 q 236 393 243 393 q 229 377 226 393 q 233 208 246 233 "},"<":{"x_min":16.625,"x_max":845.390625,"ha":863,"o":"m 845 735 q 771 710 819 727 q 661 671 723 693 q 529 623 599 649 q 389 572 459 597 q 254 522 319 546 q 140 477 189 497 q 59 443 91 457 q 27 425 28 429 q 35 366 2 382 q 58 367 55 366 q 70 367 62 368 q 98 353 89 363 q 239 272 162 318 q 389 178 316 225 q 527 90 463 130 q 628 27 591 50 q 657 21 639 21 q 698 16 675 21 q 740 18 725 14 q 763 30 755 22 q 762 41 766 37 q 753 53 759 46 q 746 53 750 51 q 732 53 742 55 q 681 63 705 59 q 645 73 657 66 q 584 104 623 82 q 500 155 545 126 q 405 218 455 185 q 312 283 356 251 q 234 339 269 314 q 185 377 200 364 q 170 396 173 386 q 169 413 167 406 q 193 425 169 414 q 257 455 217 436 q 348 497 298 474 q 453 545 399 521 q 557 593 506 570 q 648 636 607 617 q 713 665 688 654 q 739 677 738 677 l 845 735 "},"Ц":{"x_min":40,"x_max":1491,"ha":1391,"o":"m 1162 38 q 1166 107 1162 76 q 1182 171 1171 138 q 1210 243 1192 204 q 1253 336 1228 282 q 1300 439 1280 396 q 1334 514 1320 483 q 1360 573 1349 548 q 1366 600 1366 585 q 1359 610 1366 610 q 1341 598 1352 610 q 1184 457 1274 536 q 971 283 1094 379 q 692 72 803 148 q 535 -3 580 -3 q 478 22 503 -3 q 454 84 454 48 q 487 206 454 133 q 573 368 520 279 q 592 401 578 378 q 623 453 606 423 q 661 514 641 482 q 698 576 681 547 q 730 628 716 605 q 749 661 743 651 q 818 804 796 741 q 841 910 841 867 q 800 1000 841 963 q 685 1037 760 1037 q 562 1017 629 1037 q 426 964 495 998 q 293 886 357 931 q 180 788 230 841 q 99 678 130 736 q 69 564 69 620 q 154 418 69 475 q 166 404 166 411 q 157 399 166 399 q 142 404 152 399 q 60 490 81 451 q 40 579 40 529 q 61 678 40 628 q 121 774 83 727 q 210 864 159 821 q 320 945 262 908 q 693 1065 510 1065 l 717 1065 q 768 1048 741 1065 q 819 1006 796 1031 q 857 952 842 981 q 873 897 873 923 q 850 777 873 844 q 785 627 827 711 q 744 553 782 622 q 627 348 706 483 q 541 183 574 256 q 508 68 508 110 q 546 29 508 29 q 704 106 591 29 q 996 332 817 184 q 1178 484 1088 407 q 1360 640 1269 561 q 1379 661 1366 644 q 1409 695 1393 677 q 1439 726 1424 712 q 1464 740 1454 740 q 1483 731 1475 740 q 1491 712 1491 723 q 1486 684 1491 701 q 1475 651 1481 668 q 1402 535 1445 611 q 1300 347 1359 459 q 1262 270 1281 309 q 1228 195 1244 232 q 1203 128 1213 159 q 1194 74 1194 97 q 1233 50 1208 50 q 1241 80 1237 64 q 1263 149 1251 119 q 1292 197 1276 180 q 1333 201 1309 213 q 1351 144 1351 174 q 1335 85 1351 113 q 1295 34 1320 56 q 1255 7 1276 16 q 1246 -72 1251 -28 q 1220 -212 1235 -147 q 1176 -329 1205 -278 q 1101 -415 1148 -380 q 982 -461 1055 -450 q 913 -450 942 -468 q 852 -401 884 -433 q 821 -369 828 -380 q 812 -355 814 -358 q 816 -348 812 -347 l 843 -369 q 866 -387 854 -378 q 884 -401 877 -396 q 932 -428 913 -421 q 980 -435 952 -435 q 1052 -410 1017 -435 q 1116 -339 1087 -385 q 1166 -230 1145 -294 q 1199 -89 1188 -166 q 1209 -43 1202 -73 q 1219 -1 1213 -21 q 1198 1 1208 -1 q 1162 38 1175 8 m 1310 105 q 1330 139 1327 125 q 1331 159 1334 153 q 1322 169 1328 166 q 1312 172 1316 172 q 1270 105 1284 172 q 1263 62 1267 86 q 1310 105 1283 76 "},"t":{"x_min":-1,"x_max":1049,"ha":1052,"o":"m 239 -772 q 437 -716 332 -772 q 662 -552 542 -660 q 928 -154 900 -337 q 889 -59 930 -122 q 804 0 849 0 q 788 -1 793 0 q 738 -24 751 -16 q 718 -44 725 -33 q 729 -56 715 -56 q 751 -47 736 -56 q 788 -34 767 -37 q 881 -149 881 -19 q 820 -308 869 -224 q 679 -487 771 -391 q 504 -642 590 -582 q 331 -729 418 -702 q 222 -748 271 -748 q 52 -506 52 -748 q 52 -473 52 -489 q 52 -439 52 -457 q 118 -148 63 -310 q 270 211 174 12 q 399 443 333 336 q 538 658 464 550 q 572 692 549 676 q 805 692 703 692 q 986 692 907 692 q 1006 710 998 693 q 1014 730 1014 726 q 997 735 1009 735 q 941 735 986 735 q 814 735 896 735 l 613 735 q 603 768 581 735 q 1035 1208 904 1182 q 1049 1218 1049 1212 q 1033 1231 1049 1231 q 1002 1224 1016 1231 q 954 1207 987 1218 q 876 1171 885 1181 q 693 956 781 1060 q 539 749 606 853 q 540 741 536 745 q 539 737 545 737 q 436 732 472 737 q 395 719 399 728 q 434 676 383 696 q 459 637 459 662 q 442 596 459 614 q 300 364 371 493 q 158 74 229 235 q -1 -486 -1 -291 q 8 -597 -1 -546 q 56 -688 18 -648 q 239 -772 128 -772 "},"¬":{"x_min":30.5,"x_max":1434.421875,"ha":1465,"o":"m 63 382 q 72 409 81 398 q 49 427 62 419 q 31 440 36 434 q 52 450 26 445 q 115 454 75 450 q 204 464 155 458 q 304 477 252 470 q 401 489 355 484 q 638 519 515 503 q 875 535 761 535 q 1083 535 988 535 q 1233 533 1177 535 q 1307 507 1265 526 q 1383 458 1350 489 q 1429 388 1416 428 q 1418 301 1443 348 q 1394 262 1404 275 q 1373 238 1384 249 q 1347 215 1362 228 q 1308 178 1333 203 q 1297 186 1288 172 q 1326 224 1306 200 q 1367 278 1345 247 q 1394 337 1388 308 q 1397 413 1412 383 q 1352 460 1383 442 q 1284 487 1322 478 q 1220 498 1247 496 q 1051 507 1147 507 q 850 495 955 507 q 637 469 745 484 q 431 437 529 453 q 328 419 383 429 q 223 401 273 409 q 132 387 173 393 q 69 381 91 381 l 63 382 "},"ù":{"x_min":14,"x_max":784.453125,"ha":653,"o":"m 779 -86 q 739 -131 762 -106 q 690 -179 716 -156 q 634 -218 664 -201 q 579 -243 605 -236 q 534 -245 558 -250 q 487 -229 509 -240 q 448 -204 465 -219 q 425 -172 431 -188 q 413 -84 413 -131 q 423 11 413 -37 q 450 108 434 61 q 482 196 466 155 q 513 268 498 237 q 534 315 527 300 q 539 333 539 325 q 534 348 539 343 q 523 351 530 352 q 503 337 515 350 q 425 262 473 308 q 323 169 376 216 q 219 81 271 122 q 132 20 168 40 q 44 9 74 -8 q 14 73 14 27 q 32 150 16 106 q 72 239 48 193 q 126 334 96 286 q 185 425 156 383 q 240 502 215 468 q 284 558 266 537 q 300 570 291 566 q 315 571 309 573 q 321 561 321 569 q 309 536 321 552 q 248 441 283 497 q 178 327 212 386 q 116 213 144 268 q 79 120 89 158 q 78 43 62 59 q 132 51 94 27 q 252 142 186 84 q 386 263 319 200 q 513 388 453 327 q 615 486 573 448 q 639 494 629 497 q 654 481 648 491 q 660 458 660 470 q 655 439 660 445 q 613 366 637 409 q 564 269 589 322 q 517 159 540 216 q 477 43 493 101 q 454 -68 461 -13 q 454 -166 447 -122 q 490 -211 458 -194 q 570 -212 522 -227 q 622 -189 594 -204 q 676 -156 650 -175 q 726 -116 703 -137 q 766 -76 750 -95 q 782 -70 776 -66 q 779 -86 787 -75 m 555 647 q 566 625 570 634 q 543 629 561 615 q 510 654 529 640 q 471 684 491 668 q 428 716 450 700 q 384 750 405 733 q 372 771 372 759 q 380 789 372 782 q 399 798 388 796 q 418 790 410 800 q 487 716 450 755 q 555 647 523 676 "},"Ф":{"x_min":53.921875,"x_max":1379.109375,"ha":1207,"o":"m 960 979 q 796 1002 878 995 q 633 1010 713 1010 q 480 1001 553 1010 q 348 976 407 993 q 259 944 304 965 q 181 879 213 924 q 162 830 165 856 q 159 788 159 804 q 154 777 159 779 q 147 783 149 775 q 145 833 141 803 q 157 887 149 862 q 219 962 174 933 q 335 1012 264 990 q 468 1038 393 1029 q 627 1048 542 1048 q 803 1040 712 1048 q 987 1018 895 1033 q 1003 1040 996 1032 q 1012 1052 1009 1048 q 1026 1057 1017 1057 q 1040 1051 1034 1056 q 1050 1039 1046 1046 q 1051 1026 1053 1032 q 916 749 990 893 q 995 803 951 778 q 1206 858 1116 872 q 1309 806 1265 851 q 1372 683 1356 763 q 1379 648 1379 669 q 1379 608 1379 626 q 1210 290 1379 417 q 869 212 1046 168 q 837 224 856 215 q 799 246 819 233 q 762 272 780 258 q 732 297 744 286 q 681 357 698 335 q 536 177 610 257 q 384 48 461 97 q 305 10 346 23 q 225 -7 264 -3 q 151 -3 185 -10 q 95 21 117 3 q 70 61 80 35 q 55 111 60 87 q 60 126 51 123 q 73 117 70 129 q 94 73 80 93 q 126 39 109 53 q 171 18 144 23 q 230 15 198 12 q 298 30 263 18 q 367 65 334 43 q 487 171 427 105 q 606 321 548 237 q 511 255 564 285 q 395 200 452 221 q 292 186 338 179 q 236 201 264 189 q 188 235 209 212 q 158 277 170 251 q 139 332 146 303 q 129 392 132 361 q 126 449 126 422 q 169 633 126 544 q 297 785 212 721 q 386 838 339 815 q 482 870 433 860 q 579 881 531 881 q 670 864 627 881 q 716 841 692 856 q 764 808 741 826 q 807 767 787 789 q 844 724 828 746 q 907 856 880 796 q 960 979 934 917 m 617 814 q 452 806 532 829 q 297 725 373 783 q 143 442 143 608 q 149 360 143 393 q 292 223 171 247 q 401 230 343 214 q 530 292 459 247 q 645 378 605 337 q 682 434 662 403 q 725 497 703 465 q 768 561 748 529 q 803 621 788 593 l 767 589 q 745 581 750 572 q 725 599 732 585 q 730 626 719 614 q 756 647 732 638 q 816 686 780 657 q 770 744 799 721 q 711 783 741 768 q 655 804 681 797 q 617 814 628 811 m 728 340 q 864 259 789 276 q 1015 260 939 242 q 1158 323 1090 278 q 1276 429 1227 368 q 1349 560 1326 490 q 1356 697 1372 631 q 1307 788 1345 756 q 1204 820 1269 820 q 1085 796 1151 820 q 948 728 1019 772 q 905 696 920 708 q 874 672 891 683 q 787 519 831 593 q 694 375 742 444 l 728 340 "},"ï":{"x_min":18,"x_max":418.34375,"ha":333,"o":"m 402 180 q 350 137 385 163 q 275 82 316 110 q 193 28 234 53 q 122 -9 152 3 q 96 -9 113 -12 q 61 3 79 -7 q 31 31 44 13 q 18 73 18 48 q 31 130 18 95 q 65 203 45 165 q 110 282 86 242 q 154 355 134 322 q 188 411 174 388 q 204 441 202 434 q 222 463 206 458 q 252 462 238 467 q 271 442 266 456 q 258 406 276 429 q 213 349 238 383 q 162 276 188 316 q 112 194 135 237 q 70 110 88 152 q 54 55 54 74 q 63 29 54 37 q 85 22 72 22 q 112 26 99 22 q 179 52 138 31 q 260 99 219 73 q 338 152 302 126 q 393 197 374 178 q 412 210 406 209 q 418 208 417 212 q 414 195 418 204 q 402 180 410 187 m 362 568 q 353 558 362 563 q 335 548 345 552 q 314 542 324 544 q 300 545 304 541 q 294 560 297 549 q 290 581 291 570 q 289 602 289 593 q 291 616 289 613 q 302 626 294 620 q 321 636 311 631 q 339 643 331 641 q 350 640 348 644 q 357 627 355 637 q 360 605 359 616 q 362 583 362 594 q 362 568 362 572 m 222 569 q 213 559 222 565 q 194 550 205 554 q 174 544 184 546 q 161 547 163 543 q 155 561 158 551 q 151 584 152 572 q 150 605 150 596 q 152 619 150 615 q 164 629 155 623 q 182 639 172 634 q 201 644 192 643 q 214 641 210 646 q 219 629 217 639 q 222 607 222 619 q 222 584 222 596 q 222 569 222 573 "},"Ò":{"x_min":19,"x_max":1188,"ha":1210,"o":"m 35 442 q 23 379 28 410 q 19 319 19 349 q 133 75 19 170 q 373 -6 231 -6 q 699 66 527 -6 q 870 165 792 109 q 1010 294 948 221 q 1186 664 1156 462 q 1188 680 1188 671 q 1188 699 1188 689 q 1107 938 1188 822 q 849 1104 1010 1079 q 745 1113 797 1113 q 483 1062 608 1113 q 269 911 349 1005 q 197 745 197 826 q 201 705 197 725 q 35 442 73 577 m 901 989 q 862 993 881 991 q 821 996 842 996 q 480 906 666 996 q 334 824 398 867 q 220 731 270 780 q 218 759 218 745 q 286 899 218 827 q 485 1027 362 979 q 751 1082 616 1082 q 792 1082 771 1082 q 831 1077 812 1082 q 980 1031 916 1063 q 1088 941 1043 998 q 1166 708 1166 842 q 1034 377 1166 539 q 723 130 913 227 q 373 37 537 37 q 130 114 217 37 q 44 323 44 191 q 47 381 44 351 q 59 441 50 410 q 120 574 76 496 q 165 638 144 611 q 205 682 185 664 q 270 598 220 636 q 324 568 297 579 q 383 558 351 558 q 404 567 404 553 q 388 577 404 577 q 280 615 334 577 q 224 702 230 656 q 453 870 279 780 q 821 978 655 978 q 899 969 862 978 q 915 979 915 965 q 901 989 915 987 m 723 1249 q 682 1287 705 1265 q 635 1331 659 1308 q 590 1373 612 1353 q 552 1408 567 1393 q 534 1413 544 1415 q 517 1403 524 1410 q 509 1386 510 1396 q 516 1371 508 1376 q 560 1340 534 1357 q 612 1304 585 1322 q 667 1267 640 1285 q 715 1236 694 1250 q 726 1237 720 1232 q 723 1249 731 1242 "},"О":{"x_min":57,"x_max":1225,"ha":1090,"o":"m 73 442 q 239 705 108 577 q 234 745 234 723 q 305 911 234 823 q 520 1062 389 1007 q 783 1113 647 1113 q 887 1104 837 1113 q 1145 939 1051 1079 q 1225 699 1225 824 q 1225 680 1225 689 q 1223 664 1225 671 q 1164 470 1208 562 q 1048 294 1120 378 q 736 66 923 152 q 411 -6 565 -6 q 170 81 268 -6 q 57 321 57 173 q 73 442 57 379 m 937 989 q 951 979 951 987 q 935 969 951 965 q 858 978 899 978 q 490 870 691 978 q 261 702 315 780 q 279 657 264 678 q 318 615 294 635 q 426 577 369 577 q 442 567 442 577 q 419 558 442 553 q 361 568 389 558 q 307 599 333 579 q 243 682 258 638 q 202 638 224 664 q 157 574 181 611 q 96 441 113 496 q 85 381 89 410 q 81 323 81 351 q 168 114 81 191 q 411 37 255 37 q 760 131 575 37 q 932 240 855 180 q 1070 377 1009 300 q 1204 708 1204 541 q 1126 941 1204 840 q 1017 1031 1081 998 q 869 1077 952 1063 q 828 1082 849 1082 q 788 1082 808 1082 q 522 1027 652 1082 q 322 899 397 978 q 256 759 256 828 q 258 731 256 745 q 518 906 357 830 q 858 996 701 996 q 898 993 878 996 q 937 989 917 991 "},"&":{"x_min":-103.59375,"x_max":973,"ha":897,"o":"m 796 415 q 848 415 826 415 q 888 414 871 415 q 951 354 951 405 q 876 210 951 286 q 865 189 865 196 q 867 188 865 188 q 885 200 873 188 q 966 296 952 263 q 973 329 973 310 q 957 382 973 357 q 921 423 942 407 q 927 426 930 425 q 917 430 924 428 q 902 434 910 432 q 891 439 894 436 q 838 445 862 445 q 777 445 814 445 q 617 445 703 445 q 442 445 531 445 q 270 445 353 445 q 118 445 186 445 q 233 555 168 516 q 363 611 298 594 q 487 628 428 628 q 578 622 545 628 q 603 626 592 621 q 617 639 613 632 q 618 655 621 647 q 600 666 614 662 q 542 690 571 673 q 489 734 513 707 q 451 797 465 760 q 437 880 437 833 q 461 963 437 930 q 520 1014 486 996 q 589 1033 554 1033 q 649 1026 624 1033 q 696 992 678 1016 q 716 939 713 968 q 728 920 719 920 q 744 929 737 920 q 754 956 751 939 q 749 989 758 973 q 711 1041 738 1017 q 645 1066 684 1066 q 567 1054 609 1066 q 489 1019 526 1042 q 423 961 452 995 q 384 885 395 928 q 381 819 376 849 q 398 768 387 790 q 425 730 410 746 q 448 704 439 714 q 448 689 453 700 q 431 675 443 679 q 332 641 383 664 q 233 589 281 619 q 144 521 186 558 q 72 442 102 485 q -6 442 25 442 q -51 442 -40 442 q -88 437 -79 442 q -102 414 -97 433 q -99 396 -105 406 q -86 379 -94 386 q -68 369 -77 372 q -54 372 -59 365 q -38 391 -45 382 q -19 404 -30 400 q 4 409 -13 409 q 50 409 22 409 q -6 265 5 338 q -1 132 -19 192 q 60 34 15 73 q 176 -4 105 -4 q 200 -4 187 -4 q 225 -4 212 -4 q 241 -76 230 -42 q 267 -136 251 -111 q 304 -174 283 -161 q 353 -186 326 -188 q 439 -144 401 -181 q 507 -60 478 -106 q 523 -38 516 -49 q 537 -13 531 -26 q 557 27 548 7 q 575 64 567 47 q 624 160 599 110 q 672 258 649 211 q 714 345 695 304 q 745 415 732 386 l 796 415 m 250 264 q 221 164 230 224 q 218 42 212 104 q 202 43 211 43 q 189 44 195 43 q 107 81 140 49 q 59 162 73 114 q 51 269 45 210 q 86 386 57 328 q 92 399 89 393 q 98 414 95 406 q 204 414 145 414 q 323 414 263 414 q 442 414 384 414 q 548 414 501 414 q 627 414 595 414 q 669 414 660 414 q 686 408 684 414 q 681 386 688 402 q 661 345 673 367 q 637 304 649 324 q 613 267 624 283 q 595 244 602 251 q 536 185 571 219 q 456 119 502 151 q 356 65 411 88 q 239 42 301 42 q 243 152 239 94 q 261 258 248 210 l 250 264 m 520 12 q 484 -51 503 -19 q 442 -109 464 -83 q 397 -151 420 -134 q 351 -168 374 -168 q 308 -155 327 -168 q 277 -120 290 -143 q 255 -67 263 -97 q 243 -1 247 -37 q 335 20 293 7 q 421 60 377 33 q 515 133 466 87 q 630 250 564 178 l 520 12 m 250 264 l 261 260 q 261 280 263 278 q 250 264 258 282 "},"I":{"x_min":-124,"x_max":806.140625,"ha":827,"o":"m -78 154 q -61 169 -65 172 q -64 146 -57 165 q -92 14 -85 85 q -88 -117 -100 -56 q -43 -218 -76 -177 q 49 -259 -9 -259 q 141 -225 95 -259 q 228 -147 187 -191 q 300 -55 269 -102 q 348 19 332 -8 q 395 109 366 51 q 457 240 423 167 q 525 396 490 313 q 594 564 561 479 q 655 729 627 649 q 701 878 683 810 q 636 825 673 857 q 559 755 598 793 q 484 672 520 717 q 418 581 447 628 q 380 506 400 549 q 357 422 361 464 q 346 398 354 395 q 339 422 339 401 q 357 514 344 463 q 393 602 369 565 q 460 693 419 649 q 545 775 501 736 q 634 849 590 814 q 712 913 679 884 q 729 956 720 934 q 746 998 737 978 q 765 1034 755 1018 q 786 1054 775 1049 q 800 1054 795 1059 q 805 1038 804 1049 q 804 1016 807 1028 q 797 993 801 1003 q 773 949 786 971 q 743 907 761 927 q 716 815 736 879 q 666 667 695 751 q 601 486 637 582 q 526 296 565 389 q 448 122 487 203 q 373 -11 409 41 q 325 -81 355 -37 q 254 -167 295 -125 q 162 -243 213 -210 q 49 -276 110 -276 q -27 -254 5 -276 q -82 -195 -60 -233 q -114 -111 -104 -158 q -124 -15 -124 -63 q -112 78 -124 33 q -78 154 -100 123 "},"G":{"x_min":44,"x_max":1508,"ha":1190,"o":"m 338 -126 q 286 -255 286 -185 q 340 -374 286 -328 q 504 -424 399 -424 q 738 -326 598 -424 q 1053 93 865 -244 q 1124 116 1116 112 q 1148 144 1137 131 q 1166 168 1159 157 q 1127 244 1150 220 q 1222 432 1188 364 q 1266 516 1256 499 q 1285 522 1277 520 q 1296 527 1294 524 q 1359 664 1334 566 q 1360 696 1363 677 q 1349 715 1357 715 q 1342 710 1346 715 q 1304 677 1320 691 q 1277 653 1288 663 q 1188 480 1243 610 q 1181 471 1182 473 q 1040 366 1132 424 q 813 242 948 309 q 526 124 652 162 q 305 87 399 87 q 129 128 187 87 q 72 248 72 169 q 92 363 72 297 q 531 805 171 600 q 1207 1005 883 1005 q 1238 1005 1223 1005 q 1269 1003 1253 1005 q 1437 930 1376 992 q 1466 893 1452 913 q 1491 846 1480 873 q 1501 835 1495 837 q 1508 841 1508 834 q 1503 855 1508 848 q 1417 998 1478 937 q 1264 1065 1352 1065 q 545 858 927 1065 q 62 370 151 644 q 48 315 52 342 q 44 262 44 287 q 121 105 44 158 q 205 67 158 80 q 311 54 252 54 q 508 85 398 54 q 752 181 617 117 q 960 293 863 234 q 1144 414 1056 352 q 1160 426 1159 426 q 1162 423 1162 426 q 1155 402 1162 417 q 1076 234 1110 307 q 1017 106 1041 162 q 783 60 874 80 q 649 29 691 40 q 338 -126 420 -36 m 1005 85 q 729 -309 848 -214 q 501 -393 624 -393 q 347 -359 402 -393 q 300 -268 300 -322 q 356 -150 300 -202 q 608 -18 436 -80 q 734 20 666 2 q 881 57 802 38 l 1005 85 m 1119 225 q 1133 180 1137 207 q 1116 141 1133 153 q 1089 126 1101 132 q 1066 117 1077 120 q 1096 180 1083 153 q 1119 225 1110 206 "},"`":{"x_min":508,"x_max":728.25,"ha":369,"o":"m 723 737 q 626 829 669 790 q 552 898 584 869 q 538 904 546 904 q 508 873 508 904 q 516 859 508 865 q 628 783 578 817 q 714 724 677 749 q 727 724 720 720 q 723 737 730 731 "},"·":{"x_min":42,"x_max":114,"ha":157,"o":"m 114 58 q 105 47 114 54 q 86 37 97 41 q 66 31 76 33 q 53 34 57 30 q 47 49 49 38 q 43 71 45 59 q 42 93 42 83 q 44 106 42 102 q 55 116 47 111 q 73 126 64 122 q 92 132 83 130 q 105 130 101 134 q 109 117 108 127 q 112 95 111 106 q 114 73 114 84 q 114 58 114 62 "},"¿":{"x_min":-100,"x_max":494.34375,"ha":556,"o":"m 383 411 q 386 401 383 408 q 393 384 390 393 q 399 365 397 375 q 398 347 401 356 q 377 325 393 332 q 308 301 352 318 q 198 258 263 285 q 90 213 133 232 q 22 179 47 193 q -100 -16 -100 107 q -84 -110 -100 -57 q -54 -175 -73 -145 q -9 -231 -36 -205 q 134 -293 51 -293 q 182 -287 159 -293 q 237 -262 209 -280 q 289 -212 265 -244 q 296 -193 296 -202 q 291 -187 296 -187 q 275 -201 289 -187 q 179 -246 246 -246 q 57 -203 112 -246 q -26 -91 -5 -162 q -36 -48 -33 -68 q -40 -9 -40 -28 q 148 217 -40 119 q 447 326 246 269 q 457 339 457 331 q 432 386 457 354 q 393 420 408 420 q 383 411 383 420 m 415 549 q 413 534 413 544 q 415 507 413 523 q 419 483 417 491 q 424 471 421 474 q 429 468 426 468 q 435 468 432 468 q 465 476 446 468 q 491 493 484 486 q 491 530 497 501 q 483 564 488 558 q 468 570 477 570 q 435 562 453 570 q 415 549 418 554 "},"ý":{"x_min":-692.140625,"x_max":1062,"ha":927,"o":"m 1052 553 q 1018 600 1041 581 q 974 629 995 620 q 956 631 960 636 q 964 617 952 625 q 1002 584 985 604 q 1027 540 1020 564 q 1027 500 1031 521 q 1016 460 1024 479 q 998 425 1007 442 q 981 399 988 408 q 916 326 960 365 q 814 245 871 286 q 691 165 756 204 q 563 94 625 126 q 580 212 574 146 q 587 340 587 278 q 591 380 595 364 q 578 404 588 396 q 555 413 568 413 q 532 401 542 413 q 452 317 500 365 q 349 223 403 269 q 241 135 295 176 q 148 72 188 94 q 84 53 103 44 q 85 112 66 61 q 125 201 99 150 q 182 303 150 251 q 244 401 213 354 q 300 479 275 449 q 310 506 313 496 q 297 519 307 517 q 272 514 286 521 q 245 489 257 507 q 187 407 221 457 q 119 299 153 357 q 57 181 85 242 q 17 67 28 121 q 22 39 14 53 q 43 14 30 25 q 74 1 57 4 q 106 5 91 -2 q 201 64 150 28 q 301 142 252 100 q 395 226 350 183 q 474 304 441 269 q 523 292 523 354 q 523 244 523 272 q 520 184 523 215 q 514 121 517 153 q 506 65 510 90 q 325 -30 420 18 q 131 -130 230 -80 q -64 -234 32 -181 q -251 -339 -161 -286 q -421 -443 -342 -392 q -561 -547 -500 -495 q -644 -633 -614 -591 q -685 -715 -675 -675 q -689 -791 -696 -754 q -661 -861 -682 -828 q -596 -918 -637 -897 q -501 -946 -554 -938 q -387 -954 -447 -954 q -264 -941 -326 -954 q 43 -813 -93 -906 q 283 -584 180 -719 q 456 -284 386 -450 q 560 58 525 -119 q 680 124 613 87 q 812 203 746 161 q 932 292 877 246 q 1018 383 988 337 q 1041 423 1031 401 q 1056 466 1051 444 q 1062 510 1062 488 q 1052 553 1062 532 m 502 33 q 402 -294 471 -136 q 232 -580 332 -451 q 4 -798 131 -708 q -268 -920 -122 -888 q -374 -932 -318 -932 q -478 -924 -429 -932 q -567 -897 -528 -917 q -626 -838 -607 -877 q -642 -766 -642 -804 q -626 -693 -642 -729 q -585 -627 -610 -658 q -530 -570 -559 -595 q -280 -390 -414 -474 q -9 -233 -146 -306 q 258 -93 127 -159 q 502 33 389 -27 m 417 667 q 475 688 443 676 q 540 709 507 699 q 602 729 573 720 q 653 746 632 739 q 666 758 664 749 q 665 777 668 768 q 653 792 662 786 q 637 795 645 799 q 588 770 617 785 q 527 740 559 756 q 466 710 496 725 q 410 683 435 695 q 404 670 400 678 q 417 667 409 663 "},"º":{"x_min":62,"x_max":241,"ha":279,"o":"m 241 684 q 214 745 241 720 q 150 770 188 770 q 88 745 114 770 q 62 684 62 720 q 88 622 62 648 q 150 597 114 597 q 214 622 188 597 q 241 684 241 648 m 150 613 q 100 634 121 613 q 80 684 80 655 q 100 733 80 712 q 150 754 121 754 q 200 733 178 754 q 223 684 223 712 q 200 634 223 655 q 150 613 178 613 "},"я":{"x_min":53,"x_max":667,"ha":718,"o":"m 552 265 q 484 216 506 233 q 444 182 462 199 q 402 143 426 165 q 329 77 377 120 q 264 25 297 47 q 203 -11 232 3 q 152 -33 175 -26 q 116 -40 129 -40 q 83 -31 96 -40 q 64 -12 71 -23 q 55 10 57 -1 q 53 26 53 21 q 60 65 53 47 q 79 95 68 82 q 103 117 90 108 q 125 128 115 125 q 124 105 124 120 q 129 76 124 90 q 146 51 135 61 q 178 41 157 41 q 234 53 207 41 q 291 88 262 65 q 341 127 307 99 q 412 185 376 156 q 349 190 376 178 q 304 225 322 203 q 277 276 286 247 q 268 331 268 304 q 292 416 268 379 q 349 477 316 453 q 419 514 383 502 q 479 527 455 527 q 592 464 584 527 q 528 271 600 401 q 556 290 541 279 q 586 310 572 300 q 614 327 601 320 q 633 338 626 335 q 650 342 643 346 q 662 331 658 339 q 667 313 667 322 q 664 299 667 303 q 630 247 648 278 q 595 182 612 215 q 567 118 579 149 q 552 67 555 88 q 550 40 548 49 q 558 31 552 32 q 573 31 565 29 q 588 36 581 34 q 606 43 595 39 q 623 50 616 47 q 641 53 639 61 q 629 34 643 45 q 603 13 618 22 q 576 -2 588 3 q 559 0 569 -5 q 541 11 549 3 q 527 30 533 19 q 522 49 522 40 q 539 131 522 89 q 572 210 556 174 q 575 231 575 217 q 573 256 575 245 q 566 272 571 267 q 552 265 561 276 m 544 417 q 536 463 544 446 q 517 490 528 481 q 492 502 505 499 q 472 506 480 506 q 362 467 408 506 q 317 361 317 428 q 321 304 317 331 q 340 258 326 276 q 377 231 354 239 q 436 231 400 222 q 478 254 458 236 q 512 298 498 272 q 535 354 527 324 q 544 417 544 385 "},"\u0005":{"x_min":49.546875,"x_max":422.359375,"ha":481,"o":"m 50 1094 q 61 1030 47 1062 q 100 973 76 998 q 157 930 125 947 q 225 914 190 914 q 292 925 258 914 q 353 959 326 937 q 399 1014 380 982 q 422 1090 418 1047 q 411 1099 423 1099 q 395 1090 398 1099 q 356 1031 379 1053 q 309 996 333 1008 q 265 980 286 983 q 233 977 244 977 q 204 979 220 977 q 168 993 188 982 q 125 1028 148 1004 q 76 1094 102 1053 q 61 1102 72 1102 q 50 1094 51 1102 "},"Ё":{"x_min":-101,"x_max":904,"ha":830,"o":"m 890 748 q 828 692 874 720 q 729 646 781 665 q 714 651 714 641 q 722 669 714 660 q 799 716 765 688 q 862 794 834 744 q 865 836 873 817 q 841 862 856 855 q 758 882 804 874 q 664 894 712 890 q 566 899 616 899 q 473 899 518 899 q 399 811 440 864 q 319 703 358 759 q 248 594 280 647 q 197 506 215 541 q 343 524 261 515 q 508 533 425 533 q 670 533 591 533 q 806 517 748 533 q 827 505 819 515 q 838 487 836 495 q 836 474 841 479 q 813 475 830 469 q 727 492 779 487 q 615 497 675 497 q 491 491 555 497 q 366 479 426 486 q 255 463 307 472 q 171 450 204 455 q 117 316 139 387 q 96 169 96 244 q 109 89 96 120 q 146 38 122 58 q 201 11 169 19 q 271 4 233 4 q 407 22 339 4 q 535 65 474 40 q 648 119 597 90 q 737 169 700 147 q 752 168 748 176 q 745 151 755 161 q 656 87 708 122 q 543 21 604 52 q 414 -29 482 -9 q 276 -50 346 -50 q 198 -36 237 -50 q 126 2 158 -23 q 73 69 94 29 q 53 164 53 109 q 67 294 53 228 q 105 420 82 360 q 84 423 94 420 q 62 433 75 426 q 36 460 41 442 q 58 487 30 479 q 96 496 75 491 q 136 503 116 501 q 192 604 161 551 q 257 710 224 658 q 324 809 290 762 q 389 885 358 857 q 267 885 326 885 q 154 871 207 885 q 142 860 144 868 q 153 850 140 852 q 162 843 161 847 q 168 837 164 840 q 175 824 176 833 q 162 820 173 815 q 115 822 146 822 q 50 822 85 822 q -18 822 15 822 q -77 813 -52 822 q -95 819 -89 810 q -101 838 -101 827 q -94 858 -101 849 q -77 871 -88 868 q 36 897 -27 886 q 166 915 99 908 q 298 923 233 923 q 415 923 363 923 q 444 965 429 948 q 473 993 458 982 q 495 999 484 1001 q 516 988 507 997 q 531 965 525 979 q 538 935 537 951 q 707 924 625 935 q 854 889 790 914 q 882 866 870 883 q 898 829 893 850 q 904 786 904 808 q 890 748 904 765 m 599 1139 q 590 1128 599 1135 q 571 1117 582 1122 q 549 1111 560 1112 q 534 1114 538 1110 q 529 1129 531 1118 q 526 1152 527 1140 q 525 1173 525 1164 q 527 1189 525 1185 q 538 1198 529 1193 q 557 1209 547 1204 q 577 1215 568 1214 q 589 1212 586 1217 q 594 1199 592 1210 q 597 1177 596 1189 q 599 1154 599 1165 q 599 1139 599 1143 m 457 1140 q 448 1130 457 1136 q 429 1119 440 1123 q 408 1112 418 1114 q 395 1115 397 1111 q 389 1130 392 1119 q 385 1153 386 1142 q 384 1176 384 1165 q 386 1190 384 1186 q 398 1201 389 1194 q 417 1211 407 1207 q 434 1217 426 1215 q 447 1215 443 1219 q 452 1202 450 1212 q 455 1179 454 1192 q 457 1155 457 1167 q 457 1140 457 1144 "},"\b":{"x_min":50,"x_max":166,"ha":199,"o":"m 166 1009 q 148 1049 166 1032 q 107 1066 131 1066 q 66 1049 83 1066 q 50 1009 50 1032 q 66 969 50 985 q 107 954 83 954 q 148 969 131 954 q 166 1009 166 985 m 107 965 q 75 978 87 965 q 63 1009 63 991 q 75 1041 63 1028 q 107 1055 87 1055 q 139 1041 126 1055 q 153 1009 153 1028 q 139 978 153 991 q 107 965 126 965 "},";":{"x_min":12,"x_max":323,"ha":315,"o":"m 30 -158 q 184 24 159 -50 q 186 35 186 27 q 177 83 186 58 q 158 110 169 108 q 120 92 148 113 q 98 62 92 71 q 112 28 108 42 q 116 3 117 14 q 17 -142 105 -80 q 12 -151 12 -147 q 21 -163 12 -163 q 30 -158 27 -163 m 323 280 q 310 366 323 353 q 303 369 307 369 q 267 358 289 369 q 241 339 245 348 q 237 326 237 337 q 239 299 237 316 q 249 260 245 267 q 262 254 253 254 q 301 263 280 254 q 323 280 323 273 "},"Г":{"x_min":43.21875,"x_max":1540,"ha":919,"o":"m 1200 923 q 1231 957 1224 953 q 1247 966 1238 961 q 1267 975 1257 971 q 1284 980 1277 980 q 1309 928 1309 980 q 1297 899 1309 907 q 1243 903 1289 895 q 1095 753 1167 836 q 957 569 1024 670 l 936 540 q 741 302 828 397 q 567 138 654 207 q 435 51 474 72 q 363 23 399 35 q 289 3 326 11 q 234 -1 268 -1 q 95 36 144 -1 q 46 150 46 74 q 45 204 40 175 q 65 263 51 234 q 117 332 88 319 q 125 297 153 332 q 72 149 72 283 q 128 47 72 82 q 178 27 150 35 q 240 20 207 20 q 263 20 253 20 q 285 22 274 20 q 408 63 347 35 q 529 138 470 90 q 635 225 599 189 q 721 320 672 261 q 865 505 801 415 l 914 576 q 966 647 932 604 q 1050 749 1000 689 q 1147 863 1110 821 q 1200 923 1185 905 m 1462 1041 q 1454 1056 1447 1054 q 1473 1050 1462 1057 q 1524 998 1508 1031 q 1540 930 1540 964 q 1513 869 1540 896 q 1436 837 1486 842 q 1277 843 1358 827 q 1111 887 1196 859 q 938 948 1027 914 q 755 1006 849 981 q 563 1042 661 1031 q 361 1038 465 1053 q 239 979 287 1025 q 168 865 191 932 q 145 718 145 797 q 165 563 145 639 q 226 423 186 487 q 326 319 267 358 q 426 288 372 288 q 529 304 479 288 q 617 357 578 321 q 674 448 657 393 q 685 454 675 453 q 695 448 695 455 q 645 349 686 391 q 550 285 604 308 q 439 262 496 262 q 343 283 382 262 q 214 408 265 333 q 140 569 163 482 q 117 744 117 655 q 150 909 117 832 q 234 1020 181 980 q 357 1076 288 1060 q 505 1092 426 1092 q 666 1075 584 1092 q 826 1031 748 1058 q 975 978 905 1005 q 1224 896 1113 924 q 1406 869 1334 869 q 1508 897 1480 869 q 1509 984 1537 925 q 1489 1016 1501 1003 q 1462 1041 1477 1028 "},"6":{"x_min":96,"x_max":782,"ha":660,"o":"m 582 132 q 638 290 638 208 q 544 419 638 390 q 498 427 530 427 q 250 372 385 427 q 351 508 299 446 q 464 625 403 571 q 755 786 615 761 q 782 799 782 792 q 766 806 782 806 q 758 806 764 806 q 750 804 754 806 q 276 504 514 762 q 96 130 96 309 q 123 29 96 68 q 208 -27 151 -8 q 241 -35 224 -31 q 276 -39 258 -39 q 458 18 364 -39 q 529 71 498 43 q 582 132 560 100 m 514 373 q 567 257 567 348 q 561 206 567 232 q 543 155 555 180 q 428 33 507 82 q 275 -15 346 -15 q 194 11 225 -15 q 156 119 156 44 q 239 351 156 251 q 327 379 280 370 q 425 389 374 389 q 514 373 482 389 "},"n":{"x_min":7.109375,"x_max":773,"ha":579,"o":"m 26 33 q 9 38 10 30 q 12 61 3 44 q 120 246 44 129 q 188 345 156 302 q 248 423 220 389 q 259 434 252 429 q 282 441 267 438 q 292 441 290 442 q 288 431 292 435 q 197 309 235 370 q 131 186 159 249 q 126 168 126 179 q 137 153 126 153 q 153 162 145 153 q 234 237 192 200 q 321 310 276 274 q 462 407 425 393 q 496 429 481 424 q 545 435 527 443 q 543 403 564 428 q 364 111 444 276 q 287 -149 287 -52 q 310 -248 278 -213 q 386 -279 339 -279 q 427 -273 409 -279 q 625 -149 506 -251 q 758 30 758 -37 q 751 50 758 44 q 736 58 745 56 q 721 61 728 61 q 716 65 716 61 q 727 79 716 73 q 749 85 739 85 q 773 52 773 85 q 764 12 773 37 q 720 -72 752 -27 q 639 -165 688 -116 q 350 -313 506 -297 q 259 -283 295 -319 q 223 -152 223 -241 q 314 98 235 -52 q 381 221 346 162 q 457 336 417 281 q 462 350 462 342 q 436 373 462 373 q 414 366 425 373 q 257 235 335 310 q 96 63 178 159 q 26 33 82 45 "},"p":{"x_min":-1319,"x_max":696.96875,"ha":580,"o":"m 57 -106 q -24 -103 19 -103 q 57 73 18 3 q 130 193 96 143 q 194 282 164 243 q 250 366 224 321 q 344 408 303 394 q 416 422 385 422 q 500 346 500 422 q 429 178 500 259 q 221 107 296 134 q 128 69 146 80 q 123 55 123 63 q 152 28 123 25 q 447 157 331 49 q 578 200 518 181 q 686 232 637 218 q 696 238 692 234 q 696 242 697 239 q 686 241 692 243 q 491 196 661 241 q 556 358 556 285 q 456 450 556 450 q 375 440 419 450 q 274 408 331 430 q 374 573 326 499 q 464 708 422 647 q 476 722 472 720 q 481 729 481 723 q 462 733 481 738 q 413 705 419 716 q 288 516 340 597 q 200 383 235 436 q 127 332 135 356 q 150 291 123 316 q 91 182 120 236 q 32 74 62 127 q 4 24 15 46 q -16 -17 -6 2 q -36 -57 -26 -37 q -59 -104 -46 -78 q -294 -122 -177 -104 q -532 -173 -410 -141 q -844 -292 -703 -219 q -1097 -463 -985 -365 q -1319 -903 -1319 -654 q -1293 -1060 -1319 -989 q -1216 -1195 -1267 -1132 q -964 -1316 -1112 -1316 q -774 -1264 -873 -1316 q -419 -908 -595 -1165 q -76 -233 -244 -651 q -53 -177 -65 -205 q -31 -124 -42 -150 q 57 -127 19 -124 q 78 -118 78 -131 q 57 -106 78 -109 m -110 -227 q -172 -364 -142 -295 q -232 -500 -202 -433 q -349 -730 -289 -626 q -469 -921 -409 -834 q -786 -1241 -630 -1157 q -954 -1285 -864 -1285 q -1084 -1260 -1024 -1285 q -1195 -1184 -1145 -1236 q -1302 -933 -1302 -1080 q -1049 -484 -1302 -700 q -799 -313 -936 -386 q -498 -193 -661 -241 q -278 -142 -384 -159 q -66 -125 -171 -125 q -91 -181 -80 -155 q -110 -227 -102 -206 "},"‡":{"x_min":26.265625,"x_max":422.78125,"ha":440,"o":"m 408 745 q 422 758 419 748 q 413 768 425 768 l 287 768 q 314 853 305 824 q 331 903 323 882 q 348 946 338 924 q 377 1013 358 968 q 377 1032 383 1028 q 359 1033 370 1036 q 336 1020 348 1029 q 319 1002 323 1011 q 295 938 304 961 q 283 902 287 915 q 277 881 279 889 q 271 860 275 872 q 262 827 268 847 q 245 770 256 807 q 214 770 236 770 q 170 770 193 770 q 127 770 147 770 q 105 766 109 770 q 119 751 104 761 q 154 730 134 741 q 191 708 173 719 q 216 688 209 697 q 218 672 220 684 q 211 643 216 659 q 202 609 206 627 q 194 577 197 591 q 175 509 184 550 q 161 438 165 469 q 135 440 152 438 q 97 442 118 442 q 58 442 77 442 q 26 435 38 442 q 39 419 25 429 q 74 398 54 410 q 112 376 94 387 q 137 357 130 365 l 141 357 q 122 279 134 330 q 97 168 109 227 q 79 51 86 108 q 76 -43 72 -5 l 177 357 q 220 380 195 366 q 268 407 245 394 q 304 428 290 419 q 319 438 319 438 l 197 438 l 256 672 q 289 699 269 687 q 331 719 309 711 q 372 734 352 727 q 408 745 393 741 "},"Ю":{"x_min":24.1875,"x_max":2180,"ha":2016,"o":"m 1028 443 q 1194 705 1065 579 q 1189 745 1189 721 q 1260 911 1189 824 q 1476 1062 1342 1005 q 1738 1113 1602 1113 q 1842 1104 1792 1113 q 2100 939 2006 1079 q 2180 699 2180 824 q 2180 680 2180 689 q 2178 664 2180 671 q 2119 469 2163 560 q 2003 293 2075 378 q 1691 66 1876 150 q 1366 -6 1520 -6 q 1124 76 1223 -6 q 1012 320 1012 169 q 1019 402 1012 360 q 959 409 988 405 q 877 409 917 409 q 804 409 837 409 q 745 409 772 409 q 720 401 729 409 q 706 382 712 394 q 681 315 697 357 q 647 227 665 273 q 613 138 629 181 q 591 70 598 95 q 597 61 588 59 q 637 78 605 63 q 659 81 654 86 q 643 63 665 75 q 580 9 597 35 q 574 -2 577 3 q 565 -11 570 -8 q 555 -12 560 -14 q 542 2 549 -10 q 546 62 534 17 q 580 164 558 107 q 627 280 602 221 q 669 384 652 339 q 655 400 673 400 q 611 386 637 400 q 581 382 590 379 q 572 393 573 385 q 576 409 572 400 q 586 423 581 418 q 623 440 601 435 q 661 446 645 446 q 681 447 676 446 q 695 454 693 449 q 705 478 698 459 q 740 567 723 521 q 770 657 757 613 q 791 743 783 701 q 798 823 798 785 q 775 900 798 872 q 713 940 751 929 q 625 947 674 952 q 520 925 575 943 q 409 879 465 908 q 301 813 352 851 q 193 719 242 772 q 109 614 143 667 q 59 508 75 560 q 50 412 43 456 q 87 336 56 368 q 180 292 118 304 q 212 273 212 286 q 203 264 212 267 q 178 264 195 261 q 70 315 107 275 q 25 411 32 354 q 40 536 18 468 q 107 672 62 604 q 222 801 153 739 q 380 907 291 863 q 603 981 508 971 q 755 954 698 991 q 827 837 812 917 q 808 643 841 757 q 793 600 804 632 l 759 499 q 743 448 752 478 q 865 448 805 448 q 974 441 926 448 q 1026 435 995 438 q 1028 443 1027 438 m 1892 989 q 1906 979 1906 987 q 1890 969 1906 965 q 1813 978 1854 978 q 1445 870 1648 978 q 1216 702 1272 781 q 1234 657 1219 678 q 1273 615 1249 635 q 1381 577 1324 577 q 1397 567 1397 577 q 1374 558 1397 553 q 1262 599 1313 558 q 1198 682 1212 641 q 1112 574 1159 648 q 1051 441 1066 495 q 1048 434 1049 437 q 1101 430 1076 430 q 1112 428 1102 430 q 1135 425 1122 427 q 1161 422 1148 424 q 1186 418 1175 420 q 1198 408 1200 417 q 1169 400 1197 400 l 1143 400 q 1129 398 1137 400 q 1106 398 1113 398 q 1092 398 1098 398 q 1077 398 1086 398 q 1048 398 1067 398 q 1042 398 1045 398 l 1040 380 q 1036 323 1036 351 q 1123 113 1036 190 q 1366 37 1210 37 q 1715 130 1531 37 q 2025 377 1903 225 q 2159 708 2159 541 q 2081 941 2159 838 q 1972 1032 2036 1000 q 1824 1077 1907 1063 q 1783 1082 1804 1082 q 1743 1082 1763 1082 q 1477 1027 1607 1082 q 1277 899 1352 978 q 1211 759 1211 828 q 1211 745 1211 752 q 1213 731 1212 738 q 1473 906 1310 829 q 1813 996 1654 996 q 1853 993 1833 996 q 1892 989 1872 991 "},"S":{"x_min":57,"x_max":1235,"ha":874,"o":"m 179 280 q 57 145 57 228 q 171 17 57 56 q 354 -10 247 -10 q 493 3 426 -10 q 625 44 561 17 q 774 245 774 106 q 735 378 774 313 q 819 383 750 383 q 870 390 870 383 q 854 396 870 396 q 776 396 811 396 q 719 396 743 396 q 572 586 636 507 q 469 716 509 666 q 401 884 401 818 q 484 1026 401 968 q 907 1150 650 1150 q 996 1145 954 1150 q 1074 1130 1038 1141 q 1170 1069 1133 1113 q 1209 950 1209 1019 q 1205 906 1209 926 q 1203 880 1202 886 q 1209 880 1204 873 q 1219 900 1214 886 q 1231 941 1228 920 q 1235 980 1235 961 q 1200 1093 1235 1040 q 1113 1155 1163 1137 q 944 1176 1046 1176 q 462 1044 668 1176 q 365 888 365 981 q 445 698 365 804 q 569 531 513 607 q 672 393 625 455 q 399 351 522 380 q 179 280 276 323 m 683 373 q 731 246 731 316 q 607 78 731 141 q 477 31 544 47 q 337 16 411 16 q 254 20 294 16 q 174 35 214 24 q 117 66 142 43 q 81 127 81 98 q 198 249 81 189 q 469 338 304 305 q 561 355 508 346 q 683 373 615 364 "},"/":{"x_min":-76,"x_max":870,"ha":569,"o":"m -57 -108 q 48 49 -45 -58 q 315 324 142 157 q 606 592 472 475 q 853 792 740 709 q 870 814 870 805 q 857 826 870 826 q 829 814 845 826 q 587 616 721 735 q 289 337 453 496 q -76 -104 -66 -11 q -73 -138 -76 -129 q -57 -108 -64 -138 "},"y":{"x_min":-1115,"x_max":1020,"ha":552,"o":"m 369 0 q -36 -98 161 -40 q -427 -231 -234 -156 q -1093 -701 -986 -452 q -1115 -800 -1115 -749 q -946 -1082 -1115 -957 q -580 -1210 -780 -1210 q 412 -16 3 -1210 q 824 13 572 13 q 881 13 856 13 q 926 13 907 13 q 995 -38 995 13 q 912 -179 995 -99 q 899 -197 899 -189 q 901 -199 899 -199 q 921 -187 910 -199 q 1011 -95 993 -130 q 1020 -65 1020 -83 q 1011 -30 1020 -46 q 990 0 1003 -13 q 960 24 976 14 q 929 36 944 33 q 823 45 892 45 q 419 6 630 45 q 507 284 479 184 q 519 304 514 297 q 529 319 523 312 q 520 344 532 332 q 485 357 508 357 q 466 346 475 355 q 450 325 457 337 q 398 282 430 307 q 319 225 365 257 q 216 159 261 184 q 139 121 171 133 q 114 121 128 116 q 103 139 103 125 q 107 157 103 146 q 190 293 133 209 q 287 401 258 389 q 265 424 284 424 q 204 400 254 422 q 151 369 157 379 q 149 343 147 361 q 148 319 151 325 q 22 78 30 105 q 28 58 19 68 q 48 49 36 49 q 61 51 53 49 q 273 172 140 82 q 443 300 375 240 q 434 248 440 280 q 416 169 428 216 q 369 0 391 61 m -1058 -739 q -514 -299 -967 -508 q 364 -23 -135 -126 q 225 -377 303 -209 q 55 -696 148 -544 q -582 -1196 -249 -1196 q -929 -1080 -775 -1196 q -1077 -826 -1077 -968 q -1072 -781 -1077 -803 q -1058 -739 -1067 -760 "},"g":{"x_min":-1096,"x_max":1039,"ha":599,"o":"m 547 399 q 555 396 552 399 q 575 384 566 393 q 585 363 585 374 q 569 329 582 346 q 515 168 547 262 q 441 -50 484 73 q 843 -16 654 -16 q 903 -16 877 -16 q 948 -20 929 -16 q 979 -32 963 -22 q 1009 -56 995 -42 q 1030 -88 1022 -71 q 1039 -122 1039 -104 q 1032 -153 1039 -139 q 941 -244 1014 -187 q 920 -256 929 -256 q 918 -254 918 -256 q 931 -236 918 -246 q 1014 -99 1014 -160 q 945 -49 1014 -49 q 900 -49 926 -49 q 843 -49 875 -49 q 614 -49 716 -49 q 431 -74 512 -49 q -561 -1268 22 -1268 q -927 -1138 -761 -1268 q -1096 -848 -1096 -1009 q -1073 -746 -1096 -798 q -408 -286 -968 -502 q 388 -58 -27 -137 q 463 166 420 12 q 475 210 470 190 q 486 247 480 230 q 420 194 462 225 q 315 118 377 162 q 177 27 236 62 q 79 -25 119 -7 q 52 -30 68 -30 q 3 19 3 -30 q 15 62 3 39 q 243 298 80 196 q 547 399 405 399 m -1040 -796 q -1057 -883 -1057 -840 q -911 -1138 -1057 -1028 q -563 -1254 -756 -1254 q 75 -758 -227 -1254 q 245 -437 168 -605 q 383 -79 322 -269 q -494 -356 -118 -185 q -1040 -796 -948 -567 m 462 253 q 501 329 497 279 q 500 331 501 331 q 500 332 500 331 q 501 337 500 336 q 491 364 501 363 q 427 357 476 370 q 226 257 326 333 q 91 87 120 173 q 89 76 90 80 q 89 65 89 72 q 122 21 89 21 q 293 122 151 21 q 392 195 350 162 q 462 253 434 228 "},"²":{"x_min":18,"x_max":311,"ha":332,"o":"m 238 521 q 213 520 227 520 q 184 520 199 520 q 110 520 148 520 q 29 520 72 520 q 18 522 18 515 q 40 539 18 536 q 80 551 59 544 q 121 567 101 557 q 212 622 170 589 q 283 721 274 669 q 272 760 286 740 q 230 786 255 782 q 208 791 219 791 q 130 767 170 791 q 126 768 126 764 q 137 785 126 778 q 238 810 184 810 q 295 782 276 810 q 311 736 311 760 q 231 624 311 681 q 168 581 199 600 q 105 551 137 562 q 97 546 97 548 q 236 535 97 535 q 250 528 250 535 q 238 521 250 521 "},"–":{"x_min":51,"x_max":425,"ha":464,"o":"m 77 238 q 242 238 166 238 q 383 238 319 238 q 425 258 425 238 q 395 270 425 270 l 103 270 q 51 248 51 270 q 77 238 51 238 "},"ë":{"x_min":14,"x_max":641.734375,"ha":470,"o":"m 637 410 q 639 423 644 421 q 626 415 633 426 q 582 383 611 400 q 522 362 553 365 q 469 356 500 356 q 403 356 439 356 q 328 356 367 356 q 254 356 291 356 q 375 395 321 365 q 448 468 429 425 q 460 516 460 488 q 447 565 460 544 q 415 598 435 587 q 367 599 394 609 q 259 526 320 579 q 144 403 198 474 q 52 248 90 331 q 14 81 14 165 q 27 24 14 51 q 61 -20 41 -1 q 105 -50 81 -40 q 150 -56 129 -61 q 201 -41 175 -52 q 251 -16 227 -30 q 296 12 276 -2 q 333 40 317 27 q 338 52 344 47 q 321 50 333 58 q 281 25 303 37 q 233 3 258 13 q 184 -14 209 -6 q 137 -25 159 -22 q 103 -21 119 -25 q 74 -6 87 -18 q 53 27 61 5 q 46 82 46 48 q 57 153 46 118 q 83 219 68 188 q 115 279 98 251 q 148 332 133 308 q 244 332 190 332 q 354 332 299 332 q 453 332 408 332 q 522 336 498 332 q 594 368 562 343 q 637 410 625 392 m 416 480 q 371 430 399 452 q 309 390 344 407 q 237 364 275 374 q 163 354 200 354 q 260 463 209 411 q 364 548 311 515 q 398 561 383 561 q 423 551 415 561 q 432 523 432 541 q 416 480 432 505 m 474 734 q 474 749 474 738 q 472 772 474 761 q 469 793 471 783 q 462 806 467 804 q 451 808 460 811 q 432 802 443 806 q 413 793 422 798 q 402 783 405 787 q 400 769 400 780 q 401 748 400 759 q 405 727 402 737 q 411 712 408 716 q 426 709 415 708 q 447 715 437 711 q 465 724 457 719 q 474 734 474 730 m 333 736 q 333 751 333 740 q 333 773 333 762 q 330 795 333 784 q 325 808 328 805 q 313 811 321 812 q 294 804 304 809 q 275 794 284 799 q 263 784 266 788 q 261 771 261 781 q 262 749 261 761 q 267 728 264 738 q 273 713 270 717 q 287 711 277 709 q 306 716 296 712 q 324 726 316 720 q 333 736 333 731 "},"ƒ":{"x_min":-655,"x_max":851,"ha":593,"o":"m 73 265 q 78 303 73 284 q 95 335 84 322 q 157 367 118 367 q 201 358 175 367 q 263 336 227 350 q 298 453 282 399 q 325 550 314 507 q 355 648 339 589 q 390 777 371 707 q 429 920 408 846 q 474 1059 450 993 q 526 1178 499 1126 q 585 1258 554 1230 q 630 1277 604 1273 q 675 1265 656 1281 q 729 1222 703 1265 q 777 1118 755 1180 q 816 985 799 1056 q 841 855 832 914 q 851 760 851 796 q 841 732 851 724 q 823 815 832 767 q 802 914 814 863 q 774 1016 789 966 q 738 1108 759 1067 q 692 1176 717 1149 q 635 1208 667 1203 q 625 1211 632 1210 q 614 1213 618 1212 q 572 1155 593 1194 q 532 1068 551 1117 q 494 962 513 1018 q 458 850 475 906 q 427 743 442 795 q 401 654 412 692 q 393 625 394 631 q 392 619 392 620 q 388 607 392 618 q 384 592 385 594 q 384 586 384 589 q 344 457 364 524 q 300 319 324 390 q 358 303 324 308 q 407 301 392 298 q 435 315 417 303 q 465 336 453 328 q 476 340 478 344 q 446 303 475 335 q 405 270 422 276 q 367 264 388 264 q 288 284 338 264 q 192 16 243 151 q 83 -241 141 -119 q -37 -464 25 -363 q -168 -625 -100 -564 q -328 -715 -249 -694 q -496 -686 -407 -736 q -577 -604 -545 -657 q -626 -491 -609 -551 q -649 -370 -643 -430 q -655 -262 -655 -309 q -637 -233 -651 -231 q -624 -258 -624 -234 q -624 -345 -624 -294 q -610 -454 -624 -397 q -568 -566 -597 -511 q -487 -662 -539 -620 q -413 -694 -453 -690 q -331 -686 -372 -698 q -252 -652 -290 -675 q -185 -604 -214 -630 q -63 -440 -124 -544 q 55 -210 -1 -336 q 163 49 113 -84 q 253 301 214 183 q 154 331 186 331 q 110 307 128 331 q 79 211 92 283 l 73 265 "},"б":{"x_min":31,"x_max":1773.453125,"ha":690,"o":"m 142 141 q 98 65 109 113 l 98 64 q 99 62 99 64 q 98 59 98 61 q 96 57 98 58 l 98 51 q 104 30 93 33 q 168 35 120 26 q 273 72 221 47 q 379 137 325 98 q 529 306 493 220 l 535 328 q 503 372 535 372 q 323 272 473 372 q 217 198 261 231 q 142 141 173 165 m 121 147 q 157 174 139 161 q 196 204 175 188 q 244 236 218 219 q 304 276 271 254 q 551 419 469 385 q 578 425 561 425 q 625 373 625 425 q 608 331 618 353 q 358 95 527 198 q 45 -6 188 -6 q 36 -1 45 -4 q 31 11 31 0 q 33 38 31 23 q 40 66 36 52 q 44 86 44 80 q 89 185 70 145 q 127 259 108 224 q 168 331 146 294 q 222 426 190 369 q 270 506 240 458 q 341 613 300 555 q 434 735 383 672 q 544 858 484 798 q 671 971 604 918 q 813 1061 738 1023 q 1002 1131 912 1112 q 1177 1150 1093 1150 q 1338 1150 1261 1150 q 1486 1161 1415 1150 q 1621 1206 1556 1172 q 1744 1312 1686 1240 q 1768 1332 1759 1332 q 1769 1312 1777 1332 q 1729 1233 1750 1268 q 1672 1170 1708 1198 q 1579 1120 1637 1143 q 1430 1076 1522 1097 q 1287 1068 1361 1059 q 1137 1078 1213 1078 q 982 1078 1061 1078 q 823 1043 904 1078 q 711 974 768 1018 q 600 874 654 931 q 494 754 546 818 q 398 626 443 689 q 316 501 353 562 q 254 392 279 441 l 121 147 "},"у":{"x_min":-1115,"x_max":1020,"ha":552,"o":"m 369 0 q 416 169 391 61 q 434 248 428 216 q 443 300 440 280 q 273 172 375 240 q 61 51 140 82 q 48 49 53 49 q 28 58 36 49 q 22 78 19 68 q 148 319 30 105 q 149 343 151 325 q 151 369 147 361 q 204 400 157 379 q 265 424 254 422 q 287 401 284 424 q 190 293 258 389 q 107 157 133 209 q 103 139 103 146 q 114 121 103 125 q 139 121 128 116 q 216 159 171 133 q 319 225 261 184 q 398 282 365 257 q 450 325 430 307 q 466 346 457 337 q 485 357 475 355 q 520 344 508 357 q 529 319 532 332 q 519 304 523 312 q 507 284 514 297 q 419 6 479 184 q 823 45 630 45 q 929 36 892 45 q 960 24 944 33 q 990 0 976 14 q 1011 -30 1003 -13 q 1020 -65 1020 -46 q 1011 -95 1020 -83 q 921 -187 993 -130 q 901 -199 910 -199 q 899 -197 899 -199 q 912 -179 899 -189 q 995 -38 995 -99 q 926 13 995 13 q 881 13 907 13 q 824 13 856 13 q 412 -16 572 13 q -580 -1210 3 -1210 q -946 -1082 -780 -1210 q -1115 -800 -1115 -957 q -1093 -701 -1115 -749 q -427 -231 -986 -452 q -36 -98 -234 -156 q 369 0 161 -39 m -1058 -739 q -1072 -781 -1067 -760 q -1077 -826 -1077 -803 q -929 -1080 -1077 -968 q -582 -1196 -775 -1196 q 55 -696 -249 -1196 q 225 -377 148 -544 q 364 -23 303 -209 q -514 -299 -135 -126 q -1058 -739 -967 -508 "},"J":{"x_min":-212.671875,"x_max":1240.5,"ha":922,"o":"m 1239 1033 q 1151 850 1198 945 q 1056 661 1104 755 q 962 482 1008 567 q 882 330 916 396 q 878 310 876 319 q 890 301 880 301 q 900 294 901 301 q 889 284 900 287 q 871 278 883 282 q 847 269 858 273 q 689 14 771 138 q 508 -226 607 -110 q 400 -339 458 -285 q 277 -439 343 -393 q 136 -520 211 -485 q -26 -577 61 -556 q -133 -579 -88 -592 q -197 -533 -177 -567 q -210 -449 -217 -500 q -162 -338 -203 -399 q -47 -203 -116 -270 q 104 -74 22 -136 q 278 42 186 -12 q 462 144 371 98 q 641 226 554 191 q 804 285 729 262 q 896 463 848 370 q 989 647 944 556 q 1075 822 1034 737 q 1144 975 1115 906 q 959 950 1053 975 q 782 879 866 926 q 627 765 698 831 q 507 616 557 699 q 467 542 486 583 q 438 455 448 501 q 428 364 428 410 q 450 277 428 319 q 451 262 457 266 q 439 271 446 259 q 409 351 419 306 q 399 446 399 396 q 412 547 399 496 q 451 644 425 598 q 561 779 497 723 q 694 875 624 836 q 834 940 763 915 q 968 981 905 965 q 1078 1006 1030 997 q 1150 1023 1126 1015 q 1182 1035 1169 1026 q 1204 1054 1196 1044 q 1216 1058 1209 1059 q 1230 1052 1223 1056 q 1239 1043 1236 1048 q 1239 1033 1241 1037 m 793 257 q 546 156 676 219 q 290 13 415 93 q 56 -161 165 -67 q -126 -357 -52 -256 q -177 -458 -167 -415 q -171 -527 -187 -502 q -117 -558 -155 -552 q -27 -552 -80 -565 q 128 -492 55 -529 q 262 -409 200 -456 q 378 -310 325 -363 q 478 -204 432 -257 q 555 -105 512 -165 q 642 21 598 -44 q 725 150 686 87 q 793 257 765 213 "},"Ã":{"x_min":67,"x_max":1529.578125,"ha":1458,"o":"m 1246 467 q 1271 537 1253 487 q 1314 650 1289 587 q 1367 783 1339 713 q 1424 911 1396 852 q 1425 925 1428 919 q 1416 937 1422 932 q 1404 948 1410 943 q 1395 958 1397 953 q 1387 990 1395 976 q 1369 1010 1379 1004 q 1347 1014 1358 1016 q 1329 1001 1336 1012 q 1267 899 1303 957 q 1190 779 1231 841 q 1107 654 1150 717 q 1024 535 1064 591 q 948 432 984 478 q 887 356 913 385 q 695 392 799 377 q 489 408 591 408 q 298 389 388 408 q 153 324 208 370 q 87 244 108 288 q 67 156 67 201 q 84 70 67 112 q 133 -2 101 29 q 211 -52 165 -33 q 309 -71 256 -71 q 445 -43 377 -71 q 575 24 513 -16 q 691 113 637 66 q 788 204 746 161 q 857 278 830 246 q 891 318 884 310 q 943 307 907 314 q 1016 292 978 300 q 1089 277 1055 284 q 1139 268 1124 270 q 1124 205 1135 249 q 1107 104 1114 160 q 1101 -12 1101 48 q 1115 -126 1101 -73 q 1127 -136 1122 -139 q 1128 -119 1132 -134 q 1120 -10 1120 -72 q 1131 108 1120 51 q 1156 210 1142 166 q 1177 267 1169 255 q 1202 267 1186 266 q 1234 272 1218 268 q 1263 282 1250 275 q 1281 298 1277 288 q 1283 336 1286 311 q 1272 386 1279 360 q 1257 434 1266 412 q 1246 467 1249 456 m 164 309 q 329 371 235 359 q 520 384 423 384 q 708 363 617 384 q 862 324 799 343 q 766 211 825 275 q 634 89 707 147 q 477 -7 562 31 q 307 -47 393 -47 q 218 -26 257 -47 q 152 25 179 -6 q 111 96 125 57 q 98 176 98 136 q 114 251 98 215 q 164 309 130 286 m 919 350 q 959 402 931 364 q 1023 490 987 439 q 1102 601 1060 541 q 1184 719 1143 660 q 1258 830 1224 777 q 1317 921 1293 883 q 1333 935 1325 933 q 1347 932 1341 937 q 1353 914 1353 926 q 1348 886 1353 902 q 1296 748 1324 820 q 1241 600 1268 676 q 1189 449 1214 524 q 1146 303 1164 374 q 1099 310 1132 305 q 1030 323 1067 316 q 962 338 993 331 q 919 350 931 346 m 1220 1143 q 1255 1165 1235 1155 q 1299 1175 1275 1175 q 1330 1166 1311 1175 q 1369 1149 1350 1158 q 1408 1132 1389 1140 q 1440 1124 1428 1124 q 1464 1130 1453 1124 q 1485 1145 1475 1136 q 1506 1164 1496 1154 q 1522 1181 1515 1175 q 1528 1201 1532 1197 q 1510 1194 1524 1206 q 1483 1174 1496 1179 q 1440 1170 1471 1170 q 1407 1178 1426 1170 q 1367 1195 1388 1186 q 1329 1213 1347 1205 q 1299 1222 1311 1222 q 1275 1215 1288 1222 q 1252 1197 1263 1208 q 1230 1176 1240 1187 q 1211 1157 1220 1165 q 1204 1136 1203 1143 q 1220 1143 1204 1129 m 1261 316 q 1226 297 1250 299 q 1188 298 1202 295 q 1197 327 1190 307 q 1211 370 1203 348 q 1226 415 1218 393 q 1238 449 1234 437 q 1251 412 1245 431 q 1261 373 1257 392 q 1266 339 1266 355 q 1261 316 1266 324 "},"©":{"x_min":14.390625,"x_max":931.984375,"ha":950,"o":"m 930 647 q 878 821 921 741 q 768 959 835 901 q 614 1045 700 1016 q 434 1066 528 1075 q 260 1015 339 1058 q 123 904 180 972 q 37 751 66 837 q 16 570 7 665 q 67 397 24 476 q 178 261 110 317 q 331 174 245 204 q 512 154 417 145 q 685 205 605 162 q 823 315 766 248 q 909 467 880 381 q 930 647 938 552 m 901 645 q 874 475 901 556 q 795 331 848 394 q 667 226 742 267 q 505 186 592 186 q 337 212 417 186 q 195 291 257 239 q 92 416 132 342 q 44 576 52 490 q 71 746 44 665 q 150 890 98 827 q 278 995 203 954 q 441 1036 353 1036 q 608 1009 528 1036 q 750 930 688 982 q 853 805 813 879 q 901 645 892 731 m 750 537 q 768 567 774 561 q 745 558 762 574 q 662 493 714 527 q 549 429 610 459 q 422 376 488 398 q 299 349 356 355 q 212 379 232 342 q 210 483 191 415 q 260 588 223 527 q 350 706 298 648 q 462 813 402 765 q 578 883 521 862 q 616 888 605 895 q 630 864 627 880 q 630 828 632 848 q 627 794 628 808 q 635 759 624 763 q 662 786 645 755 q 681 825 671 804 q 698 876 691 847 q 694 904 699 890 q 676 926 688 917 q 648 939 664 935 q 612 937 631 942 q 531 901 577 927 q 435 836 485 874 q 337 749 385 797 q 249 651 289 702 q 182 547 209 599 q 150 445 156 494 q 160 388 146 415 q 197 341 174 361 q 248 312 220 322 q 302 306 275 302 q 428 345 359 316 q 562 408 498 373 q 678 479 627 444 q 750 537 730 515 "},"\f":{"x_min":39,"x_max":247,"ha":279,"o":"m 126 840 q 176 866 148 850 q 235 908 204 883 q 247 905 247 918 q 242 891 247 900 q 218 870 235 886 q 172 828 201 854 q 123 783 124 780 q 41 897 120 784 q 39 908 39 905 q 43 916 39 914 q 50 912 45 918 q 91 866 70 887 q 126 840 118 839 "},"D":{"x_min":29.90625,"x_max":1380.78125,"ha":1200,"o":"m 931 981 q 801 1011 878 999 q 637 1023 724 1023 q 461 1012 550 1023 q 295 974 372 1002 q 160 899 218 946 q 78 780 103 852 q 69 672 58 726 q 104 571 79 619 q 162 482 129 523 q 221 412 194 441 q 238 376 246 384 q 203 394 231 369 q 63 574 108 486 q 33 749 18 662 q 108 892 49 833 q 250 987 167 950 q 433 1041 333 1024 q 628 1058 532 1058 q 810 1048 725 1058 q 949 1024 894 1039 q 1167 918 1078 982 q 1309 777 1257 854 q 1375 614 1361 700 q 1367 440 1389 527 q 1285 271 1344 353 q 1132 118 1226 188 q 1041 63 1097 93 q 919 6 985 32 q 784 -37 854 -19 q 651 -56 714 -56 q 542 -32 590 -56 q 469 45 493 -9 q 460 57 464 56 q 450 45 457 58 q 434 2 442 23 q 419 -47 426 -18 q 405 -73 415 -73 q 400 -43 394 -73 q 418 19 406 -15 q 442 87 431 55 q 444 96 444 94 q 440 108 443 98 q 474 179 412 179 q 476 182 479 182 q 478 187 475 182 q 540 308 506 244 q 612 438 575 373 q 689 565 650 502 q 764 683 728 628 q 832 780 800 737 q 887 850 864 824 q 907 864 894 859 q 929 869 919 869 q 945 864 940 869 q 943 849 950 859 q 877 760 917 816 q 792 637 837 705 q 699 497 746 570 q 610 356 651 424 q 536 231 568 288 q 490 140 504 174 q 481 94 481 120 q 493 49 481 68 q 552 0 511 16 q 646 -18 593 -18 q 763 -7 700 -18 q 889 24 826 2 q 1010 75 951 45 q 1117 143 1069 105 q 1288 363 1239 241 q 1315 604 1337 485 q 1195 824 1292 723 q 931 981 1099 925 "},"ÿ":{"x_min":-692.171875,"x_max":1062,"ha":927,"o":"m 1052 553 q 1018 600 1041 581 q 974 629 995 620 q 956 631 960 636 q 964 617 952 625 q 1002 584 985 604 q 1027 540 1020 564 q 1027 500 1031 521 q 1016 460 1024 479 q 998 425 1007 442 q 981 399 988 408 q 916 326 960 365 q 814 245 871 286 q 691 165 756 204 q 563 94 625 126 q 580 212 574 146 q 587 340 587 278 q 591 380 595 364 q 578 404 588 396 q 555 413 568 413 q 532 401 542 413 q 452 317 500 365 q 349 223 403 269 q 241 135 295 176 q 148 72 188 94 q 84 53 103 44 q 85 112 66 61 q 125 201 99 150 q 182 303 150 251 q 244 401 213 354 q 300 479 275 449 q 310 506 313 496 q 297 519 307 517 q 272 514 286 521 q 245 489 257 507 q 187 407 221 457 q 119 299 153 357 q 57 181 85 242 q 17 67 28 121 q 22 39 14 53 q 43 14 30 25 q 74 1 57 4 q 106 5 91 -2 q 201 64 150 28 q 301 142 252 100 q 395 226 350 183 q 474 304 441 269 q 523 292 523 354 q 523 244 523 272 q 520 184 523 215 q 514 121 517 153 q 506 65 510 90 q 325 -30 420 18 q 131 -130 229 -80 q -64 -234 32 -181 q -251 -339 -161 -286 q -421 -443 -342 -392 q -561 -547 -500 -495 q -644 -633 -614 -591 q -685 -715 -675 -675 q -689 -791 -696 -754 q -661 -861 -682 -828 q -596 -918 -638 -897 q -501 -946 -554 -938 q -387 -954 -447 -954 q -264 -941 -326 -954 q 43 -813 -93 -906 q 283 -584 180 -719 q 456 -284 386 -450 q 560 58 525 -119 q 680 124 613 87 q 812 203 746 161 q 932 292 877 246 q 1018 383 988 337 q 1041 423 1031 401 q 1056 466 1051 444 q 1062 510 1062 488 q 1052 553 1062 532 m 502 33 q 402 -294 471 -136 q 232 -580 332 -451 q 4 -798 131 -708 q -268 -920 -122 -888 q -373 -932 -318 -932 q -478 -924 -429 -932 q -567 -897 -528 -917 q -626 -838 -607 -877 q -642 -766 -642 -804 q -626 -693 -642 -729 q -585 -627 -610 -658 q -530 -570 -559 -595 q -280 -390 -414 -474 q -9 -233 -146 -306 q 258 -93 127 -159 q 502 33 389 -27 m 584 629 q 584 645 584 633 q 582 667 584 656 q 579 688 581 678 q 574 701 577 699 q 562 704 571 706 q 543 698 553 703 q 525 688 534 693 q 514 678 516 682 q 512 664 512 675 q 513 643 512 654 q 516 622 514 632 q 521 607 518 611 q 536 604 525 603 q 557 610 547 606 q 575 620 567 614 q 584 629 584 625 m 445 631 q 445 646 445 635 q 443 669 445 657 q 440 690 442 681 q 436 703 439 700 q 423 706 432 707 q 404 700 414 704 q 386 690 395 696 q 375 681 378 685 q 373 667 373 676 q 374 645 373 657 q 378 623 375 633 q 384 608 381 613 q 397 606 388 604 q 418 611 407 607 q 436 621 428 615 q 445 631 445 626 "},"ц":{"x_min":15.21875,"x_max":629.09375,"ha":653,"o":"m 615 412 q 572 341 595 383 q 526 256 548 300 q 488 171 504 212 q 467 101 472 129 q 467 65 463 76 q 477 51 470 54 q 492 43 481 47 q 518 42 502 40 q 555 53 534 44 q 574 62 565 57 q 592 78 583 72 q 602 82 598 80 q 627 89 620 96 q 620 65 633 83 q 572 28 601 48 l 570 28 q 565 15 567 22 q 524 -106 547 -30 q 484 -202 505 -156 q 433 -281 463 -247 q 361 -334 404 -314 q 257 -354 319 -354 q 200 -339 222 -354 q 155 -298 179 -324 q 134 -274 139 -283 q 128 -265 130 -266 q 132 -259 128 -255 q 142 -269 137 -265 q 152 -277 147 -273 q 168 -292 161 -284 q 182 -303 176 -299 q 220 -325 205 -319 q 257 -334 236 -331 q 382 -283 322 -342 q 483 -113 442 -223 q 496 -81 488 -102 q 513 -45 504 -60 q 537 0 524 -24 l 544 14 q 498 6 523 6 q 449 28 470 6 q 429 76 429 50 q 435 131 429 103 q 451 188 441 160 q 472 243 460 216 q 494 294 484 269 q 494 328 502 315 q 460 316 485 341 q 407 264 438 294 q 340 199 376 233 q 267 132 304 165 q 197 70 230 98 q 137 23 164 42 q 97 0 111 4 q 62 -2 78 -6 q 36 12 47 1 q 19 38 25 22 q 15 71 14 54 q 50 186 19 119 q 120 319 80 253 q 201 442 159 385 q 269 530 243 500 q 288 542 276 539 q 308 543 300 546 q 318 531 316 540 q 306 505 319 522 q 238 416 275 467 q 170 312 202 365 q 114 208 139 258 q 79 121 89 158 q 80 47 62 62 q 132 51 97 32 q 246 139 186 84 q 365 254 306 194 q 479 371 424 314 q 574 465 533 428 q 597 473 587 478 q 612 458 606 469 q 618 432 618 446 q 615 412 618 418 "},"Л":{"x_min":37.578125,"x_max":1554,"ha":1364,"o":"m 1129 445 q 1238 659 1190 570 q 1347 830 1286 747 q 1353 844 1353 839 q 1351 857 1353 851 q 1350 868 1350 862 q 1354 880 1350 873 q 1386 917 1366 898 q 1422 958 1405 936 q 1490 1025 1461 1004 q 1537 1051 1520 1047 q 1554 1044 1554 1055 q 1534 1016 1554 1034 q 1447 916 1495 979 q 1352 779 1399 852 q 1263 625 1305 705 q 1194 475 1220 545 q 1179 439 1195 475 q 1145 349 1163 404 q 1114 239 1126 294 q 1098 135 1102 184 q 1103 53 1094 86 q 1136 11 1112 20 q 1201 29 1159 2 q 1235 45 1227 44 q 1233 29 1243 45 q 1177 -15 1213 -5 q 1113 -5 1141 -25 q 1077 35 1095 6 q 1054 115 1059 63 q 1065 248 1050 167 q 1129 445 1080 329 m 895 450 q 645 166 751 269 q 456 10 538 63 q 313 -54 375 -41 q 209 -55 252 -66 q 138 -19 166 -44 q 95 26 111 5 q 63 87 79 49 q 41 172 48 124 q 39 277 34 220 q 69 395 44 334 q 90 419 83 429 q 87 380 98 409 q 63 281 68 331 q 63 186 58 230 q 80 107 68 141 q 106 56 93 73 q 144 17 120 40 q 206 -17 168 -5 q 300 -20 244 -29 q 434 35 356 -12 q 615 179 512 83 q 786 357 719 276 q 891 480 852 438 q 950 552 916 508 q 1022 643 984 595 q 1101 738 1061 691 q 1179 820 1141 786 q 1251 873 1218 855 q 1309 880 1284 891 q 1310 873 1319 876 q 1297 868 1301 869 q 1222 819 1266 858 q 1129 725 1179 780 q 1026 604 1079 669 q 895 450 973 540 "},"$":{"x_min":29,"x_max":754,"ha":644,"o":"m 212 63 q 198 61 208 61 q 70 98 123 61 q 63 101 69 101 q 40 92 52 101 q 29 73 29 84 q 173 19 29 40 q 179 13 180 18 q 154 -26 166 -6 q 126 -65 141 -45 q 122 -76 122 -73 q 133 -82 122 -82 q 154 -72 148 -82 q 205 9 190 -16 q 212 16 215 16 q 475 87 372 16 q 541 195 541 130 q 531 241 541 221 q 430 352 513 274 q 429 366 423 359 q 515 509 469 436 q 613 662 561 583 q 624 671 622 671 q 722 639 706 671 q 737 628 726 628 q 754 646 754 628 q 749 661 754 654 q 644 700 722 700 l 640 700 q 640 701 638 700 q 641 704 640 702 q 668 743 656 726 q 687 773 679 759 q 689 776 689 775 q 690 779 689 777 q 681 784 690 784 q 659 773 670 784 q 611 704 631 731 q 601 699 605 699 q 346 591 429 664 q 289 483 289 544 q 373 334 289 408 q 372 320 382 330 q 284 176 323 240 q 212 63 244 112 m 394 305 q 403 308 398 312 q 437 270 423 287 q 460 240 451 253 q 485 167 485 195 q 450 105 485 131 q 411 80 435 92 q 359 61 387 68 q 302 54 332 54 q 245 56 272 54 q 241 61 240 56 q 316 183 279 122 q 394 305 354 244 m 411 386 q 401 384 407 379 q 349 498 349 444 q 355 535 349 518 q 376 568 361 552 q 571 659 429 626 q 580 659 579 661 q 579 654 580 659 q 471 481 513 548 q 411 386 430 415 "},"w":{"x_min":10.984375,"x_max":796,"ha":732,"o":"m 789 362 q 735 367 750 362 q 689 418 713 418 q 664 408 677 418 q 650 389 652 398 q 659 368 648 382 q 687 349 671 353 q 612 147 687 243 q 460 33 537 53 q 403 90 403 22 q 399 107 399 99 q 399 126 399 115 q 408 217 399 170 q 432 322 417 265 q 460 406 447 371 q 489 465 474 441 q 479 474 490 472 q 454 471 468 474 q 435 464 440 469 q 411 425 421 441 q 394 393 401 408 q 271 230 360 339 q 177 126 218 168 q 105 61 136 83 q 90 56 100 56 q 75 75 75 56 q 77 89 75 81 q 108 157 87 117 q 162 249 129 197 q 231 358 207 320 q 258 402 256 396 q 263 418 263 411 q 242 435 263 435 q 224 425 225 435 q 195 370 221 412 q 120 256 169 328 q 44 131 72 182 q 11 47 16 79 q 24 23 9 37 q 47 10 38 10 q 122 44 76 5 q 224 147 168 82 q 349 306 281 213 q 362 311 355 315 q 365 300 369 309 q 331 82 331 197 q 333 58 331 67 q 364 13 344 29 q 397 0 383 -2 q 615 111 514 10 q 743 341 721 217 q 767 343 755 341 q 789 349 778 346 q 796 356 796 352 q 789 362 796 362 "},"\\":{"x_min":-78,"x_max":868,"ha":632,"o":"m 849 -108 q 865 -138 855 -138 q 868 -104 868 -129 q 502 337 855 -11 q 203 616 338 496 q -39 814 69 735 q -65 826 -51 826 q -78 814 -78 826 q -61 792 -78 802 q 185 592 51 709 q 476 324 319 475 q 849 -108 822 -7 "},"о":{"x_min":28,"x_max":616,"ha":516,"o":"m 90 -23 q 69 -21 80 -24 q 49 -10 58 -17 q 34 5 40 -3 q 28 26 28 15 q 212 367 28 142 q 209 379 217 376 q 184 396 197 386 q 172 414 172 405 q 176 425 172 418 q 212 433 180 433 q 265 433 263 433 q 280 439 270 433 q 341 470 311 470 q 404 445 364 470 q 409 442 407 443 q 414 436 411 440 q 491 436 446 436 q 595 436 536 436 q 616 430 616 433 q 595 420 616 420 q 539 403 552 420 q 539 394 536 399 q 540 386 540 390 q 541 379 541 382 q 499 266 541 326 q 373 135 457 206 q 90 -23 212 -5 m 69 50 q 61 19 61 35 q 105 -5 61 -13 q 332 131 199 10 q 492 356 471 254 q 439 404 502 397 q 376 405 405 408 q 322 392 347 401 q 298 379 319 393 q 69 50 150 242 "},"Д":{"x_min":29.90625,"x_max":1380.78125,"ha":1200,"o":"m 931 981 q 801 1011 878 999 q 637 1023 724 1023 q 461 1012 550 1023 q 295 974 372 1002 q 160 899 218 946 q 78 780 103 852 q 69 672 58 726 q 104 571 79 619 q 162 482 129 523 q 221 412 194 441 q 238 376 246 384 q 203 394 231 369 q 63 574 108 486 q 33 749 18 662 q 108 892 49 833 q 250 987 167 950 q 433 1041 333 1024 q 628 1058 532 1058 q 810 1048 725 1058 q 949 1024 894 1039 q 1167 918 1078 982 q 1309 777 1257 854 q 1375 614 1361 700 q 1367 440 1389 527 q 1285 271 1344 353 q 1132 118 1226 188 q 1041 63 1097 93 q 919 6 985 32 q 784 -37 854 -19 q 651 -56 714 -56 q 542 -32 590 -56 q 469 45 493 -9 q 460 57 464 56 q 450 45 457 58 q 434 2 442 23 q 419 -47 426 -18 q 405 -73 415 -73 q 400 -43 394 -73 q 418 19 406 -15 q 442 87 431 55 q 444 96 444 94 q 440 108 443 98 q 474 179 412 179 q 476 182 479 182 q 478 187 475 182 q 540 308 506 244 q 612 438 575 373 q 689 565 650 502 q 764 683 728 628 q 832 780 800 737 q 887 850 864 824 q 907 864 894 859 q 929 869 919 869 q 945 864 940 869 q 943 849 950 859 q 877 760 917 816 q 792 637 837 705 q 699 497 746 570 q 610 356 651 424 q 536 231 568 288 q 490 140 504 174 q 481 94 481 120 q 493 49 481 68 q 552 0 511 16 q 646 -18 593 -18 q 763 -7 700 -18 q 889 24 826 2 q 1010 75 951 45 q 1117 143 1069 105 q 1288 363 1239 241 q 1315 604 1337 485 q 1195 824 1292 723 q 931 981 1099 925 "},"Ì":{"x_min":-124,"x_max":830.109375,"ha":827,"o":"m -78 154 q -61 169 -65 172 q -64 146 -57 165 q -92 14 -85 85 q -88 -117 -100 -56 q -43 -218 -76 -177 q 49 -259 -9 -259 q 141 -225 95 -259 q 228 -147 187 -191 q 300 -55 269 -102 q 348 19 332 -8 q 395 109 366 51 q 457 240 423 167 q 525 396 490 313 q 594 564 561 479 q 655 729 627 649 q 701 878 683 810 q 636 825 673 857 q 559 755 598 793 q 484 672 520 717 q 418 581 447 628 q 380 506 400 549 q 357 422 361 464 q 346 398 354 395 q 339 422 339 401 q 357 514 344 463 q 393 602 369 565 q 460 693 419 649 q 545 775 501 736 q 634 849 590 814 q 712 913 679 884 q 729 956 720 934 q 746 998 737 978 q 765 1034 755 1018 q 786 1054 775 1049 q 800 1054 795 1059 q 805 1038 804 1049 q 804 1016 807 1028 q 797 993 801 1003 q 773 949 786 971 q 743 907 761 927 q 716 815 736 879 q 666 667 695 751 q 601 486 637 582 q 526 296 565 389 q 448 122 487 203 q 373 -11 409 41 q 325 -81 355 -37 q 254 -167 295 -125 q 162 -243 213 -210 q 49 -276 110 -276 q -27 -254 5 -276 q -82 -195 -60 -233 q -114 -111 -104 -158 q -124 -15 -124 -63 q -112 78 -124 33 q -78 154 -100 123 m 825 1188 q 827 1176 833 1181 q 815 1175 822 1171 q 768 1209 794 1191 q 714 1248 741 1228 q 660 1285 686 1267 q 615 1317 634 1303 q 608 1334 607 1324 q 616 1352 609 1343 q 634 1363 623 1360 q 652 1359 644 1366 q 691 1321 669 1342 q 736 1275 712 1299 q 782 1229 759 1252 q 825 1188 805 1206 "}}}
